<svg width="521" height="478" viewBox="0 0 521 478" fill="none" xmlns="http://www.w3.org/2000/svg">
<path d="M149.572 389.643C149.578 389.603 149.585 389.564 149.591 389.523C149.631 389.53 149.67 389.536 149.71 389.542C149.739 389.514 149.768 389.485 149.797 389.457C149.825 389.485 149.854 389.514 149.882 389.543C149.922 389.537 149.962 389.53 150.002 389.524C150.009 389.564 150.015 389.604 150.021 389.644C150.057 389.662 150.093 389.68 150.13 389.699C150.111 389.735 150.093 389.771 150.074 389.807C150.092 389.844 150.111 389.88 150.129 389.915C150.093 389.933 150.057 389.952 150.021 389.971C150.015 390.011 150.008 390.05 150.002 390.09C149.962 390.084 149.922 390.078 149.882 390.071C149.853 390.1 149.825 390.129 149.796 390.157C149.768 390.128 149.739 390.1 149.71 390.071C149.67 390.077 149.63 390.084 149.59 390.09C149.584 390.05 149.577 390.01 149.571 389.97C149.535 389.952 149.499 389.933 149.463 389.915C149.481 389.879 149.5 389.843 149.519 389.807C149.5 389.77 149.482 389.734 149.464 389.698C149.5 389.68 149.536 389.662 149.572 389.643ZM116.575 344.03C110.162 346.154 104.587 349.615 100.706 354.1C97.6335 359.175 96.0587 365.544 96.0134 372.3C92.0737 377.787 89.5971 383.864 89.0938 389.774C89.5904 395.685 92.0609 401.764 95.9951 407.256C96.033 414.011 97.6012 420.384 100.668 425.46C104.544 429.95 110.116 433.417 116.527 435.548C120.528 440.99 125.543 445.224 131.008 447.529C136.783 448.882 143.328 448.412 149.767 446.367C156.203 448.419 162.748 448.896 168.524 447.548C173.993 445.249 179.011 441.021 183.018 435.582C189.431 433.458 195.006 429.998 198.887 425.512C201.96 420.438 203.535 414.068 203.58 407.313C207.52 401.826 209.997 395.749 210.5 389.838C210.003 383.928 207.533 377.848 203.599 372.357C203.56 365.602 201.993 359.229 198.926 354.152C195.05 349.662 189.478 346.196 183.067 344.065C179.066 338.623 174.051 334.389 168.586 332.084C162.811 330.73 156.266 331.201 149.827 333.245C143.391 331.194 136.846 330.716 131.069 332.065C125.601 334.364 120.582 338.592 116.575 344.03ZM126.55 372.898C126.868 368.267 123.979 363.404 117.429 360.976C115.292 360.218 113.785 361.937 113.794 363.621C112.189 364.131 111.018 366.094 112.398 367.893C116.725 373.377 122.242 374.628 126.55 372.898ZM121.051 389.791C118.587 385.857 113.391 383.621 106.665 385.507C104.491 386.149 104.282 388.426 105.28 389.783C104.281 391.138 104.487 393.416 106.66 394.06C113.384 395.954 118.582 393.723 121.051 389.791ZM126.532 406.69C122.225 404.956 116.708 406.2 112.375 411.68C110.993 413.478 112.163 415.443 113.767 415.953C113.756 417.637 115.261 419.359 117.398 418.602C123.952 416.181 126.846 411.322 126.532 406.69ZM140.899 417.14C136.396 418.268 132.664 422.518 132.379 429.499C132.318 431.765 134.42 432.667 136.017 432.137C136.998 433.507 139.227 434.014 140.512 432.146C144.391 426.336 143.875 420.703 140.899 417.14ZM158.664 417.15C155.684 420.709 155.163 426.342 159.036 432.156C160.319 434.026 162.549 433.521 163.531 432.153C165.128 432.684 167.23 431.784 167.172 429.518C166.894 422.537 163.167 418.282 158.664 417.15ZM173.043 406.715C172.724 411.347 175.613 416.209 182.164 418.637C184.3 419.395 185.807 417.676 185.798 415.993C187.402 415.483 188.574 413.52 187.194 411.721C182.867 406.236 177.351 404.985 173.043 406.715ZM178.541 389.822C181.006 393.756 186.201 395.992 192.929 394.106C195.102 393.463 195.311 391.186 194.314 389.83C195.312 388.474 195.107 386.197 192.933 385.553C186.208 383.659 181.011 385.89 178.541 389.822ZM173.06 372.923C177.367 374.657 182.884 373.412 187.218 367.932C188.599 366.134 187.43 364.17 185.825 363.659C185.837 361.975 184.331 360.254 182.195 361.01C175.641 363.431 172.747 368.291 173.06 372.923ZM158.693 362.473C163.197 361.344 166.929 357.094 167.213 350.114C167.274 347.848 165.173 346.945 163.575 347.475C162.595 346.105 160.365 345.598 159.08 347.467C155.202 353.277 155.717 358.91 158.693 362.473ZM140.928 362.464C143.908 358.904 144.429 353.271 140.557 347.457C139.274 345.587 137.044 346.093 136.062 347.46C134.465 346.93 132.363 347.829 132.421 350.095C132.699 357.077 136.426 361.33 140.928 362.464ZM105.011 357.232C109.118 352.93 115.43 350.788 121.821 351.259C123.354 345.037 127.348 339.701 132.712 337.129C138.563 336.063 144.929 338.04 149.822 342.177C154.72 338.045 161.087 336.074 166.938 337.147C172.299 339.724 176.286 345.064 177.812 351.288C184.204 350.824 190.513 352.973 194.617 357.279C197.438 362.516 197.525 369.18 195.102 375.112C200.546 378.494 204.387 383.94 205.176 389.836C204.381 395.73 200.534 401.173 195.087 404.549C197.504 410.484 197.41 417.148 194.582 422.381C190.475 426.683 184.163 428.825 177.772 428.354C176.239 434.576 172.245 439.912 166.882 442.484C161.03 443.55 154.664 441.573 149.771 437.435C144.873 441.568 138.506 443.538 132.655 442.466C127.294 439.889 123.307 434.548 121.78 428.324C115.388 428.789 109.079 426.64 104.976 422.334C102.154 417.098 102.067 410.433 104.49 404.5C99.0466 401.119 95.2052 395.672 94.4165 389.777C95.2107 383.882 99.0581 378.439 104.506 375.064C102.089 369.13 102.184 362.464 105.011 357.232ZM144.686 382.766C144.647 383.89 144.575 384.945 144.471 385.933C143.562 386.336 142.581 386.73 141.525 387.114C142.153 388.047 142.714 388.943 143.212 389.803C142.714 390.663 142.151 391.558 141.522 392.491C142.578 392.875 143.559 393.271 144.467 393.675C144.57 394.664 144.641 395.719 144.68 396.842C145.761 396.533 146.787 396.276 147.759 396.069C148.423 396.808 149.101 397.62 149.792 398.506C150.485 397.62 151.164 396.81 151.828 396.071C152.801 396.279 153.826 396.537 154.906 396.848C154.946 395.724 155.019 394.669 155.122 393.681C156.031 393.277 157.013 392.884 158.069 392.5C157.441 391.567 156.879 390.671 156.382 389.811C156.88 388.95 157.442 388.055 158.072 387.123C157.016 386.738 156.035 386.343 155.127 385.939C155.024 384.95 154.953 383.895 154.914 382.772C153.833 383.081 152.808 383.338 151.835 383.545C151.171 382.805 150.493 381.994 149.801 381.108C149.109 381.994 148.43 382.804 147.765 383.543C146.793 383.334 145.768 383.077 144.686 382.766Z" fill="#F66E27"/>
<path d="M149.999 0C140.433 4.16879 138.714 21.0077 149.985 25.6389C161.262 21.0199 159.56 4.17857 149.999 0ZM379.082 74.5679C368.894 72.3173 357.605 84.93 364.001 95.3018C375.839 98.1932 384.361 83.5683 379.082 74.5679ZM520.585 269.547C513.665 261.737 497.118 265.305 496.196 277.456C504.075 286.753 519.566 279.932 520.585 269.547ZM520.457 510.461C519.449 500.075 503.965 493.236 496.077 502.525C496.986 514.677 513.528 518.263 520.457 510.461ZM378.748 705.289C384.037 696.294 375.531 681.66 363.689 684.539C357.281 694.905 368.557 707.529 378.748 705.289ZM149.586 779.614C159.151 775.445 160.871 758.606 149.599 753.975C138.323 758.595 140.024 775.436 149.586 779.614ZM-79.4975 705.046C-69.3089 707.297 -58.0201 694.684 -64.4162 684.312C-76.2542 681.421 -84.7769 696.046 -79.4975 705.046ZM-221 510.067C-214.08 517.877 -197.533 514.309 -196.612 502.158C-204.49 492.861 -219.981 499.683 -221 510.067ZM-220.872 269.154C-219.864 279.539 -204.38 286.378 -196.492 277.09C-197.401 264.938 -213.944 261.352 -220.872 269.154ZM-79.1634 74.3253C-84.4525 83.3202 -75.9457 97.9544 -64.104 95.0758C-57.6969 84.71 -68.9723 72.0858 -79.1634 74.3253ZM-22.9421 151.793C-30.9608 145.718 -40.5159 137.654 -44.6407 132.017C-49.2389 126.566 -50.3838 127.234 -37.4186 133.384C-36.8425 133.638 -36.3025 133.869 -35.7918 134.087C-35.84 133.534 -35.8932 132.949 -35.9555 132.322C-37.7839 118.088 -38.7736 118.97 -35.0172 125.031C-30.9357 130.702 -26.2318 142.286 -22.9421 151.793ZM149.949 95.7185C147.031 86.0907 144.041 73.9508 144.018 66.9658C143.502 59.8525 142.183 59.7199 149.057 72.3173C149.374 72.861 149.675 73.3656 149.96 73.8421C150.246 73.3662 150.547 72.861 150.864 72.3179C157.752 59.7285 156.433 59.8592 155.909 66.9719C155.879 73.957 152.875 86.0944 149.949 95.7185ZM322.78 151.976C326.079 142.473 330.796 130.894 334.882 125.229C338.646 119.171 337.657 118.288 335.813 132.52C335.751 133.146 335.697 133.732 335.648 134.285C336.159 134.067 336.699 133.836 337.275 133.583C350.248 127.446 349.103 126.777 344.499 132.223C340.368 137.857 330.805 145.91 322.78 151.976ZM429.536 299.077C437.791 293.329 448.413 286.732 455.049 284.552C461.654 281.863 461.373 280.568 451.516 290.998C451.097 291.467 450.71 291.909 450.345 292.328C450.886 292.453 451.46 292.583 452.074 292.717C466.176 295.377 465.644 294.163 458.718 295.863C452.064 297.992 439.593 298.887 429.536 299.077ZM429.439 480.834C439.497 481.035 451.967 481.943 458.618 484.079C465.542 485.786 466.075 484.573 451.971 487.218C451.356 487.351 450.783 487.482 450.241 487.605C450.606 488.024 450.993 488.467 451.412 488.936C461.257 499.377 461.54 498.082 454.937 495.386C448.303 493.198 437.689 486.592 429.439 480.834ZM322.528 627.822C330.546 633.897 340.101 641.96 344.226 647.598C348.824 653.049 349.969 652.381 337.004 646.23C336.427 645.976 335.887 645.744 335.377 645.527C335.426 646.08 335.478 646.665 335.541 647.292C337.369 661.526 338.359 660.644 334.602 654.582C330.521 648.912 325.817 637.328 322.528 627.822ZM149.636 683.896C152.553 693.524 155.544 705.664 155.567 712.649C156.083 719.762 157.402 719.895 150.528 707.297C150.211 706.754 149.91 706.249 149.625 705.773C149.339 706.249 149.038 706.754 148.72 707.297C141.833 719.886 143.152 719.755 143.675 712.643C143.706 705.658 146.71 693.52 149.636 683.896ZM-23.195 627.638C-26.4945 637.141 -31.2106 648.72 -35.2975 654.386C-39.0613 660.444 -38.0723 661.326 -36.2286 647.094C-36.1657 646.468 -36.1125 645.883 -36.063 645.33C-36.5737 645.547 -37.1144 645.778 -37.6905 646.031C-50.6624 652.169 -49.5181 652.838 -44.9144 647.392C-40.7834 641.758 -31.2198 633.705 -23.195 627.638ZM-129.951 480.538C-138.206 486.286 -148.828 492.883 -155.464 495.063C-162.069 497.751 -161.788 499.047 -151.931 488.617C-151.512 488.148 -151.125 487.705 -150.76 487.287C-151.301 487.162 -151.875 487.031 -152.489 486.898C-166.591 484.238 -166.059 485.452 -159.133 483.752C-152.479 481.622 -140.009 480.728 -129.951 480.538ZM-129.855 298.781C-139.912 298.579 -152.382 297.672 -159.033 295.536C-165.957 293.829 -166.49 295.042 -152.385 292.397C-151.771 292.263 -151.197 292.133 -150.656 292.01C-151.021 291.591 -151.407 291.148 -151.826 290.678C-161.671 280.237 -161.954 281.532 -155.351 284.228C-148.718 286.416 -138.104 293.023 -129.855 298.781ZM-15.8929 161.506C-17.0591 161.128 -18.4379 160.682 -20.047 160.168C-37.6465 153.585 -46.6909 139.933 -49.1767 129.045C-38.7547 143.146 -26.3912 152.573 -18.543 157.854C-21.1314 148.756 -26.2605 134.079 -36.4363 119.798C-26.8549 125.538 -16.6791 138.369 -15.8776 157.142C-15.8886 158.831 -15.8911 160.28 -15.8929 161.506ZM149.942 107.72C149.221 106.729 148.368 105.557 147.367 104.196C136.998 88.5257 137.706 72.1646 142.095 61.8947C142.238 79.4288 146.699 94.322 149.944 103.208C153.199 94.3256 157.676 79.4374 157.838 61.9033C162.215 72.1786 162.906 88.5398 152.519 104.199C151.519 105.558 150.664 106.729 149.942 107.72ZM315.72 161.682C315.72 160.456 315.718 159.007 315.709 157.318C316.531 138.545 326.72 125.725 336.307 119.996C326.117 134.266 320.972 148.937 318.375 158.033C326.228 152.76 338.602 143.347 349.039 129.256C346.541 140.142 337.482 153.785 319.875 160.348C318.266 160.86 316.887 161.305 315.72 161.682ZM418.12 302.78C418.84 301.788 419.69 300.615 420.676 299.243C432.374 284.539 448.153 280.156 459.277 281.156C442.645 286.711 429.859 295.557 422.411 301.388C431.865 301.738 447.408 301.396 464.134 296.131C455.714 303.47 440.367 309.182 422.265 304.143C420.662 303.611 419.285 303.16 418.12 302.78ZM418.027 477.119C419.192 476.74 420.571 476.29 422.174 475.761C440.281 470.741 455.623 476.47 464.034 483.817C447.314 478.535 431.771 478.176 422.318 478.516C429.76 484.356 442.536 493.215 459.162 498.787C448.037 499.775 432.263 495.376 420.58 480.659C419.596 479.286 418.746 478.112 418.027 477.119ZM315.478 618.108C316.643 618.487 318.023 618.933 319.632 619.447C337.232 626.029 346.276 639.682 348.762 650.57C338.34 636.468 325.976 627.042 318.128 621.76C320.716 630.859 325.845 645.536 336.021 659.816C326.439 654.077 316.263 641.246 315.463 622.472C315.473 620.784 315.477 619.334 315.478 618.108ZM149.643 671.894C150.364 672.886 151.217 674.058 152.217 675.419C162.586 691.089 161.879 707.45 157.49 717.72C157.347 700.186 152.886 685.293 149.641 676.407C146.386 685.289 141.909 700.177 141.747 717.711C137.369 707.437 136.679 691.075 147.065 675.416C148.067 674.056 148.921 672.885 149.643 671.894ZM-16.1354 617.933C-16.1348 619.158 -16.1336 620.608 -16.1244 622.297C-16.9461 641.07 -27.1353 653.889 -36.7228 659.618C-26.5317 645.349 -21.3873 630.677 -18.7898 621.581C-26.6429 626.854 -39.0167 636.268 -49.454 650.358C-46.956 639.473 -37.8975 625.83 -20.2908 619.266C-18.681 618.755 -17.3017 618.309 -16.1354 617.933ZM-118.535 476.835C-119.254 477.826 -120.105 479 -121.091 480.371C-132.789 495.076 -148.568 499.458 -159.692 498.458C-143.061 492.904 -130.274 484.058 -122.826 478.226C-132.28 477.876 -147.823 478.219 -164.549 483.484C-156.13 476.145 -140.783 470.433 -122.68 475.471C-121.077 476.003 -119.7 476.454 -118.535 476.835ZM-118.442 302.495C-119.608 302.875 -120.986 303.324 -122.589 303.854C-140.697 308.874 -156.038 303.145 -164.449 295.797C-147.73 301.08 -132.186 301.438 -122.733 301.098C-130.175 295.258 -142.951 286.399 -159.577 280.827C-148.452 279.839 -132.678 284.238 -120.995 298.955C-120.011 300.328 -119.161 301.502 -118.442 302.495ZM-67.5208 90.3676C-72.535 89.5136 -75.7472 84.272 -75.4057 79.5027C-70.7659 80.6567 -66.7779 85.3356 -67.5208 90.3676ZM149.988 19.8219C146.433 16.184 146.917 10.0548 149.996 6.39737C153.071 10.0579 153.547 16.1877 149.988 19.8219ZM367.423 90.5979C366.686 85.5653 370.678 80.8907 375.32 79.7416C375.656 84.5109 372.439 89.75 367.423 90.5979ZM501.73 275.662C504.091 271.157 510.069 269.722 514.5 271.52C511.968 275.576 506.286 277.924 501.73 275.662ZM501.608 504.325C506.167 502.069 511.847 504.422 514.374 508.481C509.942 510.274 503.966 508.833 501.608 504.325ZM367.106 689.247C372.121 690.101 375.333 695.343 374.991 700.112C370.351 698.958 366.363 694.279 367.106 689.247ZM149.597 759.793C153.152 763.431 152.668 769.56 149.589 773.217C146.514 769.557 146.038 763.427 149.597 759.793ZM-67.8385 689.017C-67.1011 694.049 -71.094 698.724 -75.735 699.873C-76.0716 695.103 -72.8533 689.865 -67.8385 689.017ZM-202.145 503.952C-204.506 508.458 -210.485 509.893 -214.915 508.094C-212.384 504.038 -206.701 501.691 -202.145 503.952ZM-202.024 275.289C-206.583 277.546 -212.262 275.193 -214.79 271.134C-210.357 269.34 -204.38 270.781 -202.024 275.289ZM1.69559 185.742C-22.1876 197.826 -16.7408 238.063 -18.7904 224.082C-21.3287 205.725 -10.9818 194.151 0.653397 184.306C13.621 176.296 27.8318 170.047 44.4972 178.152C57.1544 184.435 20.5883 166.782 1.69559 185.742ZM149.926 137.666C123.502 133.404 104.257 169.158 110.817 156.642C119.554 140.299 134.727 137.017 149.927 135.892C165.126 137.034 180.295 140.331 189.015 156.683C195.561 169.206 176.355 133.431 149.926 137.666ZM298.106 185.899C279.233 166.919 242.648 184.533 255.313 178.263C271.986 170.176 286.191 176.44 299.15 184.464C310.774 194.322 321.108 205.906 318.551 224.26C316.486 238.24 321.976 198.008 298.106 185.899ZM389.635 312.019C385.523 285.57 345.571 278.316 359.502 280.688C377.745 283.946 385.555 297.362 391.322 311.471C394.933 326.279 396.485 341.725 383.627 355.07C373.74 365.167 401.829 335.846 389.635 312.019ZM389.552 467.85C401.771 444.036 373.714 414.685 383.59 424.792C396.433 438.151 394.866 453.596 391.239 468.4C385.457 482.502 377.633 495.91 359.386 499.149C345.453 501.506 385.412 494.294 389.552 467.85ZM297.889 593.873C321.773 581.789 316.326 541.551 318.376 555.533C320.914 573.89 310.567 585.464 298.932 595.309C285.965 603.319 271.754 609.567 255.088 601.463C242.43 595.18 278.997 612.833 297.889 593.873ZM149.658 641.949C176.083 646.211 195.327 610.457 188.767 622.973C180.031 639.316 164.858 642.597 149.657 643.723C134.458 642.581 119.289 639.283 110.569 622.931C104.023 610.408 123.23 646.183 149.658 641.949ZM1.47932 593.716C20.3513 612.696 56.937 595.082 44.2724 601.351C27.5984 609.438 13.3943 603.175 0.435272 595.151C-11.1896 585.293 -21.5236 573.709 -18.9663 555.355C-16.9021 541.375 -22.391 581.606 1.47932 593.716ZM-90.0496 467.596C-85.937 494.045 -45.9859 501.298 -59.9175 498.927C-78.1602 495.668 -85.97 482.252 -91.7375 468.144C-95.3479 453.335 -96.8996 437.889 -84.042 424.544C-74.1552 414.448 -102.244 443.769 -90.0496 467.596ZM-89.9671 311.764C-102.186 335.579 -74.1289 364.93 -84.0053 354.823C-96.8489 341.463 -95.2808 326.02 -91.6544 311.215C-85.8716 297.113 -78.0478 283.705 -59.8014 280.465C-45.868 278.109 -85.8271 285.32 -89.9671 311.764ZM149.909 168.415C142.442 164.299 132.153 167.85 129.383 179.654C125.924 171.509 125.475 174.593 127.455 171.268C131.052 164.058 141.203 160.018 149.913 163.885C158.626 160.027 168.773 164.078 172.363 171.292C174.338 174.618 173.893 171.534 170.425 179.676C167.667 167.869 157.381 164.307 149.909 168.415ZM280.019 210.766C276.397 203.047 265.986 199.872 256.806 207.793C258.795 199.17 256.62 201.401 260.175 199.875C267.324 196.156 277.911 198.854 282.684 207.102C292.001 209.102 297.829 218.343 296.493 226.29C296.135 230.143 297.589 227.386 289.998 231.934C294.705 220.761 288.478 211.834 280.019 210.766ZM360.385 321.505C361.992 313.13 355.436 304.443 343.354 305.455C350.031 299.648 346.96 300.174 350.734 301.03C358.703 302.223 365.682 310.629 364.695 320.107C371.057 327.202 370.34 338.104 364.588 343.748C362.035 346.655 364.83 345.278 356.016 344.496C366.392 338.224 366.602 327.341 360.385 321.505ZM360.312 458.333C366.534 452.503 366.337 441.62 355.967 435.337C364.782 434.565 361.989 433.185 364.539 436.095C370.284 441.745 370.99 452.647 364.62 459.735C365.597 469.214 358.609 477.613 350.638 478.798C346.864 479.649 349.935 480.178 343.263 474.364C355.345 475.389 361.911 466.709 360.312 458.333ZM279.829 568.986C288.29 567.927 294.526 559.007 289.83 547.828C297.416 552.385 295.966 549.626 296.319 553.479C297.647 561.427 291.809 570.662 282.489 572.652C277.708 580.896 267.118 583.582 259.973 579.856C256.42 578.326 258.592 580.56 256.613 571.935C265.784 579.866 276.199 576.702 279.829 568.986ZM149.675 611.2C157.142 615.316 167.432 611.765 170.203 599.961C173.662 608.106 174.11 605.022 172.131 608.347C168.533 615.557 158.383 619.597 149.673 615.729C140.959 619.588 130.813 615.537 127.223 608.323C125.247 604.996 125.693 608.08 129.16 599.939C131.918 611.746 142.203 615.308 149.675 611.2ZM19.5663 568.849C23.1883 576.568 33.5993 579.742 42.7787 571.822C40.7896 580.444 42.965 578.213 39.4096 579.74C32.2614 583.458 21.6745 580.761 16.9015 572.512C7.58406 570.512 1.75604 561.271 3.09207 553.324C3.44884 549.471 1.99612 552.229 9.58719 547.68C4.87959 558.853 11.1065 567.78 19.5663 568.849ZM-60.8009 458.11C-62.4075 466.484 -55.8513 475.171 -43.7689 474.16C-50.4467 479.966 -47.3751 479.44 -51.1486 478.584C-59.1178 477.391 -66.0974 468.985 -65.1102 459.507C-71.4727 452.412 -70.7549 441.511 -65.0033 435.867C-62.4503 432.96 -65.2458 434.336 -56.4311 435.118C-66.8067 441.39 -67.0168 452.273 -60.8009 458.11ZM-60.7276 321.282C-66.9502 327.111 -66.7523 337.995 -56.3828 344.277C-65.1975 345.05 -62.4039 346.429 -64.9538 343.52C-70.6993 337.87 -71.4055 326.967 -65.035 319.88C-66.0125 310.4 -59.0237 302.002 -51.0533 300.817C-47.2792 299.966 -50.3502 299.436 -43.6785 305.25C-55.7603 304.225 -62.3263 312.906 -60.7276 321.282ZM19.7563 210.628C11.2953 211.688 5.05859 220.608 9.7552 231.786C2.16904 227.23 3.6187 229.988 3.2662 226.136C1.93811 218.188 7.77588 208.953 17.0958 206.962C21.8773 198.719 32.4667 196.032 39.6118 199.759C43.1654 201.289 40.9924 199.056 42.9724 207.68C33.8009 199.749 23.3862 202.913 19.7563 210.628ZM149.852 277.567C143.239 281.059 134.59 293.848 119.711 283.406C113.72 279.371 116.872 276.919 119.208 271.862C120.87 286.579 141.164 286.399 147.636 271.22C149.678 266.432 148.303 265.822 149.857 268.315C151.413 265.824 150.037 266.433 152.074 271.223C158.53 286.408 178.825 286.611 180.502 271.895C182.832 276.955 185.982 279.409 179.986 283.438C165.096 293.864 156.461 281.066 149.852 277.567ZM215.814 299.038C208.411 297.976 193.897 303.239 187.998 286.045C185.522 279.26 189.514 279.129 194.375 276.41C187.069 289.294 203.594 301.076 217.751 292.601C222.218 289.928 221.464 288.626 221.255 291.556C223.979 290.456 222.508 290.139 221.341 295.212C217.638 311.292 233.937 323.384 243.944 312.465C242.855 317.928 243.96 321.765 236.742 321.5C218.567 321.183 219.104 305.754 215.814 299.038ZM256.558 355.18C251.193 349.97 236.358 345.696 241.691 328.319C243.676 321.374 246.982 323.614 252.514 324.273C239.03 330.401 245.474 349.646 261.91 351.111C267.094 351.574 267.249 350.077 265.359 352.325C268.209 353.036 267.205 351.916 263.279 355.333C250.832 366.166 256.91 385.528 271.424 382.577C267.331 386.357 265.97 390.111 260.286 385.654C245.769 374.714 255.272 362.547 256.558 355.18ZM256.52 424.548C255.244 417.18 245.753 405.003 260.282 394.079C265.97 389.627 267.328 393.383 271.416 397.167C256.905 394.199 250.807 413.556 263.242 424.402C267.164 427.823 268.169 426.704 265.319 427.412C267.207 429.662 267.053 428.165 261.867 428.622C245.431 430.07 238.967 449.308 252.444 455.451C246.912 456.103 243.603 458.34 241.625 451.393C236.31 434.01 251.151 429.753 256.52 424.548ZM215.718 480.646C219.015 473.934 218.495 458.505 236.67 458.207C243.889 457.95 242.779 461.786 243.862 467.25C233.867 456.32 217.555 468.396 221.241 484.479C222.403 489.553 223.874 489.239 221.152 488.135C221.356 491.066 222.112 489.764 217.648 487.086C203.5 478.596 186.962 490.361 194.255 503.252C189.396 500.528 185.404 500.393 187.887 493.61C193.805 476.422 208.314 481.701 215.718 480.646ZM149.733 502.047C156.346 498.555 164.994 485.766 179.874 496.209C185.865 500.244 182.712 502.696 180.377 507.753C178.715 493.035 158.421 493.216 151.949 508.395C149.907 513.182 151.282 513.793 149.728 511.299C148.171 513.791 149.548 513.182 147.51 508.392C141.054 493.207 120.76 493.004 119.083 507.72C116.752 502.659 113.603 500.205 119.599 496.177C134.488 485.75 143.124 498.549 149.733 502.047ZM83.7708 480.577C91.1731 481.638 105.688 476.375 111.587 493.569C114.063 500.355 110.071 500.486 105.21 503.204C112.516 490.321 95.9906 478.539 81.833 487.014C77.3667 489.688 78.1206 490.989 78.3289 488.06C75.6055 489.16 77.0765 489.476 78.244 484.403C81.9466 468.324 65.6478 456.231 55.6412 467.15C56.7299 461.687 55.6248 457.85 62.8432 458.115C81.0175 458.431 80.4811 473.861 83.7708 480.577ZM43.0273 424.435C48.3917 429.645 63.2274 433.918 57.8942 451.295C55.9082 458.241 52.6026 456.001 47.0709 455.342C60.5547 449.214 54.1109 429.969 37.6752 428.503C32.4911 428.041 32.3354 429.537 34.2261 427.29C31.3762 426.578 32.3799 427.699 36.3056 424.281C48.7521 413.45 42.6742 394.086 28.1604 397.038C32.2529 393.258 33.614 389.504 39.2984 393.961C53.8159 404.9 44.3127 417.068 43.0273 424.435ZM43.0646 355.067C44.3414 362.435 53.8323 374.612 39.3033 385.536C33.6146 389.987 32.2571 386.231 28.169 382.448C42.6803 385.415 48.7784 366.058 36.3435 355.212C32.4215 351.791 31.4165 352.91 34.267 352.202C32.3787 349.952 32.5327 351.449 37.718 350.992C54.1549 349.544 60.6189 330.306 47.1411 324.163C52.6735 323.511 55.9815 321.274 57.9602 328.221C63.2744 345.604 48.4338 349.862 43.0646 355.067ZM83.8673 298.968C80.5697 305.68 81.0901 321.11 62.9152 321.407C55.6962 321.665 56.8056 317.829 55.7225 312.364C65.7174 323.294 82.0297 311.219 78.3435 295.135C77.1816 290.061 75.7106 290.376 78.4327 291.479C78.2281 288.549 77.4724 289.851 81.9362 292.528C96.0841 301.018 112.622 289.254 105.33 276.363C110.189 279.087 114.18 279.221 111.696 286.005C105.78 303.192 91.2715 297.913 83.8673 298.968ZM46.2676 280.633C34.9439 252.264 26.1713 254.186 42.8331 251.768C62.0166 254.825 59.2755 277.203 46.2676 280.633ZM1.86845 362.334C-23.9678 346.039 -29.9345 352.75 -17.8765 341C-0.559875 332.197 10.3759 351.913 1.86845 362.334ZM13.9704 454.528C-16.5093 456.531 -17.392 465.468 -14.5428 448.875C-5.70731 431.575 14.7279 441.097 13.9704 454.528ZM77.952 522.002C54.4707 541.538 59.0103 549.287 51.5616 534.188C48.5407 514.999 70.6706 510.69 77.952 522.002ZM169.375 538.981C161.861 568.589 170.088 572.189 155.186 564.352C141.464 550.603 156.835 534.111 169.375 538.981ZM253.317 498.981C264.641 527.35 273.414 525.428 256.752 527.846C237.568 524.79 240.309 502.411 253.317 498.981ZM297.716 417.281C323.553 433.576 329.519 426.864 317.461 438.614C300.145 447.417 289.209 427.702 297.716 417.281ZM285.615 325.086C316.094 323.083 316.976 314.146 314.128 330.74C305.292 348.04 284.857 338.517 285.615 325.086ZM221.632 257.613C245.114 238.077 240.575 230.328 248.023 245.427C251.044 264.616 228.914 268.924 221.632 257.613ZM130.21 240.633C137.724 211.026 129.497 207.425 144.398 215.262C158.121 229.011 142.75 245.504 130.21 240.633ZM51.7143 245.323C59.1796 230.232 54.6314 237.975 78.0925 257.536C70.7989 268.84 48.6739 264.509 51.7143 245.323ZM-14.4799 330.565C-17.3114 313.969 -16.4384 322.907 14.0388 324.942C14.7823 338.374 -5.66273 347.875 -14.4799 330.565ZM-17.9284 438.437C-29.9742 426.674 -24.0142 433.392 1.83914 417.124C10.3356 427.554 -0.620987 447.257 -17.9284 438.437ZM42.6871 527.733C26.0272 525.296 34.7979 527.229 46.1521 498.871C59.1563 502.316 61.8737 524.697 42.6871 527.733ZM144.213 564.346C129.304 572.168 137.535 568.576 130.052 538.961C142.597 534.103 157.951 550.612 144.213 564.346ZM247.871 534.292C240.405 549.383 244.953 541.639 221.493 522.078C228.786 510.775 250.911 515.106 247.871 534.292ZM314.065 449.049C316.896 465.646 316.023 456.707 285.545 454.673C284.803 441.241 305.248 431.74 314.065 449.049ZM317.513 341.178C329.559 352.941 323.599 346.223 297.746 362.491C289.249 352.061 300.206 332.357 317.513 341.178ZM256.898 251.881C273.557 254.318 264.787 252.385 253.433 280.743C240.429 277.299 237.711 254.918 256.898 251.881ZM155.372 215.268C170.282 207.447 162.05 211.039 169.533 240.654C156.988 245.512 141.634 229.003 155.372 215.268ZM149.867 248.415C144.209 252.789 136.451 254.616 126.955 251.669C130.252 241.423 128.64 242.845 132.626 244.143C140.272 244.943 146.244 242.316 149.872 238.065C153.496 242.32 159.465 244.953 167.112 244.161C171.1 242.867 169.489 241.444 172.775 251.693C163.277 254.631 155.521 252.795 149.867 248.415ZM232.961 275.462C225.813 275.675 218.462 272.593 212.513 264.628C221.202 258.276 219.062 258.479 221.524 261.872C227.24 267.014 233.615 268.399 239.049 267.092C239.48 272.664 242.761 278.303 249.413 282.158C253.4 283.455 252.933 281.356 249.567 291.579C240.157 288.374 234.961 282.329 232.961 275.462ZM284.288 346.186C278.379 342.156 274.243 335.343 274.113 325.401C284.876 325.37 283.025 324.276 283.023 328.468C284.625 335.988 288.969 340.855 294.133 342.992C291.206 347.754 290.546 354.244 293.662 361.272C296.125 364.666 296.981 362.693 288.249 368.986C282.52 360.86 281.869 352.917 284.288 346.186ZM284.241 433.571C281.83 426.838 282.489 418.895 288.227 410.775C296.952 417.076 296.098 415.103 293.632 418.494C290.508 425.519 291.161 432.01 294.083 436.774C288.916 438.906 284.567 443.769 282.957 451.287C282.955 455.48 284.807 454.387 274.044 454.345C274.186 444.404 278.329 437.595 284.241 433.571ZM232.841 504.24C234.847 497.376 240.049 491.337 249.464 488.141C252.819 498.367 253.287 496.269 249.299 497.562C242.643 501.41 239.356 507.045 238.92 512.617C233.487 511.304 227.11 512.682 221.389 517.818C218.923 521.209 221.063 521.414 212.38 515.053C218.338 507.093 225.692 504.02 232.841 504.24ZM149.718 531.2C155.376 526.826 163.134 524.998 172.63 527.946C169.332 538.192 170.945 536.77 166.959 535.472C159.312 534.671 153.341 537.298 149.713 541.549C146.089 537.295 140.12 534.661 132.473 535.454C128.485 536.748 130.095 538.171 126.81 527.922C136.308 524.984 144.064 526.82 149.718 531.2ZM66.6234 504.152C73.7722 503.939 81.1232 507.021 87.0721 514.986C78.3827 521.338 80.5232 521.135 78.0607 517.742C72.3445 512.6 65.9697 511.215 60.5358 512.522C60.1051 506.949 56.8239 501.311 50.1718 497.456C46.1851 496.159 46.6518 498.258 50.0173 488.035C59.4282 491.241 64.6239 497.285 66.6234 504.152ZM15.2973 433.429C21.2053 437.459 25.3417 444.272 25.4719 454.214C14.709 454.244 16.5594 455.338 16.5618 451.146C14.9595 443.627 10.616 438.759 5.45201 436.622C8.37885 431.861 9.03862 425.371 5.92242 418.342C3.45987 414.949 2.60397 416.921 11.3356 410.629C17.0652 418.755 17.7158 426.698 15.2973 433.429ZM15.3437 346.043C17.755 352.776 17.0958 360.72 11.3582 368.839C2.63268 362.538 3.48674 364.511 5.95296 361.12C9.07649 354.096 8.42342 347.604 5.50209 342.84C10.6685 340.708 15.0175 335.846 16.6272 328.327C16.6297 324.135 14.778 325.227 25.5409 325.269C25.3992 335.21 21.256 342.02 15.3437 346.043ZM66.7444 275.374C64.7375 282.239 59.5357 288.278 50.1211 291.474C46.7661 281.247 46.2975 283.346 50.2854 282.053C56.9418 278.205 60.2291 272.57 60.6653 266.998C66.098 268.31 72.4746 266.933 78.1963 261.796C80.6619 258.406 78.5219 258.201 87.2047 264.561C81.2472 272.521 73.8931 275.595 66.7444 275.374ZM149.884 216.103C148.935 214.853 147.805 213.649 146.487 212.516C131.298 204.661 135.617 216.173 134.348 200.507C140.759 200.251 145.91 201.632 149.891 204.096C153.875 201.636 159.027 200.26 165.438 200.523C164.153 216.188 168.484 204.68 153.286 212.519C151.966 213.652 150.836 214.854 149.884 216.103ZM251.968 249.331C251.935 247.763 251.728 246.124 251.328 244.433C243.657 229.15 240.384 241.002 248.565 227.583C253.903 231.144 257.258 235.289 259.031 239.622C263.699 239.973 268.675 241.889 273.707 245.87C263.46 257.787 273.729 251.023 256.825 248.432C255.093 248.572 253.471 248.88 251.968 249.331ZM315.024 336.218C315.919 334.928 316.714 333.482 317.385 331.878C320.162 315.004 310.548 322.669 325.054 316.622C327.279 322.64 327.558 327.965 326.445 332.512C330.015 335.541 332.915 340.016 334.646 346.195C319.352 349.813 331.634 350.376 319.482 338.344C317.998 337.439 316.505 336.736 315.024 336.218ZM314.966 443.572C316.449 443.056 317.943 442.353 319.427 441.45C331.592 429.431 319.309 429.981 334.6 433.616C332.862 439.792 329.957 444.265 326.384 447.289C327.492 451.837 327.208 457.163 324.977 463.179C310.477 457.116 320.083 464.792 317.324 447.915C316.655 446.31 315.861 444.863 314.966 443.572ZM251.819 530.391C253.322 530.844 254.943 531.153 256.675 531.295C273.582 528.722 263.321 521.947 273.555 533.875C268.518 537.851 263.54 539.761 258.871 540.108C257.094 544.439 253.734 548.58 248.393 552.136C240.225 538.708 243.486 550.563 251.173 535.288C251.575 533.598 251.784 531.96 251.819 530.391ZM149.701 563.511C150.65 564.761 151.779 565.965 153.098 567.098C168.287 574.954 163.968 563.441 165.237 579.107C158.826 579.363 153.675 577.982 149.694 575.518C145.71 577.978 140.558 579.354 134.147 579.091C135.432 563.426 131.101 574.934 146.299 567.095C147.619 565.962 148.75 564.76 149.701 563.511ZM47.617 530.283C47.6506 531.852 47.8571 533.49 48.2567 535.181C55.9283 550.465 59.201 538.612 51.0198 552.032C45.6823 548.471 42.3267 544.326 40.5544 539.993C35.8859 539.641 30.9095 537.725 25.8775 533.745C36.1248 521.828 25.8561 528.592 42.7598 531.182C44.4923 531.043 46.1136 530.734 47.617 530.283ZM-15.4384 443.397C-16.334 444.687 -17.1294 446.133 -17.8001 447.737C-20.5773 464.611 -10.9629 456.946 -25.47 462.993C-27.6949 456.975 -27.9729 451.65 -26.8598 447.102C-30.4299 444.073 -33.3305 439.599 -35.0612 433.42C-19.7666 429.802 -32.05 429.239 -19.8973 441.271C-18.4129 442.175 -16.9204 442.878 -15.4384 443.397ZM-15.3816 336.042C-16.8636 336.559 -18.3579 337.262 -19.843 338.164C-32.0072 350.183 -19.7239 349.634 -35.0147 345.999C-33.2773 339.822 -30.3725 335.35 -26.7993 332.326C-27.9075 327.777 -27.6234 322.451 -25.3924 316.436C-10.892 322.499 -20.4979 314.823 -17.7391 331.7C-17.0695 333.305 -16.2753 334.752 -15.3816 336.042ZM47.7661 249.223C46.2633 248.77 44.642 248.46 42.9094 248.319C26.0034 250.892 36.264 257.667 26.0302 245.739C31.0665 241.763 36.0453 239.853 40.7139 239.506C42.491 235.175 45.8509 231.034 51.192 227.478C59.3592 240.907 56.0994 229.051 48.4118 244.326C48.0099 246.017 47.8015 247.654 47.7661 249.223ZM37.4254 234.974C37.5506 235.783 37.66 236.619 37.7516 237.481C36.2616 237.676 31.4153 239.106 29.8386 240.257C20.9982 245.999 28.3449 245.001 14.1299 234.652C7.0477 221.752 14.1421 213.16 22.4082 214.282C23.9037 206.075 34.2713 201.995 44.3401 212.727C49.7735 229.45 52.9991 222.775 44.7996 229.4C43.2155 230.542 40.354 234.706 39.7065 236.062C38.916 235.707 38.1554 235.345 37.4254 234.974ZM149.894 198.497C149.52 199.225 149.118 199.965 148.685 200.717C147.364 199.999 142.604 198.307 140.651 198.312C130.125 197.761 136.654 201.273 131.238 184.544C133.091 169.945 143.88 167.164 149.908 172.931C155.942 167.17 166.728 169.963 168.566 184.564C163.132 201.287 169.665 197.782 159.138 198.322C157.186 198.316 152.423 200.002 151.102 200.718C150.669 199.966 150.267 199.226 149.894 198.497ZM262.324 235.094C261.593 235.463 260.832 235.825 260.041 236.179C259.395 234.823 256.537 230.656 254.955 229.512C246.762 222.878 249.981 229.557 255.432 212.84C265.512 202.119 275.875 206.21 277.362 214.419C285.63 213.305 292.714 221.904 285.619 234.797C271.393 245.132 278.739 246.136 269.905 240.385C268.33 239.233 263.485 237.798 261.995 237.6C262.087 236.738 262.197 235.903 262.324 235.094ZM331.771 330.785C330.962 330.655 330.134 330.501 329.286 330.322C329.56 328.844 329.698 323.794 329.091 321.938C326.362 311.756 325.04 319.051 339.275 308.731C353.733 305.982 359.712 315.383 356.09 322.899C363.433 326.857 364.11 337.978 350.792 344.238C333.209 344.237 338.56 349.368 334.794 339.523C334.197 337.663 331.12 333.655 330.031 332.619C330.613 331.977 331.193 331.366 331.771 330.785ZM331.708 449.022C331.131 448.441 330.552 447.829 329.97 447.186C331.061 446.152 334.141 442.147 334.74 440.288C338.517 430.447 333.16 435.571 350.743 435.59C364.055 441.864 363.366 452.985 356.018 456.935C359.632 464.454 353.643 473.85 339.189 471.085C324.964 460.75 326.279 468.046 329.018 457.867C329.628 456.012 329.495 450.961 329.222 449.484C330.071 449.305 330.899 449.152 331.708 449.022ZM262.16 544.64C262.034 543.831 261.925 542.995 261.833 542.133C263.323 541.937 268.17 540.507 269.746 539.356C278.587 533.615 271.241 534.612 285.455 544.961C292.537 557.862 285.443 566.453 277.177 565.331C275.681 573.538 265.314 577.619 255.245 566.887C249.811 550.164 246.586 556.839 254.785 550.214C256.369 549.072 259.23 544.908 259.878 543.552C260.669 543.907 261.43 544.27 262.16 544.64ZM149.691 581.118C150.065 580.389 150.467 579.65 150.9 578.898C152.22 579.615 156.981 581.307 158.934 581.302C169.46 581.853 162.931 578.341 168.347 595.07C166.494 609.669 155.704 612.45 149.677 606.683C143.643 612.443 132.856 609.651 131.019 595.05C136.453 578.327 129.92 581.832 140.447 581.292C142.399 581.298 147.162 579.612 148.483 578.896C148.916 579.648 149.317 580.389 149.691 581.118ZM37.261 544.521C37.9917 544.151 38.7522 543.789 39.544 543.435C40.1909 544.792 43.0481 548.959 44.6304 550.103C52.8225 556.736 49.6043 550.057 44.1532 566.775C34.0728 577.496 23.7094 573.405 22.2225 565.196C13.9545 566.309 6.87053 557.71 13.9662 544.818C28.1916 534.483 20.8461 533.478 29.6797 539.229C31.2553 540.382 36.1003 541.816 37.5897 542.014C37.4975 542.877 37.3875 543.712 37.261 544.521ZM-32.1856 448.829C-31.3774 448.959 -30.549 449.114 -29.7011 449.293C-29.9748 450.771 -30.1135 455.821 -29.5056 457.677C-26.7767 467.858 -25.4547 460.564 -39.6906 470.884C-54.1482 473.633 -60.127 464.231 -56.505 456.716C-63.848 452.757 -64.5255 441.637 -51.2073 435.377C-33.6237 435.377 -38.9758 430.246 -35.209 440.092C-34.6115 441.952 -31.5356 445.959 -30.4464 446.995C-31.028 447.637 -31.6077 448.248 -32.1856 448.829ZM-32.1233 330.593C-31.546 331.174 -30.9669 331.785 -30.3853 332.429C-31.4758 333.463 -34.5559 337.468 -35.1552 339.326C-38.9324 349.167 -33.5748 344.043 -51.1584 344.024C-64.4706 337.75 -63.7808 326.63 -56.4341 322.679C-60.0476 315.16 -54.059 305.765 -39.605 308.53C-25.3802 318.865 -26.6942 311.569 -29.4341 321.748C-30.0438 323.602 -29.9112 328.653 -29.6388 330.131C-30.4861 330.31 -31.3145 330.463 -32.1233 330.593ZM54.6693 305.969C46.2828 287.042 55.7823 297.767 66.3955 283.088C87.6971 303.686 63.911 325.112 54.6693 305.969ZM23.5573 377.893C5.64748 367.51 19.6365 370.603 19.595 352.49C48.9354 356.633 42.2863 387.948 23.5573 377.893ZM40.6625 454.367C20.0703 456.494 33.2059 450.774 22.5255 436.144C48.6983 422.251 61.7252 451.493 40.6625 454.367ZM99.452 506.182C84.0426 520.007 91.3069 507.659 74.0678 502.101C87.0752 475.476 114.803 491.478 99.452 506.182ZM177.47 513.546C173.13 533.788 171.748 519.528 154.534 525.164C149.408 495.979 181.245 492.627 177.47 513.546ZM244.916 473.646C253.302 492.573 243.803 481.848 233.189 496.526C211.888 475.928 235.674 454.502 244.916 473.646ZM276.028 401.722C293.937 412.105 279.948 409.012 279.989 427.125C250.65 422.982 257.299 391.667 276.028 401.722ZM258.922 325.247C279.515 323.12 266.379 328.84 277.059 343.47C250.887 357.364 237.86 328.121 258.922 325.247ZM200.133 273.433C215.542 259.608 208.278 271.956 225.517 277.514C212.51 304.138 184.782 288.137 200.133 273.433ZM122.115 266.069C126.455 245.827 127.837 260.087 145.051 254.45C150.176 283.635 118.34 286.988 122.115 266.069ZM74.187 277.434C91.4321 271.895 84.1813 259.538 99.5754 273.379C114.91 288.1 87.1662 304.071 74.187 277.434ZM22.5744 343.335C33.27 328.717 20.1411 322.982 40.7309 325.132C61.7906 328.028 48.7325 357.256 22.5744 343.335ZM19.5559 426.987C19.6164 408.874 5.62367 411.952 23.5451 401.588C42.2839 391.552 48.8999 422.875 19.5559 426.987ZM66.2825 496.438C55.6846 481.749 46.1735 492.463 54.5807 473.545C63.8426 454.411 87.6054 475.862 66.2825 496.438ZM144.907 525.159C127.7 519.505 126.303 533.763 121.984 513.516C118.23 492.593 150.064 495.98 144.907 525.159ZM225.398 502.181C208.153 507.72 215.404 520.077 200.01 506.236C184.675 491.514 212.419 475.543 225.398 502.181ZM277.01 436.28C266.315 450.898 279.444 456.632 258.853 454.483C237.794 451.587 250.853 422.358 277.01 436.28ZM280.029 352.628C279.969 370.74 293.961 367.662 276.04 378.026C257.301 388.062 250.684 356.74 280.029 352.628ZM233.302 283.177C243.9 297.866 253.411 287.152 245.004 306.07C235.743 325.204 211.979 303.752 233.302 283.177ZM154.677 254.456C171.885 260.11 173.282 245.852 177.601 266.098C181.354 287.022 149.521 283.635 154.677 254.456ZM71.565 282.017C70.6425 281.241 69.6987 280.381 68.7335 279.433C68.8709 279.17 69.0022 278.913 69.1281 278.658C69.4085 278.617 69.6944 278.573 69.987 278.523C70.5894 279.735 71.1135 280.899 71.565 282.017ZM149.863 256.622C149.573 255.453 149.314 254.202 149.091 252.867C149.357 252.736 149.614 252.604 149.865 252.472C150.117 252.605 150.374 252.736 150.64 252.868C150.415 254.203 150.154 255.453 149.863 256.622ZM228.134 282.1C228.587 280.982 229.112 279.819 229.716 278.608C230.008 278.657 230.294 278.702 230.575 278.743C230.7 278.997 230.831 279.256 230.969 279.519C230.002 280.467 229.057 281.325 228.134 282.1ZM276.481 348.718C277.504 348.08 278.613 347.448 279.813 346.823C280.02 347.035 280.225 347.239 280.428 347.437C280.38 347.717 280.334 348.003 280.29 348.296C278.953 348.495 277.683 348.634 276.481 348.718ZM276.437 431.031C277.639 431.116 278.908 431.256 280.246 431.456C280.29 431.749 280.335 432.036 280.383 432.315C280.18 432.513 279.975 432.717 279.767 432.929C278.568 432.303 277.46 431.67 276.437 431.031ZM228.02 497.598C228.942 498.374 229.886 499.234 230.851 500.182C230.714 500.444 230.583 500.702 230.457 500.956C230.176 500.997 229.89 501.042 229.598 501.091C228.996 499.88 228.471 498.716 228.02 497.598ZM149.722 522.993C150.012 524.162 150.271 525.412 150.494 526.747C150.229 526.879 149.971 527.011 149.719 527.143C149.468 527.01 149.211 526.879 148.945 526.747C149.17 525.412 149.43 524.162 149.722 522.993ZM71.4507 497.514C70.998 498.632 70.4727 499.796 69.8691 501.006C69.5765 500.956 69.2906 500.912 69.0102 500.871C68.8849 500.617 68.7536 500.358 68.6168 500.095C69.5826 499.148 70.5276 498.29 71.4507 497.514ZM23.104 430.896C22.0814 431.534 20.972 432.166 19.7721 432.791C19.565 432.579 19.3598 432.374 19.157 432.176C19.2052 431.897 19.2504 431.611 19.2944 431.318C20.6323 431.119 21.9018 430.981 23.104 430.896ZM23.148 348.583C21.9457 348.498 20.6769 348.358 19.3384 348.158C19.295 347.865 19.2498 347.578 19.2022 347.299C19.405 347.101 19.6103 346.897 19.818 346.685C21.0172 347.311 22.1253 347.945 23.148 348.583ZM-44.1874 195.266C-39.2134 201.954 -27.6143 225.539 -33.0696 227.677C-50.9159 234.41 -35.8437 237.066 -48.7924 212.483C-54.4677 201.614 -69.2393 188.384 -68.4127 197.214C-67.3937 210.26 -71.29 204.517 -79.0564 202.898C-111.236 196.223 -71.937 158.464 -44.1874 195.266ZM-121.489 346.439C-113.533 348.926 -90.2872 361.189 -93.4438 366.125C-103.924 382.063 -90.1693 375.351 -115.095 363.074C-126.074 357.617 -145.802 355.595 -139.943 362.254C-131.45 372.209 -137.978 369.853 -145.213 373.108C-175.17 386.624 -165.57 332.976 -121.489 346.439ZM-95.1702 514.176C-87.2718 511.513 -61.2572 507.77 -60.9096 513.618C-60.0208 532.672 -52.8378 519.158 -80.219 523.877C-92.3099 525.915 -109.457 535.875 -100.803 537.818C-88.0813 540.88 -94.7475 542.811 -98.6871 549.697C-114.979 578.24 -138.746 529.196 -95.1702 514.176ZM24.7162 634.409C29.5399 627.612 48.3862 609.292 52.1053 613.82C64.024 628.712 61.892 613.557 42.5136 633.469C33.9304 642.225 25.9123 660.362 34.0556 656.847C46.1478 651.846 41.8899 657.327 42.75 665.214C46.3458 697.882 -1.70959 672.174 24.7162 634.409ZM192.377 661.213C192.284 652.878 196.763 626.98 202.434 628.457C220.829 633.499 210.196 622.491 206.222 649.99C204.424 662.119 208.599 681.505 213.121 673.876C219.964 662.722 219.74 669.659 225.072 675.534C247.184 699.849 193.195 707.297 192.377 661.213ZM343.772 584.349C338.798 577.66 327.199 554.075 332.655 551.937C350.501 545.204 335.429 542.548 348.377 567.132C354.052 578.001 368.824 591.231 367.997 582.4C366.978 569.355 370.874 575.098 378.641 576.717C410.822 583.391 371.522 621.15 343.772 584.349ZM421.074 433.176C413.118 430.689 389.872 418.426 393.029 413.49C403.509 397.552 389.754 404.263 414.68 416.541C425.659 421.998 445.387 424.019 439.527 417.361C431.035 407.405 437.563 409.762 444.798 406.507C474.755 392.991 465.155 446.638 421.074 433.176ZM394.755 265.439C386.857 268.103 360.842 271.845 360.495 265.996C359.606 246.943 352.423 260.457 379.804 255.738C391.895 253.699 409.042 243.739 400.388 241.797C387.666 238.734 394.332 236.803 398.272 229.917C414.564 201.374 438.331 250.419 394.755 265.439ZM274.869 145.205C270.045 152.003 251.199 170.322 247.48 165.794C235.561 150.902 237.693 166.058 257.072 146.146C265.655 137.39 273.673 119.253 265.53 122.767C253.438 127.768 257.696 122.288 256.836 114.4C253.239 81.7331 301.294 107.441 274.869 145.205ZM107.208 118.402C107.301 126.736 102.822 152.635 97.1514 151.158C78.7559 146.115 89.3893 157.123 93.3626 129.625C95.1599 117.496 90.9862 98.1096 86.4643 105.739C79.621 116.892 79.8445 109.956 74.5126 104.081C52.401 79.766 106.389 72.3173 107.208 118.402ZM43.0414 114.287C42.1727 122.174 46.4246 127.658 34.3379 122.645C26.1982 119.122 34.1973 137.268 42.772 146.032C62.129 165.964 64.2769 150.811 52.343 165.691C48.6189 170.214 29.7922 151.874 24.9752 145.073C-1.41025 107.28 46.672 81.6238 43.0414 114.287ZM-98.5173 229.654C-94.5849 236.544 -87.9212 238.482 -100.646 241.531C-109.302 243.465 -92.1652 253.443 -80.0767 255.494C-52.7003 260.242 -59.8692 246.72 -60.7783 265.773C-61.1326 271.621 -87.1429 267.85 -95.0382 265.179C-138.598 250.113 -114.78 201.093 -98.5173 229.654ZM-145.23 406.193C-137.999 409.457 -131.468 407.107 -139.971 417.053C-145.837 423.705 -126.108 421.705 -115.122 416.259C-90.184 404.009 -103.931 397.283 -93.4682 413.231C-90.3166 418.171 -113.576 430.409 -121.534 432.888C-165.63 446.304 -175.174 392.646 -145.23 406.193ZM-79.2544 576.474C-71.4855 574.863 -67.5837 569.124 -68.6161 582.168C-69.4525 590.998 -54.6668 577.784 -48.9799 566.921C-36.005 542.352 -51.0802 544.991 -33.2413 551.744C-27.7884 553.888 -39.412 577.46 -44.3933 584.143C-72.1826 620.915 -111.442 583.114 -79.2544 576.474ZM74.2096 675.454C79.5476 669.585 79.3314 662.648 86.1631 673.808C90.677 681.443 94.8715 662.061 93.087 649.931C89.1424 622.427 78.4975 633.424 96.8991 628.401C102.571 626.93 107.022 652.833 106.921 661.168C106.053 707.251 52.0723 699.745 74.2096 675.454ZM256.544 665.327C257.412 657.441 253.16 651.956 265.247 656.969C273.387 660.492 265.388 642.348 256.813 633.582C237.455 613.65 235.307 628.804 247.242 613.924C250.966 609.4 269.793 627.74 274.61 634.542C300.995 672.334 252.912 697.991 256.544 665.327ZM398.102 549.961C394.169 543.07 387.506 541.132 400.231 538.084C408.886 536.15 391.75 526.172 379.661 524.12C352.285 519.372 359.454 532.894 360.363 513.842C360.717 507.993 386.728 511.764 394.623 514.436C438.183 529.501 414.364 578.521 398.102 549.961ZM444.815 373.421C437.584 370.157 431.054 372.507 439.556 362.561C445.423 355.909 425.694 357.909 414.707 363.355C389.769 375.605 403.517 382.331 393.054 366.383C389.902 361.443 413.162 349.205 421.12 346.726C465.215 333.311 474.759 386.968 444.815 373.421ZM378.839 203.141C371.07 204.752 367.169 210.49 368.201 197.446C369.037 188.616 354.252 201.831 348.565 212.694C335.59 237.263 350.665 234.624 332.826 227.872C327.373 225.727 338.997 202.155 343.978 195.472C371.768 158.699 411.026 196.5 378.839 203.141ZM225.375 104.161C220.037 110.03 220.254 116.967 213.422 105.806C208.908 98.1719 204.713 117.553 206.498 129.684C210.442 157.187 221.087 146.191 202.686 151.214C197.014 152.684 192.563 126.782 192.664 118.447C193.532 72.3637 247.513 79.8687 225.375 104.161ZM-74.1784 209.901C-78.2103 211.044 -82.7041 210.096 -86.543 206.223C-80.6991 208.879 -79.7767 207.304 -74.1784 209.901ZM-137.149 375.907C-139.74 379.201 -143.932 381.076 -149.315 380.199C-143.026 378.913 -143.205 377.096 -137.149 375.907ZM-90.5188 547.222C-90.6782 551.409 -92.9685 555.391 -97.838 557.846C-93.5067 553.108 -94.7193 551.744 -90.5188 547.222ZM47.903 658.41C50.2354 661.892 50.7222 666.458 48.2255 671.306C48.9451 664.928 47.1625 664.537 47.903 658.41ZM225.243 667.001C229.176 668.447 232.255 671.854 233.084 677.245C229.917 671.661 228.245 672.392 225.243 667.001ZM373.763 569.713C377.795 568.571 382.289 569.518 386.128 573.391C380.284 570.736 379.362 572.311 373.763 569.713ZM436.734 403.707C439.325 400.413 443.517 398.539 448.9 399.415C442.611 400.702 442.79 402.519 436.734 403.707ZM390.104 232.392C390.263 228.205 392.553 224.224 397.423 221.769C393.092 226.506 394.304 227.871 390.104 232.392ZM251.682 121.205C249.35 117.723 248.863 113.157 251.359 108.309C250.64 114.687 252.423 115.077 251.682 121.205ZM74.3422 112.614C70.4092 111.168 67.3308 107.761 66.5012 102.37C69.6675 107.953 71.3402 107.222 74.3422 112.614ZM48.5242 108.201C51.0155 113.052 50.5231 117.618 48.1876 121.097C47.4533 114.969 49.2365 114.58 48.5242 108.201ZM-97.6596 221.507C-92.7926 223.967 -90.5072 227.95 -90.3514 232.138C-94.5471 227.612 -93.3332 226.249 -97.6596 221.507ZM-149.325 399.098C-143.942 398.227 -139.751 400.106 -137.164 403.403C-143.219 402.208 -143.038 400.392 -149.325 399.098ZM-86.7379 573.14C-82.8941 569.272 -78.3997 568.329 -74.369 569.475C-79.9697 572.067 -80.891 570.491 -86.7379 573.14ZM66.1964 677.156C67.0321 671.767 70.1135 668.362 74.0483 666.92C71.0402 672.309 69.3688 671.576 66.1964 677.156ZM251.061 671.414C248.569 666.563 249.061 661.997 251.397 658.518C252.132 664.646 250.348 665.035 251.061 671.414ZM397.245 558.108C392.377 555.648 390.092 551.665 389.936 547.477C394.132 552.003 392.918 553.366 397.245 558.108ZM448.91 380.516C443.526 381.387 439.336 379.508 436.749 376.211C442.803 377.407 442.623 379.223 448.91 380.516ZM386.323 206.474C382.479 210.343 377.985 211.286 373.953 210.139C379.555 207.548 380.476 209.123 386.323 206.474ZM233.389 102.459C232.553 107.847 229.471 111.252 225.537 112.694C228.545 107.305 230.216 108.039 233.389 102.459ZM-107.947 202.34C-106.943 200.137 -104.957 198.614 -101.233 199.003C-94.7322 199.655 -95.8196 202.576 -93.1273 206.631C-83.5594 221.587 -69.7322 212.516 -69.3071 214.664C-68.2875 218.281 -71.3346 222.58 -75.0453 226.272C-77.4137 230.939 -80.5654 235.162 -84.3212 235.306C-86.4966 235.563 -82.1244 219.614 -99.3005 215.119C-103.987 213.806 -106.432 215.74 -109.054 209.755C-110.57 206.333 -109.733 203.973 -107.947 202.34ZM51.4675 86.6478C53.5745 85.4559 56.0768 85.3912 58.8607 87.8941C63.7375 92.2425 61.1406 93.9664 60.9353 98.8292C59.8846 116.553 76.4033 117.341 75.4839 119.329C74.1833 122.855 69.191 124.541 64.0191 125.347C59.3592 127.731 54.3278 129.295 51.2043 127.204C49.2934 126.133 62.2054 115.8 50.9519 102.066C47.9316 98.2501 44.8173 98.3784 46.2138 91.9957C46.9982 88.3351 49.0618 86.9191 51.4675 86.6478ZM248.439 86.7517C250.844 87.026 252.906 88.4445 253.687 92.1056C255.076 98.4902 251.962 98.3582 248.938 102.171C237.67 115.892 250.57 126.24 248.659 127.308C245.533 129.396 240.503 127.826 235.846 125.438C230.675 124.627 225.685 122.935 224.388 119.407C223.471 117.418 239.991 116.648 238.958 98.9227C238.758 94.0605 236.163 92.3335 241.045 87.99C243.831 85.4908 246.334 85.558 248.439 86.7517ZM407.73 202.613C409.514 204.249 410.35 206.609 408.829 210.03C406.201 216.011 403.759 214.074 399.07 215.382C381.889 219.86 386.245 235.813 384.07 235.554C380.315 235.406 377.167 231.18 374.804 226.51C371.097 222.815 368.054 218.513 369.078 214.896C369.505 212.748 383.323 221.835 392.906 206.888C395.602 202.836 394.518 199.914 401.021 199.269C404.744 198.884 406.729 200.409 407.73 202.613ZM468.498 389.976C468.981 392.348 468.269 394.749 465.028 396.622C459.386 399.916 458.548 396.914 453.987 395.216C437.455 388.74 431.602 404.207 429.994 402.718C427.043 400.391 426.981 395.122 427.814 389.955C426.987 384.787 427.054 379.518 430.008 377.193C431.616 375.707 437.454 391.18 453.992 384.721C458.556 383.028 459.396 380.026 465.034 383.327C468.275 385.203 468.983 387.605 468.498 389.976ZM407.532 577.274C406.528 579.477 404.542 581 400.818 580.611C394.317 579.96 395.404 577.039 392.713 572.984C383.145 558.027 369.318 567.099 368.892 564.951C367.872 561.333 370.919 557.035 374.631 553.344C376.999 548.676 380.15 544.453 383.907 544.309C386.082 544.052 381.71 560.001 398.886 564.497C403.572 565.81 406.017 563.875 408.639 569.859C410.156 573.281 409.318 575.641 407.532 577.274ZM248.117 692.967C246.01 694.159 243.507 694.223 240.724 691.72C235.847 687.372 238.445 685.648 238.65 680.786C239.7 663.061 223.182 662.274 224.1 660.286C225.402 656.759 230.394 655.073 235.566 654.268C240.226 651.884 245.257 650.319 248.381 652.411C250.291 653.481 237.38 663.815 248.633 677.548C251.653 681.365 254.768 681.236 253.371 687.619C252.587 691.279 250.523 692.696 248.117 692.967ZM51.1462 692.862C48.7411 692.588 46.6787 691.17 45.8979 687.508C44.5088 681.124 47.6226 681.256 50.6471 677.443C61.9152 663.722 49.0148 653.374 50.9263 652.306C54.0517 650.218 59.0818 651.788 63.7387 654.177C68.91 654.987 73.8998 656.679 75.1974 660.207C76.1137 662.196 59.595 662.966 60.6262 680.691C60.8265 685.554 63.4217 687.281 58.5399 691.624C55.7542 694.124 53.252 694.057 51.1462 692.862ZM-108.145 577.001C-109.93 575.366 -110.765 573.006 -109.244 569.585C-106.615 563.604 -104.174 565.541 -99.485 564.233C-82.304 559.755 -86.6591 543.802 -84.4843 544.061C-80.7291 544.209 -77.5817 548.435 -75.2182 553.105C-71.5112 556.8 -68.4683 561.102 -69.4921 564.719C-69.9204 566.866 -83.7372 557.78 -93.321 572.727C-96.0175 576.778 -94.9325 579.701 -101.435 580.345C-105.159 580.731 -107.144 579.205 -108.145 577.001ZM-168.913 389.638C-169.396 387.266 -168.684 384.866 -165.443 382.992C-159.801 379.698 -158.964 382.7 -154.403 384.399C-137.87 390.875 -132.017 375.408 -130.409 376.896C-127.458 379.224 -127.396 384.492 -128.229 389.66C-127.402 394.828 -127.469 400.097 -130.423 402.421C-132.031 403.908 -137.869 388.434 -154.407 394.893C-158.971 396.587 -159.811 399.588 -165.45 396.288C-168.69 394.411 -169.398 392.01 -168.913 389.638ZM65.2764 129.225C73.4142 128.388 80.7108 125.32 80.8434 117.415C88.4723 114.653 87.8303 107.427 89.1657 118.211C90.385 124.349 89.2536 137.605 83.4256 149.566C79.3796 149.731 75.7625 150.527 72.598 151.797C69.2906 152.626 65.8946 154.105 62.5212 156.346C50.7827 150.082 42.0859 140.013 39.4706 134.328C34.2224 124.813 37.944 131.041 45.7416 128.8C50.4895 135.123 58.1972 133.323 65.2764 129.225ZM234.585 129.314C241.659 133.42 249.366 135.228 254.12 128.91C261.916 131.159 265.643 124.936 260.385 134.445C257.764 140.127 249.056 150.187 237.312 156.438C233.941 154.193 230.547 152.711 227.24 151.879C224.077 150.605 220.461 149.806 216.415 149.635C210.599 137.668 209.482 124.411 210.708 118.274C212.055 107.492 211.405 114.717 219.03 117.487C219.155 125.394 226.448 128.469 234.585 129.314ZM371.505 228.904C374.815 236.384 379.987 242.376 387.546 240.059C392.531 246.46 399.205 243.617 389.362 248.22C383.901 251.276 370.944 254.296 357.767 252.45C356.36 248.653 354.486 245.459 352.299 242.841C350.489 239.952 348.033 237.179 344.86 234.664C347.19 221.564 354.078 210.182 358.677 205.937C366.105 198.006 361.332 203.469 365.872 210.193C361.326 216.662 365.419 223.437 371.505 228.904ZM423.739 389.952C422.02 397.95 422.682 405.837 430.16 408.406C430.429 416.515 437.5 418.138 426.832 416.075C420.617 415.338 408.359 410.165 398.785 400.927C399.878 397.027 400.239 393.342 400.009 389.939C400.243 386.537 399.886 382.851 398.797 378.95C408.382 369.722 420.645 364.562 426.86 363.832C437.532 361.781 430.459 363.395 430.18 371.504C422.698 374.067 422.028 381.953 423.739 389.952ZM371.334 550.946C365.242 556.406 361.142 563.176 365.682 569.65C361.134 576.368 365.9 581.837 358.481 573.898C353.887 569.648 347.01 558.259 344.694 545.157C347.87 542.645 350.329 539.875 352.143 536.988C354.331 534.373 356.209 531.181 357.621 527.385C370.799 525.553 383.753 528.587 389.211 531.649C399.049 536.262 392.379 533.411 387.387 539.808C379.831 537.483 374.652 543.469 371.334 550.946ZM234.308 650.39C226.171 651.226 218.874 654.294 218.742 662.199C211.113 664.962 211.755 672.188 210.419 661.404C209.2 655.266 210.331 642.01 216.159 630.049C220.205 629.884 223.822 629.088 226.987 627.818C230.294 626.988 233.69 625.51 237.064 623.269C248.802 629.533 257.498 639.601 260.114 645.287C265.362 654.801 261.641 648.574 253.843 650.815C249.095 644.492 241.388 646.292 234.308 650.39ZM65.0002 650.301C57.9248 646.194 50.2188 644.387 45.4654 650.705C37.6697 648.455 33.942 654.679 39.2 645.17C41.8214 639.487 50.5286 629.428 62.2738 623.177C65.6447 625.421 69.0389 626.903 72.3457 627.736C75.509 629.01 79.1249 629.809 83.1709 629.979C88.9861 641.946 90.1034 655.203 88.8773 661.34C87.5303 672.123 88.1803 664.898 80.5544 662.127C80.4304 654.221 73.1368 651.146 65.0002 650.301ZM-71.9199 550.711C-75.2297 543.231 -80.4016 537.238 -87.9615 539.555C-92.9465 533.154 -99.6206 535.998 -89.7771 531.395C-84.3157 528.339 -71.3591 525.318 -58.1825 527.165C-56.775 530.962 -54.9002 534.156 -52.7144 536.774C-50.9036 539.663 -48.4484 542.436 -45.2748 544.952C-47.6048 558.051 -54.4927 569.433 -59.0922 573.678C-66.5201 581.609 -61.7471 576.145 -66.288 569.422C-61.741 562.952 -65.8341 556.177 -71.9199 550.711ZM-124.154 389.662C-122.435 381.664 -123.097 373.777 -130.575 371.208C-130.845 363.099 -137.916 361.476 -127.247 363.539C-121.032 364.276 -108.774 369.449 -99.1997 378.687C-100.293 382.587 -100.654 386.272 -100.423 389.675C-100.657 393.077 -100.3 396.763 -99.2113 400.664C-108.796 409.892 -121.059 415.052 -127.274 415.783C-137.946 417.833 -130.872 416.219 -130.594 408.11C-123.113 405.548 -122.443 397.661 -124.154 389.662ZM-71.7494 228.668C-65.6575 223.208 -61.5572 216.438 -66.0968 209.964C-61.5486 203.245 -66.3161 197.777 -58.8961 205.716C-54.3021 209.966 -47.4252 221.355 -45.1093 234.457C-48.2853 236.969 -50.7442 239.739 -52.558 242.626C-54.7462 245.241 -56.6241 248.433 -58.0365 252.229C-71.2143 254.061 -84.1684 251.027 -89.6262 247.965C-99.4642 243.352 -92.7938 246.203 -87.8021 239.806C-80.2459 242.131 -75.0672 236.146 -71.7494 228.668ZM27.8941 301.144C25.1475 292.046 20.6928 281.103 13.0253 267.646C13.9606 264.181 14.5294 260.592 14.4695 256.938C14.4536 250.964 30.3658 275.995 37.5109 308.139C4.72807 311.241 -23.9867 303.813 -18.2974 301.988C-14.8031 300.919 -11.564 299.273 -8.55536 297.316C6.61028 300.466 18.3921 301.333 27.8941 301.144ZM103.29 246.427C106.415 237.452 109.244 225.982 110.95 210.586C113.743 208.333 116.313 205.764 118.412 202.772C121.911 197.929 120.071 227.533 106.958 257.738C78.613 240.979 59.7483 218.091 65.4242 219.959C68.8795 221.148 72.4679 221.72 76.0515 221.905C86.4691 233.368 95.491 240.995 103.29 246.427ZM196.447 246.477C204.252 241.053 213.282 233.435 223.711 221.983C227.295 221.802 230.884 221.234 234.341 220.049C240.019 218.186 221.13 241.056 192.767 257.784C179.685 227.565 177.877 197.96 181.371 202.806C183.467 205.8 186.034 208.371 188.825 210.628C190.515 226.024 193.331 237.498 196.447 246.477ZM271.784 301.273C281.286 301.473 293.069 300.617 308.238 297.484C311.244 299.444 314.481 301.094 317.975 302.167C323.663 303.997 294.939 311.396 262.16 308.258C269.339 276.121 285.279 251.107 285.256 257.082C285.192 260.736 285.757 264.325 286.689 267.791C279.007 281.241 274.541 292.178 271.784 301.273ZM300.525 389.887C308.096 395.633 318.131 401.867 332.245 408.248C333.525 411.601 335.173 414.838 337.37 417.759C340.895 422.584 313.308 411.686 288.634 389.881C313.332 368.101 340.929 357.233 337.399 362.054C335.2 364.972 333.548 368.208 332.264 371.56C318.143 377.926 308.101 384.149 300.525 389.887ZM271.691 478.47C274.437 487.568 278.892 498.511 286.56 511.969C285.624 515.434 285.056 519.022 285.115 522.676C285.131 528.651 269.219 503.62 262.074 471.476C294.856 468.373 323.572 475.802 317.882 477.627C314.388 478.696 311.149 480.342 308.14 482.299C292.975 479.148 281.193 478.281 271.691 478.47ZM196.296 533.187C193.17 542.162 190.342 553.632 188.635 569.028C185.842 571.281 183.273 573.85 181.173 576.841C177.674 581.684 179.514 552.081 192.627 521.875C220.973 538.634 239.837 561.523 234.161 559.655C230.705 558.465 227.118 557.894 223.533 557.708C213.116 546.247 204.094 538.619 196.296 533.187ZM103.138 533.137C95.3333 538.562 86.303 546.179 75.8737 557.631C72.2895 557.812 68.7004 558.38 65.2433 559.566C59.5663 561.427 78.4554 538.558 106.818 521.83C119.9 552.05 121.708 581.654 118.214 576.808C116.117 573.814 113.55 571.243 110.76 568.986C109.069 553.59 106.253 542.116 103.138 533.137ZM27.8 478.341C18.2986 478.142 6.51558 478.997 -8.65372 482.13C-11.66 480.17 -14.8971 478.52 -18.3909 477.448C-24.0784 475.617 4.64439 468.218 37.4242 471.356C30.2448 503.493 14.3058 528.507 14.3284 522.532C14.3919 518.878 13.8269 515.289 12.8952 511.823C20.5773 498.373 25.0442 487.436 27.8 478.341ZM-0.939865 389.727C-8.51015 383.981 -18.5454 377.747 -32.6591 371.366C-33.9395 368.013 -35.5884 364.776 -37.7846 361.855C-41.3095 357.03 -13.723 367.928 10.9514 389.733C-13.7462 411.512 -41.3443 422.381 -37.8139 417.56C-35.6146 414.641 -33.9627 411.406 -32.6786 408.054C-18.5582 401.688 -8.51627 395.466 -0.939865 389.727ZM5.02803 284.513C5.34998 284.072 5.67316 283.61 6.00244 283.122C6.38547 283.902 6.87418 284.97 7.43987 286.268C6.03052 286.129 4.86493 285.992 4.00478 285.869C4.36887 285.404 4.70792 284.955 5.02803 284.513ZM94.566 219.532C95.0859 219.364 95.618 219.181 96.1721 218.98C96.023 219.836 95.7921 220.986 95.4861 222.369C94.4273 221.429 93.5648 220.633 92.9423 220.028C93.5092 219.865 94.0468 219.702 94.566 219.532ZM205.199 219.59C205.718 219.76 206.257 219.925 206.822 220.088C206.199 220.693 205.335 221.488 204.275 222.427C203.972 221.044 203.741 219.893 203.593 219.037C204.148 219.238 204.679 219.422 205.199 219.59ZM294.668 284.666C294.988 285.109 295.327 285.559 295.689 286.023C294.829 286.146 293.663 286.281 292.253 286.418C292.821 285.121 293.311 284.054 293.694 283.274C294.024 283.763 294.347 284.225 294.668 284.666ZM328.8 389.902C328.798 390.448 328.808 391.011 328.828 391.6C328.06 391.194 327.037 390.618 325.816 389.901C327.038 389.184 328.062 388.61 328.83 388.205C328.81 388.793 328.799 389.356 328.8 389.902ZM294.557 495.102C294.235 495.543 293.912 496.004 293.582 496.492C293.199 495.713 292.711 494.645 292.145 493.347C293.554 493.486 294.72 493.622 295.58 493.746C295.216 494.211 294.877 494.66 294.557 495.102ZM205.019 560.083C204.499 560.25 203.967 560.434 203.413 560.635C203.561 559.779 203.793 558.628 204.098 557.245C205.158 558.185 206.02 558.982 206.643 559.587C206.076 559.749 205.538 559.913 205.019 560.083ZM94.3858 560.024C93.8672 559.854 93.3283 559.69 92.7621 559.526C93.3852 558.922 94.249 558.126 95.3089 557.187C95.6125 558.57 95.8428 559.721 95.9913 560.578C95.4372 560.376 94.9057 560.192 94.3858 560.024ZM4.91684 494.949C4.59673 494.506 4.25832 494.056 3.89604 493.592C4.75558 493.469 5.92178 493.333 7.33113 493.197C6.76422 494.494 6.27367 495.561 5.89001 496.34C5.56075 495.851 5.23817 495.39 4.91684 494.949ZM-29.2148 389.712C-29.2136 389.166 -29.2234 388.603 -29.2429 388.015C-28.475 388.42 -27.4518 388.996 -26.2312 389.714C-27.453 390.431 -28.4769 391.005 -29.2448 391.41C-29.2246 390.822 -29.2142 390.258 -29.2148 389.712ZM11.9544 289.551C10.6398 286.502 9.21701 283.455 7.68671 280.412C9.11255 277.947 10.3349 275.372 11.379 272.749C12.2238 270.582 18.6175 281.794 23.9055 298.244C6.62675 298.279 -6.00912 295.65 -4.2088 294.179C-2.034 292.377 0.0394135 290.421 1.94481 288.306C5.3121 288.823 8.64946 289.238 11.9544 289.551ZM97.2088 227.679C97.937 224.44 98.5766 221.138 99.1276 217.777C101.73 216.621 104.232 215.256 106.619 213.748C108.576 212.492 107.159 225.32 101.768 241.737C87.7679 231.609 79.0913 222.055 81.4127 221.923C84.2308 221.744 87.058 221.38 89.8431 220.788C92.2623 223.186 94.7188 225.483 97.2088 227.679ZM202.548 227.734C205.041 225.542 207.499 223.247 209.921 220.852C212.706 221.446 215.532 221.813 218.351 221.995C220.671 222.129 211.985 231.675 197.974 241.787C192.6 225.365 191.197 212.535 193.152 213.794C195.538 215.304 198.039 216.672 200.639 217.831C201.187 221.193 201.824 224.495 202.548 227.734ZM287.737 289.697C291.042 289.388 294.379 288.977 297.747 288.462C299.651 290.58 301.721 292.538 303.894 294.342C305.694 295.815 293.055 298.431 275.776 298.378C281.082 281.933 287.488 270.729 288.329 272.895C289.371 275.52 290.591 278.097 292.014 280.563C290.481 283.604 289.055 286.65 287.737 289.697ZM320.236 389.897C323.091 391.591 326.032 393.219 329.059 394.782C329.354 397.614 329.879 400.416 330.577 403.153C331.167 405.402 319.404 400.089 305.457 389.89C319.414 379.705 331.183 374.405 330.591 376.653C329.891 379.389 329.363 382.19 329.065 385.022C326.036 386.582 323.093 388.208 320.236 389.897ZM287.63 490.064C288.945 493.112 290.368 496.159 291.898 499.203C290.472 501.667 289.25 504.243 288.206 506.867C287.361 509.033 280.967 497.821 275.679 481.371C292.958 481.336 305.594 483.965 303.793 485.436C301.619 487.238 299.545 489.194 297.639 491.31C294.273 490.791 290.935 490.376 287.63 490.064ZM202.377 551.936C201.649 555.175 201.009 558.476 200.458 561.838C197.855 562.994 195.353 564.359 192.966 565.867C191.009 567.123 192.427 554.295 197.818 537.878C211.818 548.005 220.494 557.56 218.173 557.691C215.355 557.871 212.527 558.235 209.742 558.826C207.323 556.429 204.867 554.132 202.377 551.936ZM97.0365 551.88C94.544 554.073 92.0858 556.367 89.6636 558.763C86.8791 558.168 84.0524 557.802 81.2343 557.619C78.9135 557.485 87.5999 547.94 101.611 537.827C106.984 554.249 108.388 567.08 106.433 565.821C104.047 564.31 101.546 562.942 98.945 561.784C98.3976 558.422 97.761 555.12 97.0365 551.88ZM11.8481 489.918C8.54254 490.226 5.2052 490.638 1.83791 491.153C-0.0656586 489.035 -2.13722 487.077 -4.30959 485.273C-6.10869 483.8 6.52963 481.184 23.8084 481.238C18.5027 497.682 12.0968 508.886 11.2549 506.719C10.2133 504.095 8.99339 501.518 7.56999 499.053C9.10397 496.01 10.5298 492.965 11.8481 489.918ZM-20.6506 389.717C-23.506 388.023 -26.448 386.395 -29.4744 384.832C-29.7695 382 -30.2943 379.198 -30.9919 376.461C-31.5821 374.213 -19.8192 379.525 -5.87166 389.725C-19.8295 399.91 -31.5979 405.209 -31.0054 402.961C-30.3053 400.225 -29.7775 397.424 -29.4793 394.592C-26.4511 393.033 -23.5078 391.407 -20.6506 389.717ZM41.3156 310.907C36.2616 286.094 23.9892 264.459 10.2366 241.145C-1.69861 220.182 44.0481 262.776 51.7571 318.501C-3.63333 328.331 -58.2467 297.928 -34.6268 302.826C-8.21082 308.728 16.1532 313.741 41.3156 310.907ZM108.41 262.214C118.905 239.17 121.693 214.453 124.271 187.508C126.937 163.533 138.911 224.881 112.393 274.495C61.8028 249.89 35.4906 193.193 51.7205 211.038C69.6223 231.341 86.3867 249.717 108.41 262.214ZM191.31 262.258C213.347 249.784 230.131 231.426 248.054 211.142C264.303 193.314 237.93 249.983 187.314 274.535C160.849 224.892 172.887 163.557 175.528 187.534C178.078 214.483 180.839 239.203 191.31 262.258ZM258.353 311.022C283.513 313.882 307.881 308.896 334.305 303.021C357.929 298.149 303.284 328.493 247.904 318.605C255.671 262.888 301.462 220.342 289.505 241.293C275.728 264.592 263.433 286.215 258.353 311.022ZM283.929 389.879C302.602 406.981 325.247 417.271 350.077 428.049C372.055 437.993 310.009 430.423 271.018 389.872C310.052 349.361 372.106 341.857 350.118 351.778C325.277 362.53 302.62 372.795 283.929 389.879ZM258.269 468.708C263.323 493.521 275.596 515.156 289.348 538.47C301.284 559.434 255.537 516.84 247.828 461.114C303.219 451.284 357.832 481.687 334.213 476.79C307.796 470.887 283.432 465.874 258.269 468.708ZM191.175 517.4C180.68 540.444 177.892 565.161 175.314 592.106C172.648 616.081 160.674 554.733 187.192 505.119C237.782 529.724 264.094 586.421 247.864 568.576C229.963 548.273 213.198 529.898 191.175 517.4ZM108.274 517.356C86.2383 529.83 69.4543 548.188 51.5311 568.472C35.2823 586.3 61.6549 529.631 112.271 505.079C138.736 554.722 126.698 616.057 124.057 592.08C121.507 565.132 118.746 540.412 108.274 517.356ZM41.2319 468.593C16.0719 465.732 -8.29694 470.719 -34.7197 476.593C-58.3444 481.465 -3.69928 451.121 51.6814 461.009C43.9138 516.726 -1.87759 559.272 10.079 538.321C23.856 515.022 36.1522 493.4 41.2319 468.593ZM15.6559 389.736C-3.01691 372.633 -25.6624 362.344 -50.4925 351.566C-72.4697 341.622 -10.4241 349.192 28.5667 389.743C-10.4675 430.254 -72.521 437.758 -50.5334 427.837C-25.6917 417.085 -3.03525 406.819 15.6559 389.736ZM149.915 159.713C146.283 158.533 141.913 158.461 136.678 160.272C131.213 162.388 126.814 166.952 125.424 170.118C124.095 172.625 124.135 166.823 112.544 158.55C121.988 146.762 136.112 140.691 149.923 143.76C163.739 140.705 177.856 146.791 187.287 158.59C175.686 166.85 175.721 172.652 174.395 170.144C173.009 166.976 168.614 162.408 163.151 160.287C157.917 158.469 153.548 158.536 149.915 159.713ZM285.137 203.728C282.892 200.639 279.399 198.012 274.1 196.401C268.435 194.9 262.193 196.007 259.208 197.751C256.659 198.998 260.103 194.328 255.586 180.822C270.157 176.836 285.151 180.226 294.521 190.827C307.493 196.477 315.337 209.697 316.032 224.787C301.792 224.651 298.409 229.365 298.811 226.556C299.551 223.178 298.681 216.899 295.508 211.972C292.343 207.427 288.769 204.913 285.137 203.728ZM368.663 318.82C368.663 315.001 367.381 310.823 364.04 306.405C360.339 301.86 354.64 299.087 351.199 298.744C348.404 298.254 353.935 296.5 358.22 282.919C372.35 288.258 382.488 299.814 383.838 313.898C391.011 326.094 389.586 341.4 381.28 354.016C369.839 345.536 364.332 347.362 366.307 345.324C368.891 343.027 371.878 337.436 372.207 331.585C372.319 326.047 370.905 321.913 368.663 318.82ZM368.588 461.026C370.833 457.936 372.251 453.803 372.146 448.265C371.822 442.413 368.841 436.819 366.26 434.519C364.286 432.48 369.792 434.312 381.241 425.844C389.535 438.468 390.944 453.776 383.757 465.964C382.393 480.047 372.243 491.592 358.107 496.916C353.836 483.331 348.307 481.57 351.103 481.084C354.544 480.745 360.246 477.977 363.952 473.437C367.297 469.022 368.583 464.846 368.588 461.026ZM284.94 576.03C288.572 574.849 292.149 572.339 295.319 567.796C298.497 562.872 299.374 556.594 298.637 553.216C298.239 550.407 301.616 555.125 315.857 555.004C315.145 570.093 307.288 583.305 294.309 588.941C284.928 599.532 269.93 602.907 255.364 598.905C259.895 585.404 256.456 580.73 259.004 581.98C261.987 583.728 268.227 584.84 273.894 583.345C279.196 581.739 282.691 579.117 284.94 576.03ZM149.671 619.902C153.303 621.081 157.672 621.154 162.908 619.342C168.373 617.227 172.772 612.663 174.162 609.497C175.491 606.99 175.45 612.792 187.042 621.064C177.597 632.853 163.474 638.923 149.663 635.855C135.847 638.909 121.73 632.824 112.299 621.025C123.9 612.765 123.865 606.962 125.191 609.471C126.577 612.639 130.971 617.207 136.435 619.328C141.667 621.145 146.037 621.078 149.671 619.902ZM14.4475 575.886C16.6926 578.976 20.1857 581.603 25.4847 583.214C31.1496 584.715 37.3912 583.608 40.3766 581.863C42.9259 580.617 39.4823 585.287 43.998 598.793C29.4281 602.779 14.4341 599.389 5.06409 588.787C-7.90842 583.138 -15.7518 569.917 -16.447 554.827C-2.20685 554.964 1.1757 550.249 0.774353 553.058C0.0339355 556.436 0.903824 562.715 4.07684 567.642C7.24193 572.187 10.8163 574.702 14.4475 575.886ZM-69.0786 460.794C-69.078 464.614 -67.7963 468.791 -64.4553 473.21C-60.7544 477.754 -55.0547 480.528 -51.6141 480.871C-48.8193 481.36 -54.3497 483.114 -58.6352 496.696C-72.7654 491.357 -82.9033 479.801 -84.2528 465.716C-91.4266 453.521 -90.002 438.215 -81.6949 425.599C-70.2546 434.079 -64.7467 432.253 -66.7223 434.29C-69.3058 436.587 -72.2931 442.178 -72.6224 448.03C-72.7336 453.567 -71.32 457.702 -69.0786 460.794ZM-69.0028 318.588C-71.2479 321.678 -72.6658 325.811 -72.5607 331.35C-72.2375 337.202 -69.2564 342.796 -66.6753 345.096C-64.7015 347.134 -70.2069 345.303 -81.6564 353.771C-89.95 341.146 -91.3594 325.838 -84.1721 313.651C-82.808 299.568 -72.6579 288.023 -58.5216 282.698C-54.2508 296.284 -48.7221 298.044 -51.5176 298.53C-54.9582 298.87 -60.661 301.637 -64.3667 306.178C-67.712 310.593 -68.9986 314.769 -69.0028 318.588ZM14.6448 203.585C11.0124 204.766 7.4362 207.276 4.26562 211.818C1.08772 216.742 0.21109 223.021 0.947845 226.398C1.34615 229.208 -2.03152 224.49 -16.2716 224.611C-15.5599 209.522 -7.70253 196.31 5.27547 190.674C14.6571 180.083 29.6547 176.708 44.2204 180.71C39.69 194.211 43.1287 198.884 40.5813 197.635C37.5982 195.887 31.3579 194.774 25.6906 196.269C20.3891 197.875 16.893 200.498 14.6448 203.585ZM-39.8885 128.443C-54.3962 122.683 -52.3845 123.541 -51.1828 129.575C-45.4581 153.938 -28.4879 163.644 -13.2465 165.154C-9.95677 150.195 -13.9234 131.052 -35.311 118.057C-40.6747 115.043 -40.8659 112.864 -39.8885 128.443ZM-157.288 289.851C-172.411 293.718 -170.28 293.23 -165.76 297.405C-146.808 313.75 -127.374 311.628 -114.156 303.89C-120.287 289.854 -134.748 276.699 -159.69 278.756C-165.801 279.472 -167.237 277.821 -157.288 289.851ZM-157.394 489.438C-167.355 501.457 -165.918 499.808 -159.807 500.53C-134.868 502.614 -120.393 489.474 -114.247 475.444C-127.458 467.693 -146.889 465.55 -165.858 481.875C-170.382 486.046 -172.513 485.554 -157.394 489.438ZM-40.1652 650.971C-41.1598 666.548 -40.9667 664.37 -35.5981 661.362C-14.197 648.389 -10.2097 629.25 -13.4841 614.288C-28.7279 615.781 -45.7079 625.47 -51.4584 649.826C-52.6667 655.859 -54.6796 656.715 -40.1652 650.971ZM149.621 712.747C157.973 725.934 156.849 724.058 159.424 718.47C169.113 695.395 161.088 677.568 149.645 667.387C138.191 677.556 130.148 695.374 139.812 718.459C142.381 724.05 141.255 725.926 149.621 712.747ZM339.473 651.171C353.982 656.931 351.969 656.074 350.768 650.039C345.043 625.677 328.073 615.971 312.831 614.461C309.542 629.42 313.508 648.562 334.896 661.558C340.26 664.571 340.451 666.751 339.473 651.171ZM456.873 489.764C471.996 485.896 469.865 486.385 465.345 482.21C446.393 465.865 426.959 467.987 413.741 475.724C419.872 489.76 434.333 502.915 459.275 500.858C465.386 500.143 466.822 501.793 456.873 489.764ZM456.979 290.176C466.94 278.158 465.503 279.807 459.392 279.085C434.453 277.001 419.978 290.14 413.832 304.17C427.042 311.921 446.474 314.064 465.443 297.74C469.967 293.569 472.098 294.06 456.979 290.176ZM339.75 128.644C340.745 113.066 340.551 115.245 335.184 118.253C313.783 131.226 309.795 150.364 313.07 165.327C328.313 163.833 345.293 154.145 351.044 129.789C352.252 123.755 354.265 122.9 339.75 128.644ZM149.964 66.868C141.612 53.6805 142.736 55.5566 140.161 61.1451C130.472 84.2201 138.497 102.047 149.939 112.227C161.394 102.058 169.437 84.2409 159.772 61.1555C157.204 55.5639 158.329 53.6891 149.964 66.868ZM-1.99734 180.655C-6.9939 184.451 -11.583 188.014 -14.3852 191.659C-28.4695 209.904 -18.904 224.466 -23.4167 225.115C-33.2956 227.37 -23.6428 228.105 -34.0611 204.378C-46.2669 174.874 -60.7416 178.83 -65.1481 139.462C-65.853 125.02 -61.0849 109.93 -58.1251 103.314C-50.9183 102.551 -35.0941 102.697 -21.5816 107.845C14.4811 124.239 6.2309 136.774 30.4977 157.525C49.8267 174.787 52.1206 165.382 46.9133 174.075C44.8973 178.164 34.0196 164.555 12.3063 172.289C7.97197 173.822 3.16112 177.081 -1.99734 180.655ZM-95.9448 309.818C-97.7561 315.826 -99.3738 321.407 -99.4984 326.003C-100.169 349.042 -83.871 355.2 -87.1405 358.377C-93.8067 366.009 -85.5656 360.93 -107.941 347.857C-135.158 331.162 -144.543 342.871 -171.248 313.612C-180.307 302.342 -185.32 287.331 -186.813 280.24C-181.431 275.386 -168.544 266.203 -154.586 262.426C-115.775 254.492 -115.081 269.482 -83.2509 272.006C-57.4678 274.61 -61.1405 265.653 -60.2437 275.746C-59.4709 280.239 -76.2707 275.624 -89.2915 294.643C-91.8958 298.431 -93.872 303.895 -95.9448 309.818ZM-96.0291 469.535C-93.963 475.46 -91.9917 480.926 -89.3917 484.718C-76.3917 503.751 -59.587 499.153 -60.3647 503.646C-61.2719 513.738 -57.59 504.785 -83.3761 507.361C-115.208 509.852 -115.918 524.841 -154.721 516.867C-168.674 513.074 -181.553 503.876 -186.929 499.018C-185.428 491.928 -180.4 476.923 -171.328 465.663C-144.593 436.431 -135.22 448.15 -107.986 431.484C-85.5961 418.435 -93.8323 413.348 -87.1741 420.986C-83.9082 424.167 -100.212 430.307 -99.5662 453.347C-99.4465 457.943 -97.8343 463.526 -96.0291 469.535ZM-2.21849 598.799C2.93568 602.379 7.74287 605.642 12.0754 607.181C33.7801 614.938 44.6725 601.341 46.6848 605.432C51.883 614.13 49.5988 604.723 30.2515 621.964C5.96332 642.689 14.1995 655.233 -21.881 671.589C-35.3984 676.722 -51.2231 676.851 -58.4287 676.08C-61.3812 669.462 -66.1335 654.367 -65.4132 639.925C-60.9652 600.562 -46.4942 604.534 -34.2572 575.043C-23.8139 551.326 -33.4673 552.05 -23.5909 554.317C-19.0788 554.97 -28.6595 569.521 -14.5947 587.781C-11.7968 591.43 -7.21077 594.998 -2.21849 598.799ZM149.655 648.235C155.929 648.101 161.737 647.916 166.146 646.614C188.265 640.132 189.085 622.729 193.117 624.857C202.435 628.838 195.058 622.57 189.539 647.89C182.072 678.934 196.108 684.241 176.533 718.68C168.613 730.779 155.887 740.185 149.604 743.797C143.325 740.179 130.609 730.759 122.702 718.652C103.164 684.192 117.205 678.9 109.771 647.848C104.279 622.523 96.8954 628.783 106.218 624.812C110.252 622.688 111.054 640.092 133.166 646.598C137.575 647.903 143.382 648.094 149.655 648.235ZM301.582 598.96C306.579 595.164 311.168 591.601 313.97 587.956C328.054 569.711 318.489 555.149 323.002 554.501C332.881 552.245 323.228 551.51 333.645 575.238C345.851 604.742 360.327 600.786 364.732 640.154C365.437 654.596 360.669 669.687 357.709 676.301C350.503 677.064 334.678 676.919 321.166 671.771C285.103 655.377 293.353 642.842 269.087 622.09C249.758 604.829 247.464 614.234 252.67 605.541C254.687 601.452 265.565 615.06 287.278 607.327C291.613 605.792 296.424 602.534 301.582 598.96ZM395.53 469.796C397.34 463.788 398.959 458.207 399.083 453.612C399.753 430.572 383.456 424.415 386.725 421.237C393.392 413.606 385.15 418.685 407.526 431.758C434.743 448.453 444.128 436.743 470.833 466.003C479.892 477.273 484.905 492.283 486.398 499.375C481.016 504.228 468.129 513.411 454.171 517.189C415.36 525.123 414.666 510.133 382.836 507.608C357.053 505.005 360.725 513.962 359.829 503.868C359.056 499.375 375.856 503.991 388.876 484.971C391.481 481.183 393.457 475.719 395.53 469.796ZM395.615 310.079C393.549 304.154 391.577 298.688 388.977 294.896C375.977 275.863 359.173 280.461 359.95 275.968C360.857 265.876 357.175 274.829 382.962 272.253C414.793 269.762 415.503 254.773 454.306 262.747C468.26 266.541 481.138 275.738 486.514 280.597C485.013 287.686 479.985 302.692 470.913 313.952C444.177 343.184 434.805 331.465 407.571 348.131C385.181 361.18 393.417 366.267 386.759 358.629C383.492 355.448 399.797 349.307 399.151 326.268C399.031 321.671 397.419 316.089 395.615 310.079ZM301.803 180.815C296.649 177.236 291.842 173.973 287.509 172.434C265.805 164.677 254.912 178.274 252.9 174.183C247.702 165.485 249.985 174.892 269.333 157.651C293.622 136.926 285.385 124.381 321.465 108.026C334.983 102.892 350.807 102.764 358.013 103.534C360.966 110.153 365.718 125.248 364.997 139.689C360.549 179.053 346.078 175.081 333.841 204.572C323.398 228.288 333.052 227.564 323.175 225.297C318.663 224.644 328.244 210.093 314.179 191.833C311.382 188.185 306.796 184.617 301.803 180.815ZM149.93 131.379C143.656 131.514 137.848 131.699 133.439 133.001C111.32 139.483 110.5 156.886 106.468 154.758C97.1495 150.777 104.527 157.044 110.045 131.725C117.512 100.681 103.476 95.3739 123.052 60.9344C130.97 48.8355 143.697 39.43 149.98 35.8178C156.259 39.4361 168.976 48.8556 176.882 60.9625C196.42 95.4228 182.379 100.715 189.813 131.767C195.304 157.092 202.688 150.832 193.367 154.803C189.332 156.927 188.53 139.523 166.418 133.017C162.01 131.712 156.203 131.52 149.93 131.379ZM-61.5645 98.5751C-89.7136 158.148 -42.4133 186.306 -55.4946 178.79C-72.0824 169.03 -96.5288 176.16 -96.5404 195.091C-106.493 191.404 -109.548 198.071 -111.449 199.792C-112.501 202.131 -117.904 207.092 -111.331 215.425C-129.338 221.267 -128.591 246.72 -114.197 259.496C-103.017 269.626 -144.375 233.298 -192.382 278.427C-180.139 343.168 -125.321 338.146 -140.322 339.755C-159.478 341.609 -175.065 361.747 -163.947 377.069C-174.166 379.936 -172.719 387.126 -173.245 389.636C-172.722 392.147 -174.177 399.335 -163.961 402.213C-175.095 417.524 -159.529 437.678 -140.376 439.552C-125.376 441.176 -180.189 436.096 -192.5 500.824C-144.542 546.004 -103.145 509.72 -114.336 519.839C-128.743 532.598 -129.518 558.052 -111.517 563.913C-118.099 572.239 -112.701 577.205 -111.652 579.545C-109.752 581.268 -106.704 587.939 -96.7475 584.262C-96.7561 603.194 -72.317 610.349 -55.7194 600.607C-42.6302 593.105 -89.9604 621.212 -61.8748 680.815C3.48064 689.177 15.6443 635.491 12.5385 650.254C8.38188 669.046 22.7173 690.093 40.7249 684.254C40.2942 694.859 47.5792 695.704 49.8041 696.98C52.3534 697.258 58.7403 700.863 64.6349 692.037C75.7558 707.357 99.7324 698.781 107.435 681.144C113.615 667.381 91.8457 717.94 149.6 749.652C207.389 718.002 185.673 667.419 191.839 681.189C199.521 698.835 223.49 707.435 234.627 692.127C240.512 700.959 246.902 697.361 249.452 697.086C251.678 695.812 258.964 694.975 258.545 684.37C276.547 690.228 290.904 669.196 286.767 650.4C283.677 635.633 295.784 689.333 361.148 681.04C389.297 621.468 341.997 593.309 355.078 600.825C371.666 610.585 396.112 603.456 396.123 584.525C406.076 588.211 409.131 581.544 411.033 579.823C412.084 577.484 417.487 572.523 410.915 564.191C428.922 558.348 428.175 532.895 413.78 520.12C402.601 509.99 443.959 546.317 491.965 501.188C479.722 436.447 424.905 441.469 439.906 439.86C459.062 438.006 474.649 417.869 463.531 402.547C473.75 399.679 472.302 392.49 472.829 389.979C472.305 387.469 473.76 380.28 463.544 377.402C474.679 362.091 459.113 341.937 439.959 340.063C424.96 338.438 479.772 343.518 492.084 278.791C444.126 233.611 402.729 269.894 413.92 259.776C428.327 247.016 429.101 221.563 411.1 215.702C417.682 207.376 412.285 202.41 411.236 200.07C409.336 198.347 406.288 191.676 396.332 195.352C396.34 176.421 371.901 169.266 355.304 179.008C342.214 186.51 389.544 158.402 361.459 98.7993C296.104 90.4372 283.94 144.123 287.045 129.36C291.202 110.569 276.866 89.5221 258.859 95.3605C259.29 84.7559 252.005 83.911 249.78 82.6342C247.23 82.3569 240.843 78.7513 234.949 87.5776C223.828 72.2574 199.851 80.8333 192.149 98.4706C185.969 112.234 207.738 61.6742 149.983 29.9629C92.1951 61.6131 113.91 112.196 107.745 98.426C100.062 80.7801 76.0942 72.1792 64.9575 87.4878C59.0727 78.6554 52.682 82.2536 50.1321 82.5285C47.906 83.8022 40.6204 84.6398 41.0395 95.245C23.0374 89.3871 8.67999 110.419 12.817 129.214C15.9064 143.982 3.80014 90.2821 -61.5645 98.5751ZM80.9185 339.711C89.4156 336.185 95.9302 330.209 100.48 321.859C109.83 320.122 117.531 315.78 123.518 308.796C132.465 310.937 141.248 309.932 149.837 305.851C158.422 309.941 167.204 310.956 176.154 308.824C182.133 315.816 189.829 320.164 199.178 321.911C203.72 330.267 210.227 336.249 218.721 339.785C219.449 348.956 223.119 356.998 229.655 363.905C228.418 373.334 230.167 382 234.959 389.852C230.157 397.7 228.4 406.364 229.627 415.794C223.084 422.694 219.406 430.733 218.668 439.903C210.171 443.429 203.656 449.405 199.106 457.755C189.756 459.493 182.055 463.834 176.068 470.818C167.121 468.677 158.338 469.682 149.749 473.763C141.163 469.673 132.381 468.659 123.432 470.79C117.453 463.798 109.756 459.449 100.409 457.703C95.8679 449.347 89.36 443.365 80.866 439.829C80.1378 430.658 76.4675 422.616 69.9321 415.708C71.1691 406.279 69.4207 397.614 64.6276 389.761C69.4286 381.914 71.1868 373.25 69.9595 363.82C76.5017 356.92 80.1805 348.882 80.9185 339.711ZM-16.3951 268.93C-13.4939 264.216 -13.3796 258.239 -16.8825 252.639C-21.1436 245.649 -33.0531 244.474 -37.6624 253.461C-44.7928 260.614 -40.007 271.582 -32.0439 273.483C-25.6374 275.091 -19.9866 273.142 -16.3951 268.93ZM-55.706 389.698C-56.1305 384.179 -59.551 379.277 -65.6765 376.805C-73.2327 373.655 -83.5582 379.705 -82.0047 389.684C-83.5686 399.662 -73.2498 405.722 -65.6905 402.58C-59.5614 400.115 -56.136 395.217 -55.706 389.698ZM-16.5233 510.508C-20.1105 506.293 -25.7596 504.337 -32.1679 505.938C-40.1322 507.831 -44.9303 518.795 -37.8078 525.955C-33.2083 534.947 -21.2975 533.784 -17.0292 526.799C-13.5195 521.202 -13.6277 515.225 -16.5233 510.508ZM86.1863 585.214C80.8067 583.912 75.0869 585.65 70.8435 590.712C65.5128 596.925 68.0755 608.615 78.0466 610.221C87.0526 614.792 96.0053 606.851 95.3529 598.69C94.9026 592.1 91.302 587.328 86.1863 585.214ZM213.191 585.281C208.074 587.39 204.468 592.158 204.011 598.748C203.35 606.907 212.294 614.858 221.305 610.297C231.278 608.701 233.853 597.014 228.529 590.796C224.29 585.729 218.572 583.985 213.191 585.281ZM315.98 510.684C313.079 515.398 312.965 521.375 316.468 526.975C320.729 533.965 332.639 535.141 337.248 526.153C344.378 519 339.592 508.032 331.629 506.131C325.223 504.523 319.571 506.473 315.98 510.684ZM355.291 389.916C355.715 395.435 359.136 400.338 365.261 402.809C372.817 405.959 383.143 399.91 381.589 389.93C383.153 379.953 372.834 373.892 365.275 377.034C359.146 379.499 355.721 384.398 355.291 389.916ZM316.108 269.106C319.695 273.322 325.344 275.278 331.753 273.677C339.717 271.783 344.515 260.82 337.392 253.66C332.793 244.667 320.882 245.83 316.613 252.815C313.104 258.413 313.213 264.39 316.108 269.106ZM213.399 194.4C218.778 195.703 224.498 193.964 228.742 188.902C234.073 182.689 231.51 171 221.539 169.394C212.532 164.822 203.58 172.764 204.233 180.925C204.682 187.514 208.283 192.287 213.399 194.4ZM86.3934 194.333C91.5109 192.224 95.1171 187.456 95.574 180.867C96.235 172.707 87.2908 164.756 78.28 169.318C68.3076 170.914 65.7321 182.601 71.0567 188.819C75.2946 193.885 81.0126 195.63 86.3934 194.333ZM-33.127 256.76C-29.0529 244.678 -15.6717 257.455 -20.3989 266.018C-27.0901 273.153 -43.3663 264.357 -33.127 256.76ZM-76.396 389.687C-80.2013 377.518 -61.8657 379.989 -60.6567 389.696C-61.8761 399.401 -80.2141 401.853 -76.396 389.687ZM-33.2682 522.66C-43.4995 515.052 -27.2135 506.274 -20.5296 513.416C-15.8123 521.984 -29.2069 534.746 -33.2682 522.66ZM79.7822 604.888C67.0327 604.747 75.0483 588.072 84.6535 589.921C93.5073 594.081 90.1718 612.278 79.7822 604.888ZM219.574 604.962C209.177 612.342 205.861 594.141 214.719 589.991C224.326 588.151 232.324 604.834 219.574 604.962ZM332.712 522.855C328.638 534.936 315.257 522.16 319.984 513.596C326.674 506.461 342.951 515.257 332.712 522.855ZM375.981 389.927C379.786 402.097 361.451 399.625 360.242 389.919C361.461 380.214 379.799 377.762 375.981 389.927ZM332.853 256.954C343.085 264.562 326.798 273.341 320.115 266.199C315.397 257.631 328.792 244.868 332.853 256.954ZM219.803 174.727C232.552 174.868 224.537 191.543 214.931 189.693C206.078 185.534 209.413 167.336 219.803 174.727ZM80.0107 174.652C90.4082 167.273 93.7242 185.474 84.8661 189.624C75.2597 191.463 67.2606 174.78 80.0107 174.652ZM-48.4998 245.579C-45.4141 240.373 -39.8702 235.547 -31.3732 232.336C-0.598373 220.137 25.131 255.611 0.705292 281.368C-16.2759 312.54 -57.951 298.988 -55.8239 265.952C-55.3858 256.879 -52.5018 250.118 -48.4998 245.579ZM-95.4048 389.677C-95.968 383.652 -94.3192 376.489 -89.333 368.896C-71.6059 340.939 -29.9387 354.515 -34.5608 389.709C-29.9766 424.909 -71.6578 438.441 -89.355 410.464C-94.3339 402.866 -95.9748 395.702 -95.4048 389.677ZM-48.6531 533.826C-52.6502 529.283 -55.527 522.519 -55.9558 513.445C-58.0475 480.407 -16.3584 466.899 0.589218 498.089C24.988 523.871 -0.779175 559.319 -31.5411 547.087C-40.0339 543.866 -45.5729 539.034 -48.6531 533.826ZM73.8986 622.964C67.9943 621.637 61.6916 617.857 56.0114 610.768C34.8999 585.269 60.6873 549.836 92.7315 565.108C127.624 571.625 127.614 615.448 95.538 623.634C86.7734 626.021 79.4523 625.367 73.8986 622.964ZM225.439 623.044C219.883 625.441 212.561 626.087 203.799 623.691C171.732 615.471 171.768 571.649 206.668 565.168C238.728 549.93 264.479 585.391 243.339 610.867C237.651 617.949 231.344 621.724 225.439 623.044ZM348.085 534.036C344.999 539.242 339.455 544.068 330.958 547.279C300.183 559.478 274.454 524.003 298.88 498.246C315.861 467.075 357.536 480.627 355.409 513.663C354.971 522.736 352.087 529.497 348.085 534.036ZM394.99 389.937C395.553 395.962 393.904 403.125 388.919 410.718C371.191 438.676 329.524 425.099 334.146 389.905C329.562 354.705 371.243 341.173 388.941 369.15C393.918 376.748 395.56 383.912 394.99 389.937ZM348.238 245.789C352.235 250.332 355.112 257.096 355.54 266.169C357.632 299.207 315.943 312.715 298.995 281.526C274.596 255.744 300.363 220.296 331.125 232.527C339.619 235.748 345.158 240.58 348.238 245.789ZM225.686 156.651C231.59 157.977 237.893 161.758 243.573 168.847C264.685 194.346 238.898 229.778 206.853 214.507C171.961 207.99 171.971 164.167 204.047 155.981C212.812 153.594 220.133 154.247 225.686 156.651ZM74.1454 156.57C79.7016 154.173 87.0239 153.527 95.7854 155.923C127.853 164.144 127.817 207.966 92.9166 214.447C60.8565 229.684 35.1064 194.224 56.2454 168.747C61.9329 161.665 68.2404 157.891 74.1454 156.57ZM97.8673 318.259C94.9258 324.168 89.4742 332.751 78.1768 337.717C76.9312 349.995 70.4452 357.826 65.7291 362.444C66.8232 368.954 67.4567 379.102 61.2371 389.761C67.4457 400.426 66.8012 410.573 65.7003 417.081C70.4116 421.705 76.8896 429.542 78.1224 441.821C89.4137 446.8 94.8568 455.389 97.7922 461.301C104.322 462.272 114.169 464.805 122.383 474.014C134.445 471.405 143.896 475.154 149.746 478.212C155.599 475.16 165.055 471.421 177.114 474.043C185.339 464.842 195.188 462.32 201.719 461.355C204.66 455.446 210.112 446.863 221.409 441.897C222.655 429.619 229.142 421.788 233.857 417.17C232.764 410.66 232.129 400.512 238.35 389.853C232.141 379.188 232.786 369.041 233.886 362.533C229.175 357.909 222.697 350.072 221.464 337.793C210.172 332.814 204.73 324.226 201.795 318.313C195.265 317.342 185.418 314.809 177.203 305.6C165.141 308.209 155.69 304.46 149.84 301.402C143.987 304.453 134.532 308.192 122.473 305.57C114.247 314.772 104.397 317.294 97.8673 318.259ZM58.2449 323.22C59.3304 320.277 63.3019 329.17 77.1064 319.764C81.9308 316.966 86.083 308.503 86.628 302.772C92.2458 304.031 101.579 302.707 105.735 298.988C118.956 288.779 111.732 282.246 114.868 282.126C117.476 280.384 115.461 289.913 132.158 290.418C137.706 290.989 146.039 286.584 149.848 282.267C153.654 286.588 161.982 291.002 167.53 290.437C184.227 289.949 182.223 280.418 184.83 282.164C187.964 282.287 180.734 288.812 193.945 299.035C198.097 302.758 207.428 304.092 213.048 302.839C213.587 308.571 217.73 317.038 222.551 319.842C236.345 329.261 240.326 320.373 241.41 323.317C243.873 325.26 234.188 326.289 238.867 342.324C240.038 347.778 246.803 354.341 252.085 356.631C249.152 361.585 247.527 370.87 249.78 375.971C255.403 391.701 263.849 386.85 262.994 389.868C263.846 392.887 255.405 388.027 249.766 403.75C247.507 408.85 249.122 418.137 252.05 423.094C246.765 425.377 239.994 431.934 238.817 437.386C234.12 453.417 243.805 454.456 241.339 456.395C240.253 459.339 236.282 450.445 222.477 459.851C217.653 462.649 213.501 471.111 212.956 476.843C207.338 475.584 198.005 476.908 193.849 480.627C180.627 490.836 187.851 497.369 184.716 497.489C182.108 499.232 184.122 489.702 167.426 489.198C161.878 488.626 153.545 493.032 149.735 497.348C145.931 493.027 137.602 488.613 132.053 489.179C115.356 489.666 117.361 499.197 114.754 497.452C111.619 497.328 118.849 490.802 105.639 480.58C101.486 476.857 92.1554 475.523 86.5357 476.776C85.9969 471.044 81.8538 462.578 77.0326 459.774C63.2378 450.353 59.2572 459.243 58.174 456.298C55.7103 454.356 65.3955 453.327 60.7166 437.292C59.5455 431.838 52.781 425.275 47.4979 422.985C50.4315 418.031 52.0558 408.746 49.8034 403.644C44.1801 387.915 35.7344 392.766 36.5891 389.748C35.7375 386.728 44.1777 391.588 49.8175 375.865C52.076 370.765 50.4608 361.478 47.5327 356.521C52.8177 354.238 59.5895 347.681 60.7667 342.229C65.4633 326.199 55.7793 325.16 58.2449 323.22Z" fill="#F66E27"/>
</svg>
