<svg width="142" height="46" viewBox="0 0 142 46" fill="none" xmlns="http://www.w3.org/2000/svg">
<path d="M18.8281 40.4062C19.7734 39.7188 20.9414 39.0039 22.332 38.2617C23.7305 37.5195 25.1641 36.7891 26.6328 36.0703C28.25 35.2734 29.6836 34.5312 30.9336 33.8438C32.2852 33.1094 34.0195 32.0234 36.1367 30.5859C39.043 28.6172 41.1953 26.793 42.5938 25.1133C43.4531 24.082 43.8828 23.1641 43.8828 22.3594C43.8828 21.6484 43.4453 21.0547 42.5703 20.5781C41.3984 19.9844 40.0352 19.6875 38.4805 19.6875C37.1133 19.6875 35.6953 19.8789 34.2266 20.2617C32.7578 20.6445 31.3594 21.1836 30.0312 21.8789C29.4766 22.3867 28.8633 22.8984 28.1914 23.4141C27.9648 27.7969 27.6367 30.9648 27.207 32.918C27.1523 33.0742 27.1016 33.2695 27.0547 33.5039C26.9531 33.9961 26.8086 34.4688 26.6211 34.9219C26.4492 35.3281 26.2031 35.5312 25.8828 35.5312H25.8008C25.1367 35.1406 24.3164 31.5508 23.3398 24.7617C22.6445 24.2773 22.2969 23.6445 22.2969 22.8633C22.2969 22.3086 22.4883 21.7539 22.8711 21.1992C22.6133 19.0977 22.4531 17.6992 22.3906 17.0039L27.6055 17.0742C29.0352 15.6055 29.9922 14.3164 30.4766 13.207C30.625 12.8633 30.6992 12.5859 30.6992 12.375C30.6992 12.2656 30.6602 12.1367 30.582 11.9883C30.4805 11.793 29.9688 11.6953 29.0469 11.6953C27.9219 11.6953 26.7578 11.9258 25.5547 12.3867C24.3594 12.8398 23.2188 13.5117 22.1328 14.4023C21.0469 15.2852 20.1719 16.2695 19.5078 17.3555L14 14.543C15.3047 12.5039 16.7656 10.8633 18.3828 9.62109C20 8.37109 21.9922 7.40625 24.3594 6.72656C26.0469 6.24219 27.5703 6 28.9297 6C29.3984 6 30.1602 6.07422 31.2148 6.22266C32.2695 6.36328 33.2852 6.87891 34.2617 7.76953C35.457 8.86328 36.0547 10.2656 36.0547 11.9766C36.0547 13.1016 35.7617 14.3086 35.1758 15.5977C36.0117 15.4883 36.832 15.4336 37.6367 15.4336C38.4727 15.4336 39.4922 15.5195 40.6953 15.6914C41.9062 15.8633 43.1797 16.3477 44.5156 17.1445C46.1562 18.1758 47.1367 19.3086 47.457 20.543C47.5664 20.9727 47.6211 21.4062 47.6211 21.8438C47.6211 22.6484 47.3828 23.5703 46.9062 24.6094C46.4297 25.6484 45.6641 26.7266 44.6094 27.8438C43.5547 28.9609 42.4805 29.918 41.3867 30.7148C39.707 31.9414 37.4805 33.2578 34.707 34.6641C31.9336 36.0781 29.1016 37.3242 26.2109 38.4023C23.3281 39.4883 20.8672 40.1562 18.8281 40.4062Z" fill="#264A58"/>
<path d="M63.1602 40.207L62.4336 39.375C62.1289 38.8359 61.8203 37.8945 61.5078 36.5508C61.1953 35.2148 60.875 33.7227 60.5469 32.0742C60.2422 30.5664 59.9336 29.1289 59.6211 27.7617C59.3164 26.3945 59.0039 25.2891 58.6836 24.4453C57.9414 25.4297 57.3906 26.4023 57.0312 27.3633C56.7812 28.0352 56.6562 28.7891 56.6562 29.625C56.6562 29.9844 56.6797 30.3633 56.7266 30.7617L54.125 31.0781C54.0781 31.2578 54.0273 31.4023 53.9727 31.5117L53.3281 32.4492C52.9062 31.8242 52.6602 31.4336 52.5898 31.2773L50.5859 31.5234V31.2422C50.5859 29.3828 50.875 27.6367 51.4531 26.0039C50.8828 22.043 50.4062 18.1992 50.0234 14.4727C49.8438 12.8555 49.6992 11.6016 49.5898 10.7109L55.7656 10.3008C55.7188 12.7148 55.5586 16.0781 55.2852 20.3906C56.5352 19.2578 57.6758 18.6914 58.707 18.6914C58.832 18.6914 59.168 18.7305 59.7148 18.8086C60.2617 18.8867 60.8789 19.3867 61.5664 20.3086C62.2539 21.2227 62.7461 22.3633 63.043 23.7305C63.3008 24.9414 63.5 26.625 63.6406 28.7812C63.7344 30.3047 63.7812 31.8281 63.7812 33.3516C63.7812 33.9766 63.7617 34.9805 63.7227 36.3633C63.6836 37.7461 63.4961 39.0273 63.1602 40.207Z" fill="#264A58"/>
<path d="M72.7461 34.1367H72.6289C71.543 34.1367 70.6445 33.8164 69.9336 33.1758C68.6523 32.0117 67.832 30.0117 67.4727 27.1758C67.2773 25.6602 67.1797 23.8867 67.1797 21.8555L67.1914 20.7422L73.3438 21.4453C72.7734 24.2734 72.4883 26.5273 72.4883 28.207C72.4883 29.082 72.6055 29.7461 72.8398 30.1992C72.918 30.2227 73.0078 30.2344 73.1094 30.2344C73.6797 30.2344 74.8359 29.7188 76.5781 28.6875C76.0547 26.7969 75.793 24.6484 75.793 22.2422C75.793 21.4922 75.8203 20.75 75.875 20.0156L81.9219 21.3047C81.4219 22.8516 81.0938 24.0312 80.9375 24.8438C80.7812 25.6484 80.6719 26.4961 80.6094 27.3867C80.3672 29.9492 80.1602 31.4023 79.9883 31.7461C79.918 31.8945 79.8047 32.082 79.6484 32.3086C79.4922 32.543 79.2773 32.8828 79.0039 33.3281L77.832 31.7344L77.5625 31.2422C76.8672 32.0156 76.0898 32.6797 75.2305 33.2344C74.3711 33.7891 73.543 34.0898 72.7461 34.1367Z" fill="#264A58"/>
<path d="M91.1211 35.0859C90.5508 35.0859 89.9492 34.8555 89.3164 34.3945C88.6836 33.9414 88.1211 33.1445 87.6289 32.0039C87.1367 30.8555 86.7656 29.6797 86.5156 28.4766C86.2656 27.2734 86.0977 26.2852 86.0117 25.5117C85.8555 23.9805 85.7383 22.0742 85.6602 19.793L85.4258 19.8164C84.4961 19.8789 83.6133 19.9609 82.7773 20.0625L83.7383 13.9453L85.3555 14.3906C85.2617 13.2266 85.1289 12.2969 84.957 11.6016L90.9453 10.0664C91.0234 10.7695 91.0625 11.5938 91.0625 12.5391C91.0625 13.4297 91.0273 14.4336 90.957 15.5508C91.332 15.457 91.6484 15.4102 91.9062 15.4102C92.5938 15.4102 93.5859 15.8867 94.8828 16.8398C93.9609 17.918 92.5742 18.6797 90.7227 19.125C90.4492 22.625 90.3125 25.2617 90.3125 27.0352C90.3125 27.9102 90.3516 28.8789 90.4297 29.9414C90.5078 30.9961 90.7617 31.8164 91.1914 32.4023C91.4102 32.6523 91.6641 32.7773 91.9531 32.7773C92.2891 32.7773 92.7305 32.6445 93.2773 32.3789C93.4648 32.293 93.6289 32.2227 93.7695 32.168L94.9414 31.9102C94.7383 32.582 94.4766 33.1523 94.1562 33.6211C93.8359 34.0898 93.3242 34.4727 92.6211 34.7695C92.082 34.9805 91.582 35.0859 91.1211 35.0859Z" fill="#264A58"/>
<path d="M100.32 34.2188C100.023 34.2188 99.5547 34.1484 98.9141 34.0078C98.2734 33.875 97.5859 33.207 96.8516 32.0039C96.2344 30.8633 95.9258 29.6875 95.9258 28.4766C95.9258 28.0625 96.0117 27.3359 96.1836 26.2969C96.3633 25.25 96.9688 24.0039 98 22.5586C99.0312 21.1055 100.246 19.9375 101.645 19.0547C103.332 18 104.883 17.4727 106.297 17.4727C106.672 17.4727 107.371 17.582 108.395 17.8008C109.426 18.0195 110.656 19.1016 112.086 21.0469L111.711 21.2695L112.191 21.2344C112.152 21.8438 112.109 22.7539 112.062 23.9648C111.883 28.7305 111.695 31.5781 111.5 32.5078L110.844 34.0898L109.496 32.9531C108.918 32.2109 108.32 30.7891 107.703 28.6875C107.102 29.7266 106.34 30.6992 105.418 31.6055C104.504 32.5117 103.523 33.2109 102.477 33.7031C101.742 34.0469 101.023 34.2188 100.32 34.2188ZM100.93 30.6328C101.094 30.6328 101.367 30.5469 101.75 30.375C102.141 30.2031 102.691 29.8516 103.402 29.3203C104.121 28.7891 104.809 28.2266 105.465 27.6328C106.121 27.0312 106.633 26.5195 107 26.0977C106.781 25.2148 106.586 24.3867 106.414 23.6133C106.281 23.3633 106.094 23.2383 105.852 23.2383C105.82 23.2383 105.723 23.25 105.559 23.2734C105.395 23.2969 104.945 23.4883 104.211 23.8477C103.43 24.2227 102.711 24.7539 102.055 25.4414C101.398 26.1211 100.918 26.8906 100.613 27.75C100.449 28.2109 100.367 28.6758 100.367 29.1445C100.367 30.1367 100.555 30.6328 100.93 30.6328Z" fill="#264A58"/>
<path d="M127.566 34.1953L126.336 32.5664C126.102 32.0586 125.828 30.9609 125.516 29.2734C125.367 28.4219 125.203 27.6172 125.023 26.8594C124.844 26.0938 124.621 25.5039 124.355 25.0898C124.324 25.0664 124.277 25.0547 124.215 25.0547C124.074 25.0547 123.805 25.1367 123.406 25.3008C123.008 25.4648 122.566 25.7656 122.082 26.2031C121.605 26.6328 121.309 27.1641 121.191 27.7969L120.441 27.6211C120.379 28.0352 120.328 28.5078 120.289 29.0391C120.227 29.8906 120.195 30.4727 120.195 30.7852C120.188 31.0039 120.176 31.1719 120.16 31.2891C120.152 31.4062 120.125 31.5273 120.078 31.6523C120.031 31.7773 119.953 31.9609 119.844 32.2031C119.688 32.5469 119.422 33.1758 119.047 34.0898L117.184 31.9336C116.176 30.3711 115.57 28.543 115.367 26.4492L115.156 26.4023L115.32 25.9805C115.266 25.1836 115.238 24.3789 115.238 23.5664V23.2617L116.727 23.5312C117.578 22.4141 118.625 21.5586 119.867 20.9648C120.977 20.4336 122.227 20.168 123.617 20.168C127.039 20.168 128.75 22.3945 128.75 26.8477C128.75 27.1289 128.727 27.6562 128.68 28.4297C128.641 29.1953 128.504 30.1523 128.27 31.3008C128.043 32.4414 127.809 33.4062 127.566 34.1953Z" fill="#264A58"/>
</svg>
