<svg width="142" height="46" viewBox="0 0 142 46" fill="none" xmlns="http://www.w3.org/2000/svg">
<path d="M120.562 17.9997H124.762L125.082 20.1197C125.829 19.293 126.522 18.6797 127.162 18.2797C127.829 17.8797 128.602 17.6797 129.482 17.6797C129.856 17.6797 130.202 17.7197 130.522 17.7997L130.162 22.6397C129.762 22.5064 129.336 22.4397 128.882 22.4397C128.242 22.4397 127.669 22.5864 127.162 22.8797C126.656 23.173 126.056 23.6664 125.362 24.3597V37.9997H120.562V17.9997Z" fill="#2D5F4A"/>
<path d="M112.203 10H117.003V14.96H112.203V10ZM112.203 18H117.003V38H112.203V18Z" fill="#2D5F4A"/>
<path d="M102.003 17.6797C104.136 17.6797 105.763 18.3464 106.882 19.6797C108.002 20.9864 108.562 22.7597 108.562 24.9997V37.9997H103.763V25.6397C103.763 24.333 103.549 23.333 103.122 22.6397C102.696 21.9464 101.989 21.5997 101.003 21.5997C100.016 21.5997 99.2558 21.893 98.7225 22.4797C98.2158 23.0397 97.9625 23.8797 97.9625 24.9997V37.9997H93.1625V25.6397C93.1625 22.9464 92.2558 21.5997 90.4425 21.5997C89.1892 21.5997 88.1625 22.173 87.3625 23.3197V37.9997H82.5625V17.9997H86.6425L86.8425 19.5997C88.0692 18.3197 89.6292 17.6797 91.5225 17.6797C92.6158 17.6797 93.5892 17.9064 94.4425 18.3597C95.2958 18.813 95.9625 19.453 96.4425 20.2797C97.0825 19.453 97.8692 18.813 98.8025 18.3597C99.7625 17.9064 100.829 17.6797 102.003 17.6797Z" fill="#2D5F4A"/>
<path d="M72.5759 17.68C74.5759 17.68 76.0959 18.3467 77.1359 19.68C78.2026 20.9867 78.7359 22.76 78.7359 25V38H73.9359V25.64C73.9359 22.9467 73.0293 21.6 71.2159 21.6C69.9626 21.6 68.9359 22.1733 68.1359 23.32V38H63.3359V8H68.1359V19.16C69.3359 18.1733 70.8159 17.68 72.5759 17.68Z" fill="#2D5F4A"/>
<path d="M53.6888 38.3997C52.5954 38.3997 51.5954 38.2797 50.6888 38.0397C49.8088 37.8264 48.9021 37.4797 47.9688 36.9997L48.4087 32.7597C50.2754 34.0397 51.9154 34.6797 53.3288 34.6797C54.2354 34.6797 54.9287 34.5064 55.4087 34.1597C55.8887 33.813 56.1287 33.333 56.1287 32.7197C56.1287 32.0797 55.9021 31.5597 55.4487 31.1597C55.0221 30.733 54.1688 30.213 52.8888 29.5997C51.1821 28.773 49.9421 27.933 49.1688 27.0797C48.4221 26.1997 48.0488 24.9997 48.0488 23.4797C48.0488 21.7464 48.6621 20.3464 49.8888 19.2797C51.1154 18.213 52.7688 17.6797 54.8488 17.6797C56.7154 17.6797 58.4621 18.173 60.0887 19.1597L59.6488 23.2797C58.8754 22.613 58.1288 22.1064 57.4088 21.7597C56.7154 21.413 55.9688 21.2397 55.1688 21.2397C54.3954 21.2397 53.7687 21.413 53.2887 21.7597C52.8354 22.0797 52.6087 22.5464 52.6087 23.1597C52.6087 23.773 52.8488 24.2797 53.3288 24.6797C53.8354 25.053 54.8354 25.6264 56.3288 26.3997C57.8221 27.173 58.9154 28.0264 59.6087 28.9597C60.3287 29.8664 60.6888 31.053 60.6888 32.5197C60.6888 34.333 60.0487 35.773 58.7687 36.8397C57.5154 37.8797 55.8221 38.3997 53.6888 38.3997Z" fill="#2D5F4A"/>
<path d="M35.695 38.3997C34.2017 38.3997 32.935 37.9197 31.895 36.9597C30.8817 35.973 30.375 34.5997 30.375 32.8397C30.375 30.9997 30.9217 29.533 32.015 28.4397C33.135 27.3197 34.415 26.5197 35.855 26.0397C37.3217 25.5597 38.655 25.293 39.855 25.2397C39.855 24.0664 39.6417 23.2264 39.215 22.7197C38.7883 22.213 38.055 21.9597 37.015 21.9597C36.215 21.9597 35.4417 22.093 34.695 22.3597C33.9483 22.5997 33.1083 22.973 32.175 23.4797L31.855 19.4397C33.9883 18.2664 36.135 17.6797 38.295 17.6797C40.295 17.6797 41.855 18.2797 42.975 19.4797C44.1217 20.653 44.695 22.5197 44.695 25.0797V31.1197C44.695 32.1064 44.735 32.8264 44.815 33.2797C44.895 33.733 45.015 34.0264 45.175 34.1597C45.3617 34.2664 45.6417 34.3197 46.015 34.3197H46.655L46.335 38.3997H44.215C43.4683 38.3997 42.7483 38.1864 42.055 37.7597C41.3883 37.333 40.895 36.773 40.575 36.0797C39.855 36.853 39.1217 37.4397 38.375 37.8397C37.6283 38.213 36.735 38.3997 35.695 38.3997ZM37.335 34.5997C38.2417 34.5997 39.095 34.1197 39.895 33.1597V28.5997C38.615 28.7597 37.5483 29.1464 36.695 29.7597C35.8417 30.3464 35.415 31.213 35.415 32.3597C35.415 33.133 35.5883 33.7064 35.935 34.0797C36.2817 34.4264 36.7483 34.5997 37.335 34.5997Z" fill="#2D5F4A"/>
<path d="M11 10H15.88V38H11V10ZM16.08 23.2L24.52 10H30.28L21.6 23.2L30.28 38H24.52L16.08 23.2Z" fill="#2D5F4A"/>
</svg>
