<svg width="142" height="46" viewBox="0 0 142 46" fill="none" xmlns="http://www.w3.org/2000/svg">
<path d="M17.688 36.648C16.8987 36.648 16.2053 36.584 15.608 36.456C15.0107 36.328 14.488 36.0187 14.04 35.528C13.6133 35.0373 13.4 34.28 13.4 33.256C13.4 31.8267 13.8267 29.9067 14.68 27.496C15.5547 25.0853 16.696 22.664 18.104 20.232C17.0373 20.296 16.1947 20.456 15.576 20.712C14.9573 20.968 14.552 21.3627 14.36 21.896C14.4453 21.896 14.5307 22.0027 14.616 22.216C14.7227 22.4293 14.776 22.6533 14.776 22.888C14.776 23.272 14.6053 23.5813 14.264 23.816C13.9227 24.0293 13.496 24.136 12.984 24.136C12.3867 24.136 11.9067 23.976 11.544 23.656C11.1813 23.336 11 22.8773 11 22.28C11 21.5547 11.2773 20.8933 11.832 20.296C12.408 19.6987 13.1973 19.2293 14.2 18.888C15.2027 18.5253 16.312 18.344 17.528 18.344C17.976 18.344 18.5307 18.376 19.192 18.44C20.9413 15.6667 22.7867 13.4053 24.728 11.656C26.6907 9.88533 28.5573 9 30.328 9C31.352 9 32.1947 9.14933 32.856 9.448L27.832 33H23.224L25.688 21.384C24.8987 21.0213 24.1733 20.7547 23.512 20.584C22.8507 20.4133 22.1467 20.296 21.4 20.232C20.184 22.856 19.1813 25.544 18.392 28.296C17.624 31.0267 17.24 33.2133 17.24 34.856C17.24 35.6667 17.3893 36.264 17.688 36.648ZM27.832 11.272C26.9147 11.7627 25.9547 12.68 24.952 14.024C23.9707 15.3467 23.0107 16.9573 22.072 18.856C23.608 19.1547 24.9093 19.528 25.976 19.976L27.832 11.272Z" fill="white"/>
<path d="M35.255 33.192C34.231 33.192 33.399 32.872 32.759 32.232C32.1403 31.592 31.831 30.632 31.831 29.352C31.831 28.8187 31.9163 28.1253 32.087 27.272L34.263 17H38.871L36.567 27.88C36.503 28.2 36.471 28.4987 36.471 28.776C36.471 29.6507 36.791 30.088 37.431 30.088C38.0283 30.088 38.5403 29.8427 38.967 29.352C39.3937 28.84 39.735 28.1467 39.991 27.272L42.167 17H46.775L44.471 27.88C44.3857 28.2 44.343 28.5413 44.343 28.904C44.343 29.3307 44.439 29.64 44.631 29.832C44.8443 30.0027 45.1857 30.088 45.655 30.088C46.2523 30.088 46.7643 29.832 47.191 29.32C47.639 28.808 47.991 28.1253 48.247 27.272H49.591C48.8017 29.576 47.8203 31.144 46.647 31.976C45.495 32.7867 44.3323 33.192 43.159 33.192C42.2417 33.192 41.5057 32.936 40.951 32.424C40.4177 31.912 40.0977 31.1547 39.991 30.152C39.2657 31.3253 38.4977 32.1253 37.687 32.552C36.8977 32.9787 36.087 33.192 35.255 33.192Z" fill="white"/>
<path d="M51.8913 33.192C50.8672 33.192 50.0033 33 49.2993 32.616C48.5953 32.2107 48.0726 31.6987 47.7313 31.08C47.3899 30.44 47.2192 29.7787 47.2192 29.096C47.2192 28.392 47.3899 27.784 47.7313 27.272C48.0513 26.7387 48.4459 26.3547 48.9152 26.12C49.7472 24.6267 50.4726 23.1227 51.0913 21.608C51.7099 20.072 52.2966 18.4187 52.8512 16.648L57.5872 16.008C57.6939 18.7387 57.8753 21.6933 58.1313 24.872C58.2379 26.152 58.2913 27.08 58.2913 27.656C58.2913 28.1467 58.2486 28.552 58.1632 28.872C59.1659 28.296 59.9339 27.7627 60.4673 27.272H61.8113C60.4459 28.8507 58.8139 30.184 56.9153 31.272C56.2966 31.9333 55.5286 32.424 54.6113 32.744C53.7153 33.0427 52.8086 33.192 51.8913 33.192ZM50.8672 30.664C51.6566 30.664 52.3179 30.4293 52.8512 29.96C53.3846 29.4907 53.6512 28.7333 53.6512 27.688C53.6512 27.048 53.5872 26.152 53.4593 25C53.2459 22.568 53.1073 20.936 53.0433 20.104C52.5312 21.7893 51.6673 23.8053 50.4513 26.152C50.9419 26.408 51.1873 26.7813 51.1873 27.272C51.1873 27.6773 51.0486 28.04 50.7713 28.36C50.5153 28.68 50.1846 28.84 49.7793 28.84C49.3312 28.84 49.0432 28.7013 48.9152 28.424C48.9152 29.192 49.0646 29.7573 49.3633 30.12C49.6833 30.4827 50.1846 30.664 50.8672 30.664Z" fill="white"/>
<path d="M63.63 33.192C62.606 33.192 61.774 32.872 61.134 32.232C60.5153 31.592 60.206 30.632 60.206 29.352C60.206 28.8187 60.2913 28.1253 60.462 27.272L62.382 18.28H61.326L61.582 17H62.638L63.598 12.584L68.334 11.944L67.246 17H69.166L68.91 18.28H66.99L64.942 27.88C64.8567 28.2 64.814 28.5413 64.814 28.904C64.814 29.3307 64.91 29.64 65.102 29.832C65.3153 30.0027 65.6567 30.088 66.126 30.088C66.7447 30.088 67.3207 29.832 67.854 29.32C68.3873 28.7867 68.7713 28.104 69.006 27.272H70.35C69.5607 29.576 68.5473 31.144 67.31 31.976C66.0727 32.7867 64.846 33.192 63.63 33.192Z" fill="white"/>
<path d="M71.1693 17H75.7773L75.3613 18.984C76.0866 18.344 76.7372 17.8533 77.3132 17.512C77.9106 17.1707 78.5506 17 79.2333 17C79.9159 17 80.4492 17.2347 80.8333 17.704C81.2386 18.1733 81.4413 18.7387 81.4413 19.4C81.4413 20.0187 81.2386 20.5627 80.8333 21.032C80.4279 21.5013 79.8626 21.736 79.1373 21.736C78.6679 21.736 78.3479 21.6293 78.1773 21.416C78.0279 21.1813 77.9106 20.8507 77.8252 20.424C77.7612 20.1467 77.6973 19.944 77.6332 19.816C77.5692 19.688 77.4519 19.624 77.2812 19.624C76.8333 19.624 76.4492 19.72 76.1292 19.912C75.8306 20.0827 75.4359 20.392 74.9453 20.84L72.3853 33H67.7772L71.1693 17Z" fill="white"/>
<path d="M84.8645 33.192C83.6485 33.192 82.6352 32.776 81.8245 31.944C81.0138 31.112 80.6085 29.8107 80.6085 28.04C80.6085 26.4613 80.9178 24.808 81.5365 23.08C82.1765 21.3307 83.1152 19.8587 84.3525 18.664C85.6112 17.448 87.1045 16.84 88.8325 16.84C89.7072 16.84 90.3578 16.9893 90.7845 17.288C91.2112 17.5867 91.4245 17.9813 91.4245 18.472V18.696L91.7765 17H96.3845L94.0805 27.88C93.9952 28.2 93.9525 28.5413 93.9525 28.904C93.9525 29.8213 94.3898 30.28 95.2645 30.28C95.8618 30.28 96.3738 30.0027 96.8005 29.448C97.2485 28.8933 97.6005 28.168 97.8565 27.272H99.2005C98.4112 29.576 97.4298 31.144 96.2565 31.976C95.1045 32.7867 93.9418 33.192 92.7685 33.192C91.8725 33.192 91.1472 32.9467 90.5925 32.456C90.0592 31.944 89.7392 31.208 89.6325 30.248C89.0138 31.1227 88.3205 31.8373 87.5525 32.392C86.8058 32.9253 85.9098 33.192 84.8645 33.192ZM86.9445 30.088C87.4778 30.088 88.0005 29.8427 88.5125 29.352C89.0458 28.84 89.4085 28.1467 89.6005 27.272L91.1365 20.04C91.1365 19.7627 91.0298 19.496 90.8165 19.24C90.6032 18.9627 90.2725 18.824 89.8245 18.824C88.9712 18.824 88.2032 19.3253 87.5205 20.328C86.8378 21.3093 86.3045 22.504 85.9205 23.912C85.5365 25.2987 85.3445 26.5253 85.3445 27.592C85.3445 28.6587 85.4938 29.3413 85.7925 29.64C86.1125 29.9387 86.4965 30.088 86.9445 30.088Z" fill="white"/>
<path d="M101.036 33.192C100.012 33.192 99.1803 32.872 98.5403 32.232C97.9216 31.592 97.6123 30.632 97.6123 29.352C97.6123 28.8187 97.6976 28.1253 97.8682 27.272L101.292 11.24L106.028 10.6L102.348 27.88C102.263 28.2 102.22 28.5413 102.22 28.904C102.22 29.3307 102.316 29.64 102.508 29.832C102.722 30.0027 103.063 30.088 103.532 30.088C104.151 30.088 104.727 29.832 105.26 29.32C105.794 28.7867 106.178 28.104 106.412 27.272H107.756C106.967 29.576 105.954 31.144 104.716 31.976C103.479 32.7867 102.252 33.192 101.036 33.192Z" fill="white"/>
<path d="M111.743 15.272C111.039 15.272 110.442 15.0267 109.951 14.536C109.461 14.0453 109.215 13.448 109.215 12.744C109.215 12.04 109.461 11.4427 109.951 10.952C110.442 10.44 111.039 10.184 111.743 10.184C112.448 10.184 113.045 10.44 113.535 10.952C114.048 11.4427 114.303 12.04 114.303 12.744C114.303 13.448 114.048 14.0453 113.535 14.536C113.045 15.0267 112.448 15.272 111.743 15.272ZM109.567 33.192C108.543 33.192 107.712 32.872 107.072 32.232C106.453 31.592 106.144 30.632 106.144 29.352C106.144 28.8187 106.229 28.1253 106.399 27.272L108.576 17H113.184L110.88 27.88C110.794 28.2 110.752 28.5413 110.752 28.904C110.752 29.3307 110.847 29.64 111.039 29.832C111.253 30.0027 111.594 30.088 112.063 30.088C112.682 30.088 113.258 29.832 113.792 29.32C114.325 28.7867 114.709 28.104 114.944 27.272H116.287C115.498 29.576 114.485 31.144 113.247 31.976C112.01 32.7867 110.784 33.192 109.567 33.192Z" fill="white"/>
<path d="M118.771 33.192C117.555 33.192 116.541 32.776 115.731 31.944C114.92 31.112 114.515 29.8107 114.515 28.04C114.515 26.4613 114.824 24.808 115.443 23.08C116.083 21.3307 117.021 19.8587 118.259 18.664C119.517 17.448 121.011 16.84 122.739 16.84C123.613 16.84 124.264 16.9893 124.691 17.288C125.117 17.5867 125.331 17.9813 125.331 18.472V18.696L125.683 17H130.291L127.987 27.88C127.901 28.2 127.859 28.5413 127.859 28.904C127.859 29.3307 127.955 29.64 128.147 29.832C128.36 30.0027 128.701 30.088 129.171 30.088C129.469 30.088 129.704 30.0453 129.875 29.96C129.405 31.1547 128.957 31.9973 128.531 32.488C128.104 32.9573 127.485 33.192 126.675 33.192C125.8 33.192 125.085 32.936 124.531 32.424C123.997 31.8907 123.667 31.1547 123.539 30.216C122.237 32.2 120.648 33.192 118.771 33.192ZM120.851 30.088C121.384 30.088 121.907 29.8427 122.419 29.352C122.952 28.84 123.315 28.1467 123.507 27.272L125.043 20.04C125.043 19.7627 124.936 19.496 124.723 19.24C124.509 18.9627 124.179 18.824 123.731 18.824C122.877 18.824 122.109 19.3253 121.427 20.328C120.744 21.3093 120.211 22.504 119.827 23.912C119.443 25.2987 119.251 26.5253 119.251 27.592C119.251 28.6587 119.4 29.3413 119.699 29.64C120.019 29.9387 120.403 30.088 120.851 30.088Z" fill="white"/>
</svg>
