<svg width="142" height="46" viewBox="0 0 142 46" fill="none" xmlns="http://www.w3.org/2000/svg">
<path d="M108.922 39.5799V6.3125H121.002V9.90954H112.956V20.9917H120.586V24.5888H112.956V35.9829H121.002V39.5799H108.922Z" fill="#CA9339"/>
<path d="M91.5391 39.5799V6.3125H98.3797C100.722 6.3125 102.413 6.78379 103.453 7.72636C104.493 8.65508 105.047 10.2076 105.116 12.3838C105.186 14.061 105.22 15.5789 105.22 16.9373C105.22 18.2818 105.186 19.6749 105.116 21.1165C105.047 23.2789 104.486 24.8313 103.432 25.7739C102.379 26.7165 100.688 27.1878 98.3589 27.1878H95.5727V39.5799H91.5391ZM95.5727 23.5907H98.3589C99.3292 23.5907 100.015 23.4105 100.417 23.0502C100.833 22.6759 101.062 22.0937 101.103 21.3036C101.145 20.3195 101.173 19.3492 101.187 18.3927C101.214 17.4363 101.214 16.4521 101.187 15.4402C101.173 14.4145 101.145 13.3333 101.103 12.1967C101.076 11.3927 100.854 10.8105 100.438 10.4501C100.022 10.0897 99.3361 9.90954 98.3797 9.90954H95.5727V23.5907Z" fill="#CA9339"/>
<path d="M79.8008 39.8911C77.3057 39.8911 75.5038 39.3852 74.3948 38.3733C73.2859 37.3614 72.7107 35.6911 72.6691 33.3624C72.6414 31.3941 72.6206 29.5575 72.6067 27.8525C72.5929 26.1476 72.5859 24.4911 72.5859 22.8832C72.5859 21.2614 72.5929 19.6119 72.6067 17.9347C72.6206 16.2436 72.6414 14.4416 72.6691 12.5287C72.7107 10.1861 73.2859 8.51585 74.3948 7.51783C75.5038 6.50594 77.3057 6 79.8008 6C82.2681 6 84.0493 6.50594 85.1444 7.51783C86.2533 8.51585 86.8355 10.1861 86.8909 12.5287C86.9464 14.4416 86.981 16.2436 86.9949 17.9347C87.0226 19.6119 87.0365 21.2614 87.0365 22.8832C87.0365 24.505 87.0226 26.1684 86.9949 27.8733C86.981 29.5644 86.9464 31.3941 86.8909 33.3624C86.8355 35.6911 86.2533 37.3614 85.1444 38.3733C84.0493 39.3852 82.2681 39.8911 79.8008 39.8911ZM79.8008 36.502C80.9236 36.502 81.7067 36.2872 82.1503 35.8575C82.6077 35.4278 82.8434 34.6515 82.8572 33.5288C82.9266 31.5466 82.9751 29.6961 83.0028 27.9773C83.0305 26.2584 83.0444 24.5882 83.0444 22.9664C83.0444 21.3307 83.0305 19.6535 83.0028 17.9347C82.9751 16.202 82.9266 14.3446 82.8572 12.3624C82.8434 11.2535 82.6077 10.4772 82.1503 10.0337C81.7067 9.59011 80.9236 9.36832 79.8008 9.36832C78.678 9.36832 77.8879 9.59011 77.4305 10.0337C76.9731 10.4772 76.7305 11.2535 76.7028 12.3624C76.6473 14.303 76.6057 16.1258 76.578 17.8307C76.5503 19.5357 76.5364 21.206 76.5364 22.8416C76.5364 24.4773 76.5503 26.1614 76.578 27.8941C76.6057 29.6268 76.6473 31.505 76.7028 33.5288C76.7305 34.6515 76.9731 35.4278 77.4305 35.8575C77.8879 36.2872 78.678 36.502 79.8008 36.502Z" fill="#CA9339"/>
<path d="M55.0703 39.5799V6.3125H61.8693C64.2119 6.3125 65.903 6.78379 66.9426 7.72636C67.9961 8.65508 68.5575 10.2076 68.6268 12.3838C68.6684 13.562 68.6961 14.6293 68.7099 15.5858C68.7238 16.5284 68.7238 17.4432 68.7099 18.3303C68.6961 19.2175 68.6684 20.167 68.6268 21.1789C68.5713 22.5927 68.308 23.7363 67.8367 24.6096C67.3792 25.4828 66.6723 26.1343 65.7159 26.564L69.2297 39.5799H64.9674L61.8901 27.2294H59.104V39.5799H55.0703ZM59.104 23.6323H61.8485C62.8188 23.6323 63.5119 23.4521 63.9278 23.0917C64.3436 22.7313 64.5654 22.1492 64.5931 21.3452C64.6347 20.2363 64.6624 19.1967 64.6763 18.2264C64.704 17.2561 64.7109 16.2858 64.6971 15.3155C64.6971 14.3452 64.6624 13.3056 64.5931 12.1967C64.5515 11.3927 64.3228 10.8105 63.907 10.4501C63.505 10.0897 62.8258 9.90954 61.8693 9.90954H59.104V23.6323Z" fill="#CA9339"/>
<path d="M43.4494 39.8918C40.9543 39.8918 39.1593 39.3997 38.0642 38.4155C36.9692 37.4314 36.4078 35.8165 36.38 33.571C36.3246 29.0106 36.2969 24.4709 36.2969 19.9521C36.2969 15.4194 36.3246 10.8729 36.38 6.3125H40.4137C40.3721 9.34815 40.3444 12.4115 40.3305 15.5026C40.3305 18.5798 40.3375 21.664 40.3513 24.7551C40.3652 27.8462 40.3791 30.9096 40.3929 33.9452C40.3929 34.8323 40.6286 35.4769 41.0999 35.8789C41.5711 36.267 42.3543 36.4611 43.4494 36.4611C44.5444 36.4611 45.3207 36.267 45.7781 35.8789C46.2494 35.4769 46.485 34.8323 46.485 33.9452C46.5127 30.9096 46.5335 27.8462 46.5474 24.7551C46.5613 21.664 46.5682 18.5798 46.5682 15.5026C46.5682 12.4115 46.5405 9.34815 46.485 6.3125H50.5187C50.5741 10.8729 50.6018 15.4194 50.6018 19.9521C50.6157 24.4709 50.588 29.0106 50.5187 33.571C50.491 35.8165 49.9296 37.4314 48.8345 38.4155C47.7533 39.3997 45.9583 39.8918 43.4494 39.8918Z" fill="#CA9339"/>
<path d="M21 39.5779V6.31055H33.0802V9.90758H25.0337V20.9898H32.6644V24.5868H25.0337V35.9809H33.0802V39.5779H21Z" fill="#CA9339"/>
</svg>
