<svg width="34" height="25" viewBox="0 0 34 25" fill="none" xmlns="http://www.w3.org/2000/svg">
<path d="M8.0004 10.0028C7.63354 10.0028 7.28149 10.0573 6.93108 10.107C7.04459 9.73505 7.1614 9.35669 7.34894 9.01681C7.53648 8.52302 7.82931 8.09497 8.12049 7.6637C8.36397 7.19717 8.79334 6.88134 9.1092 6.48214C9.43987 6.09416 9.89062 5.83605 10.2476 5.5138C10.598 5.17713 11.057 5.00879 11.4222 4.77152C11.8039 4.55829 12.1362 4.32262 12.4915 4.2104L13.3782 3.85449L14.158 3.53865L13.3601 0.431641L12.378 0.662502C12.0638 0.739456 11.6805 0.829235 11.2445 0.93665C10.7987 1.01681 10.3233 1.23645 9.79356 1.43685C9.27042 1.66451 8.66502 1.81841 8.1024 2.18394C7.53648 2.53344 6.88338 2.82523 6.30759 3.29336C5.7499 3.77593 5.07705 4.19437 4.58023 4.80839C4.03735 5.38234 3.50104 5.98515 3.08483 6.67132C2.60282 7.32543 2.27544 8.04366 1.92997 8.75388C1.6174 9.4641 1.3657 10.1904 1.16006 10.8958C0.770171 12.3098 0.59579 13.6533 0.528341 14.8028C0.472407 15.9539 0.505309 16.911 0.574404 17.6036C0.59908 17.9306 0.645143 18.2481 0.678045 18.4677L0.719172 18.737L0.761945 18.7274C1.05455 20.0594 1.72812 21.2835 2.70475 22.258C3.68138 23.2325 4.92116 23.9176 6.28067 24.2342C7.64018 24.5507 9.06387 24.4857 10.387 24.0466C11.7102 23.6075 12.8788 22.8124 13.7576 21.7531C14.6364 20.6939 15.1896 19.4138 15.3531 18.061C15.5165 16.7081 15.2837 15.3379 14.6814 14.1086C14.0791 12.8794 13.132 11.8414 11.9497 11.1148C10.7674 10.3882 9.39817 10.0027 8.0004 10.0028ZM26.0965 10.0028C25.7297 10.0028 25.3776 10.0573 25.0272 10.107C25.1407 9.73505 25.2575 9.35669 25.4451 9.01681C25.6326 8.52302 25.9254 8.09497 26.2166 7.6637C26.4601 7.19717 26.8895 6.88134 27.2053 6.48214C27.536 6.09416 27.9868 5.83605 28.3437 5.5138C28.6942 5.17713 29.1531 5.00879 29.5184 4.77152C29.9 4.55829 30.2323 4.32262 30.5877 4.2104L31.4744 3.85449L32.2542 3.53865L31.4563 0.431641L30.4742 0.662502C30.1599 0.739456 29.7766 0.829235 29.3407 0.93665C28.8949 1.01681 28.4194 1.23645 27.8897 1.43685C27.3682 1.66611 26.7612 1.81841 26.1985 2.18555C25.6326 2.53505 24.9795 2.82683 24.4037 3.29497C23.846 3.77753 23.1732 4.19597 22.6764 4.80839C22.1335 5.38234 21.5972 5.98515 21.181 6.67132C20.699 7.32543 20.3716 8.04366 20.0261 8.75388C19.7135 9.4641 19.4618 10.1904 19.2562 10.8958C18.8663 12.3098 18.6919 13.6533 18.6245 14.8028C18.5685 15.9539 18.6014 16.911 18.6705 17.6036C18.6952 17.9306 18.7413 18.2481 18.7742 18.4677L18.8153 18.737L18.8581 18.7274C19.1507 20.0594 19.8243 21.2835 20.8009 22.258C21.7775 23.2325 23.0173 23.9176 24.3768 24.2342C25.7363 24.5507 27.16 24.4857 28.4832 24.0466C29.8063 23.6075 30.9749 22.8124 31.8538 21.7531C32.7326 20.6939 33.2857 19.4138 33.4492 18.061C33.6127 16.7081 33.3798 15.3379 32.7775 14.1086C32.1752 12.8794 31.2282 11.8414 30.0459 11.1148C28.8635 10.3882 27.4943 10.0027 26.0965 10.0028Z" fill="#FFDEC2"/>
</svg>
