<svg width="142" height="46" viewBox="0 0 142 46" fill="none" xmlns="http://www.w3.org/2000/svg">
<path d="M28.988 10.764V26.676L40.616 10.764L40.904 11.016L34.46 19.8L44.036 35.964H40.688L32.624 22.32L28.988 27.324V35.964H26V10.764H28.988Z" fill="#9C500A"/>
<path d="M48.286 27.18C48.286 30.156 48.802 32.34 49.834 33.732C50.89 35.124 52.27 35.82 53.974 35.82C56.374 35.82 58.51 35.46 60.382 34.74L60.49 34.992C58.57 35.736 56.398 36.108 53.974 36.108C51.574 36.108 49.618 35.388 48.106 33.948C46.594 32.508 45.838 30.288 45.838 27.288C45.838 24.288 46.63 21.96 48.214 20.304C49.798 18.648 51.814 17.82 54.262 17.82C56.23 17.82 57.886 18.408 59.23 19.584C60.574 20.76 61.246 22.5 61.246 24.804C61.246 24.924 61.246 25.044 61.246 25.164H48.394C48.322 25.812 48.286 26.484 48.286 27.18ZM58.798 24.876C58.774 22.572 58.33 20.868 57.466 19.764C56.602 18.66 55.486 18.108 54.118 18.108C52.75 18.108 51.526 18.708 50.446 19.908C49.39 21.108 48.718 22.764 48.43 24.876H58.798Z" fill="#9C500A"/>
<path d="M69.589 19.512V18.756C68.509 19.188 67.525 20.064 66.637 21.384C65.749 22.68 65.281 23.904 65.233 25.056V35.964H62.713V17.964H65.233V23.688C65.617 22.296 66.349 20.988 67.429 19.764C68.509 18.516 69.733 17.868 71.101 17.82H71.245C71.725 17.82 72.121 17.988 72.433 18.324C72.769 18.636 72.937 19.032 72.937 19.512C72.937 19.992 72.769 20.388 72.433 20.7C72.121 21.012 71.725 21.168 71.245 21.168C70.765 21.168 70.369 21.012 70.057 20.7C69.745 20.388 69.589 19.992 69.589 19.512Z" fill="#9C500A"/>
<path d="M89.4286 35.964C87.7966 35.964 86.6806 35.652 86.0806 35.028C85.5286 34.5 85.2526 34.044 85.2526 33.66V32.904C84.0766 35.04 82.1926 36.108 79.6006 36.108C76.5766 36.108 74.8606 34.74 74.4526 32.004C74.4046 31.716 74.3806 31.428 74.3806 31.14C74.3806 30.828 74.4286 30.492 74.5246 30.132C74.6206 29.772 74.8966 29.376 75.3526 28.944C76.2646 28.08 78.2686 27.552 81.3646 27.36C82.1326 27.288 82.8406 27.252 83.4886 27.252C84.1366 27.252 84.7246 27.276 85.2526 27.324V21.348C85.2046 21.324 85.2046 21.216 85.2526 21.024C85.3006 20.808 85.2526 20.544 85.1086 20.232C84.9886 19.896 84.8206 19.572 84.6046 19.26C84.3886 18.948 84.0046 18.684 83.4526 18.468C82.9006 18.228 82.1806 18.108 81.2926 18.108C80.4046 18.108 79.3606 18.276 78.1606 18.612C76.9846 18.924 76.1206 19.236 75.5686 19.548L75.4246 19.296C77.5606 18.312 79.7326 17.82 81.9406 17.82C84.4126 17.82 86.0446 18.264 86.8366 19.152C87.4606 19.848 87.7726 20.58 87.7726 21.348V33.408C87.7726 34.104 87.9046 34.644 88.1686 35.028C88.4566 35.388 88.7446 35.58 89.0326 35.604L89.4286 35.676H90.5446V35.964H89.4286ZM80.1766 35.82C81.4486 35.82 82.5886 35.388 83.5966 34.524C84.6286 33.636 85.1806 32.784 85.2526 31.968V27.612C84.6046 27.564 83.9446 27.54 83.2726 27.54C82.6246 27.54 81.9766 27.576 81.3286 27.648C79.5046 27.864 78.3166 28.272 77.7646 28.872C77.2126 29.472 76.9366 30.3 76.9366 31.356C76.9366 31.548 76.9486 31.764 76.9726 32.004C77.1886 34.548 78.2566 35.82 80.1766 35.82Z" fill="#9C500A"/>
<path d="M97.8006 35.964C95.6886 35.964 94.3566 35.412 93.8046 34.308C93.6846 34.068 93.6246 33.852 93.6246 33.66V9H96.1446V33.408C96.1446 34.104 96.2766 34.644 96.5406 35.028C96.8286 35.388 97.1166 35.58 97.4046 35.604L97.8006 35.676H98.9166V35.964H97.8006Z" fill="#9C500A"/>
<path d="M115.796 35.964C114.164 35.964 113.048 35.652 112.448 35.028C111.896 34.5 111.62 34.044 111.62 33.66V32.904C110.444 35.04 108.56 36.108 105.968 36.108C102.944 36.108 101.228 34.74 100.82 32.004C100.772 31.716 100.748 31.428 100.748 31.14C100.748 30.828 100.796 30.492 100.892 30.132C100.988 29.772 101.264 29.376 101.72 28.944C102.632 28.08 104.636 27.552 107.732 27.36C108.5 27.288 109.208 27.252 109.856 27.252C110.504 27.252 111.092 27.276 111.62 27.324V21.348C111.572 21.324 111.572 21.216 111.62 21.024C111.668 20.808 111.62 20.544 111.476 20.232C111.356 19.896 111.188 19.572 110.972 19.26C110.756 18.948 110.372 18.684 109.82 18.468C109.268 18.228 108.548 18.108 107.66 18.108C106.772 18.108 105.728 18.276 104.528 18.612C103.352 18.924 102.488 19.236 101.936 19.548L101.792 19.296C103.928 18.312 106.1 17.82 108.308 17.82C110.78 17.82 112.412 18.264 113.204 19.152C113.828 19.848 114.14 20.58 114.14 21.348V33.408C114.14 34.104 114.272 34.644 114.536 35.028C114.824 35.388 115.112 35.58 115.4 35.604L115.796 35.676H116.912V35.964H115.796ZM106.544 35.82C107.816 35.82 108.956 35.388 109.964 34.524C110.996 33.636 111.548 32.784 111.62 31.968V27.612C110.972 27.564 110.312 27.54 109.64 27.54C108.992 27.54 108.344 27.576 107.696 27.648C105.872 27.864 104.684 28.272 104.132 28.872C103.58 29.472 103.304 30.3 103.304 31.356C103.304 31.548 103.316 31.764 103.34 32.004C103.556 34.548 104.624 35.82 106.544 35.82Z" fill="#9C500A"/>
<path d="M28.988 10.764V26.676L40.616 10.764L40.904 11.016L34.46 19.8L44.036 35.964H40.688L32.624 22.32L28.988 27.324V35.964H26V10.764H28.988Z" stroke="#9C500A" stroke-width="0.25"/>
<path d="M48.286 27.18C48.286 30.156 48.802 32.34 49.834 33.732C50.89 35.124 52.27 35.82 53.974 35.82C56.374 35.82 58.51 35.46 60.382 34.74L60.49 34.992C58.57 35.736 56.398 36.108 53.974 36.108C51.574 36.108 49.618 35.388 48.106 33.948C46.594 32.508 45.838 30.288 45.838 27.288C45.838 24.288 46.63 21.96 48.214 20.304C49.798 18.648 51.814 17.82 54.262 17.82C56.23 17.82 57.886 18.408 59.23 19.584C60.574 20.76 61.246 22.5 61.246 24.804C61.246 24.924 61.246 25.044 61.246 25.164H48.394C48.322 25.812 48.286 26.484 48.286 27.18ZM58.798 24.876C58.774 22.572 58.33 20.868 57.466 19.764C56.602 18.66 55.486 18.108 54.118 18.108C52.75 18.108 51.526 18.708 50.446 19.908C49.39 21.108 48.718 22.764 48.43 24.876H58.798Z" stroke="#9C500A" stroke-width="0.25"/>
<path d="M69.589 19.512V18.756C68.509 19.188 67.525 20.064 66.637 21.384C65.749 22.68 65.281 23.904 65.233 25.056V35.964H62.713V17.964H65.233V23.688C65.617 22.296 66.349 20.988 67.429 19.764C68.509 18.516 69.733 17.868 71.101 17.82H71.245C71.725 17.82 72.121 17.988 72.433 18.324C72.769 18.636 72.937 19.032 72.937 19.512C72.937 19.992 72.769 20.388 72.433 20.7C72.121 21.012 71.725 21.168 71.245 21.168C70.765 21.168 70.369 21.012 70.057 20.7C69.745 20.388 69.589 19.992 69.589 19.512Z" stroke="#9C500A" stroke-width="0.25"/>
<path d="M89.4286 35.964C87.7966 35.964 86.6806 35.652 86.0806 35.028C85.5286 34.5 85.2526 34.044 85.2526 33.66V32.904C84.0766 35.04 82.1926 36.108 79.6006 36.108C76.5766 36.108 74.8606 34.74 74.4526 32.004C74.4046 31.716 74.3806 31.428 74.3806 31.14C74.3806 30.828 74.4286 30.492 74.5246 30.132C74.6206 29.772 74.8966 29.376 75.3526 28.944C76.2646 28.08 78.2686 27.552 81.3646 27.36C82.1326 27.288 82.8406 27.252 83.4886 27.252C84.1366 27.252 84.7246 27.276 85.2526 27.324V21.348C85.2046 21.324 85.2046 21.216 85.2526 21.024C85.3006 20.808 85.2526 20.544 85.1086 20.232C84.9886 19.896 84.8206 19.572 84.6046 19.26C84.3886 18.948 84.0046 18.684 83.4526 18.468C82.9006 18.228 82.1806 18.108 81.2926 18.108C80.4046 18.108 79.3606 18.276 78.1606 18.612C76.9846 18.924 76.1206 19.236 75.5686 19.548L75.4246 19.296C77.5606 18.312 79.7326 17.82 81.9406 17.82C84.4126 17.82 86.0446 18.264 86.8366 19.152C87.4606 19.848 87.7726 20.58 87.7726 21.348V33.408C87.7726 34.104 87.9046 34.644 88.1686 35.028C88.4566 35.388 88.7446 35.58 89.0326 35.604L89.4286 35.676H90.5446V35.964H89.4286ZM80.1766 35.82C81.4486 35.82 82.5886 35.388 83.5966 34.524C84.6286 33.636 85.1806 32.784 85.2526 31.968V27.612C84.6046 27.564 83.9446 27.54 83.2726 27.54C82.6246 27.54 81.9766 27.576 81.3286 27.648C79.5046 27.864 78.3166 28.272 77.7646 28.872C77.2126 29.472 76.9366 30.3 76.9366 31.356C76.9366 31.548 76.9486 31.764 76.9726 32.004C77.1886 34.548 78.2566 35.82 80.1766 35.82Z" stroke="#9C500A" stroke-width="0.25"/>
<path d="M97.8006 35.964C95.6886 35.964 94.3566 35.412 93.8046 34.308C93.6846 34.068 93.6246 33.852 93.6246 33.66V9H96.1446V33.408C96.1446 34.104 96.2766 34.644 96.5406 35.028C96.8286 35.388 97.1166 35.58 97.4046 35.604L97.8006 35.676H98.9166V35.964H97.8006Z" stroke="#9C500A" stroke-width="0.25"/>
<path d="M115.796 35.964C114.164 35.964 113.048 35.652 112.448 35.028C111.896 34.5 111.62 34.044 111.62 33.66V32.904C110.444 35.04 108.56 36.108 105.968 36.108C102.944 36.108 101.228 34.74 100.82 32.004C100.772 31.716 100.748 31.428 100.748 31.14C100.748 30.828 100.796 30.492 100.892 30.132C100.988 29.772 101.264 29.376 101.72 28.944C102.632 28.08 104.636 27.552 107.732 27.36C108.5 27.288 109.208 27.252 109.856 27.252C110.504 27.252 111.092 27.276 111.62 27.324V21.348C111.572 21.324 111.572 21.216 111.62 21.024C111.668 20.808 111.62 20.544 111.476 20.232C111.356 19.896 111.188 19.572 110.972 19.26C110.756 18.948 110.372 18.684 109.82 18.468C109.268 18.228 108.548 18.108 107.66 18.108C106.772 18.108 105.728 18.276 104.528 18.612C103.352 18.924 102.488 19.236 101.936 19.548L101.792 19.296C103.928 18.312 106.1 17.82 108.308 17.82C110.78 17.82 112.412 18.264 113.204 19.152C113.828 19.848 114.14 20.58 114.14 21.348V33.408C114.14 34.104 114.272 34.644 114.536 35.028C114.824 35.388 115.112 35.58 115.4 35.604L115.796 35.676H116.912V35.964H115.796ZM106.544 35.82C107.816 35.82 108.956 35.388 109.964 34.524C110.996 33.636 111.548 32.784 111.62 31.968V27.612C110.972 27.564 110.312 27.54 109.64 27.54C108.992 27.54 108.344 27.576 107.696 27.648C105.872 27.864 104.684 28.272 104.132 28.872C103.58 29.472 103.304 30.3 103.304 31.356C103.304 31.548 103.316 31.764 103.34 32.004C103.556 34.548 104.624 35.82 106.544 35.82Z" stroke="#9C500A" stroke-width="0.25"/>
</svg>
