<svg width="142" height="46" viewBox="0 0 142 46" fill="none" xmlns="http://www.w3.org/2000/svg">
<path d="M123.562 6H128.939C130.688 6 132 6.71062 132.875 8.13186C133.749 9.55309 134.187 11.6365 134.187 14.3821V31.5338C134.187 34.2794 133.749 36.3628 132.875 37.784C132 39.2053 130.688 39.9159 128.939 39.9159H123.562V6ZM128.875 35.0708C129.451 35.0708 129.888 34.8123 130.187 34.2955C130.507 33.7787 130.667 32.9389 130.667 31.7761V14.1398C130.667 12.977 130.507 12.1372 130.187 11.6203C129.888 11.1035 129.451 10.8451 128.875 10.8451H127.083V35.0708H128.875Z" fill="#243646"/>
<path d="M109.906 6H114.322L117.746 26.3011H117.81V6H120.946V39.9159H117.33L113.106 15.1573H113.042V39.9159H109.906V6Z" fill="#243646"/>
<path d="M99.7886 6H104.557L108.205 39.9159H104.685L104.045 33.1812V33.2781H100.045L99.4046 39.9159H96.1406L99.7886 6ZM103.629 28.6752L102.061 11.9111H101.997L100.461 28.6752H103.629Z" fill="#243646"/>
<path d="M83.625 6H87.145V19.8086H90.921V6H94.441V39.9159H90.921V24.6537H87.145V39.9159H83.625V6Z" fill="#243646"/>
<path d="M70.375 6H73.895V20.2931L78.375 6H81.895L77.703 18.452L81.959 39.9159H78.279L75.303 24.7991L73.895 29.1112V39.9159H70.375V6Z" fill="#243646"/>
<path d="M60.2574 6H65.0254L68.6734 39.9159H65.1534L64.5134 33.1812V33.2781H60.5134L59.8734 39.9159H56.6094L60.2574 6ZM64.0974 28.6752L62.5294 11.9111H62.4654L60.9294 28.6752H64.0974Z" fill="#243646"/>
<path d="M44.625 6H49.841C51.6543 6 52.977 6.64602 53.809 7.93805C54.641 9.19778 55.057 11.152 55.057 13.8007V15.8841C55.057 19.4048 54.289 21.6336 52.753 22.5703V22.6672C53.6063 23.0548 54.2037 23.8462 54.545 25.0413C54.9077 26.2365 55.089 27.8354 55.089 29.838V35.7975C55.089 36.7665 55.1103 37.5579 55.153 38.1716C55.1957 38.753 55.3023 39.3345 55.473 39.9159H51.889C51.761 39.3668 51.6757 38.85 51.633 38.3654C51.5903 37.8809 51.569 37.0088 51.569 35.7491V29.5473C51.569 27.9969 51.3983 26.9148 51.057 26.3011C50.737 25.6874 50.1717 25.3805 49.361 25.3805H48.145V39.9159H44.625V6ZM49.425 20.5354C50.129 20.5354 50.6517 20.2608 50.993 19.7117C51.3557 19.1626 51.537 18.242 51.537 16.95V14.3336C51.537 13.1062 51.3877 12.2179 51.089 11.6688C50.8117 11.1197 50.3637 10.8451 49.745 10.8451H48.145V20.5354H49.425Z" fill="#243646"/>
<path d="M35.7269 10.8451H32.0469V6H42.9269V10.8451H39.2469V39.9159H35.7269V10.8451Z" fill="#243646"/>
<path d="M23.7581 10.8451H20.0781V6H30.9581V10.8451H27.2781V39.9159H23.7581V10.8451Z" fill="#243646"/>
<path d="M13.248 40.4004C11.5413 40.4004 10.24 39.6736 9.344 38.2201C8.448 36.7342 8 34.6185 8 31.873V6H11.52V32.2606C11.52 33.4234 11.6693 34.2632 11.968 34.78C12.288 35.2969 12.736 35.5553 13.312 35.5553C13.888 35.5553 14.3253 35.2969 14.624 34.78C14.944 34.2632 15.104 33.4234 15.104 32.2606V6H18.496V31.873C18.496 34.6185 18.048 36.7342 17.152 38.2201C16.256 39.6736 14.9547 40.4004 13.248 40.4004Z" fill="#243646"/>
</svg>
