<svg width="24" height="24" viewBox="0 0 24 24" fill="none" xmlns="http://www.w3.org/2000/svg">
<path fill-rule="evenodd" clip-rule="evenodd" d="M17.1961 12.5443C15.8275 13.0854 14.3503 13.4191 12.8052 13.5056C12.5388 13.5205 12.2703 13.5281 12 13.5281C11.7297 13.5281 11.4612 13.5205 11.1948 13.5056C9.64933 13.4191 8.17176 13.0852 6.80295 12.5439C3.93038 11.4079 1.53676 9.35827 0 6.76404C2.39531 2.72049 6.87231 0 12 0C17.1277 0 21.6047 2.72049 24 6.76404C22.4631 9.35856 20.0691 11.4084 17.1961 12.5443Z" fill="#FEE900"/>
<path d="M6.80475 13.5969C6.47382 13.466 6.14924 13.323 5.83161 13.1685C4.79931 13.8786 3.92664 14.763 3.26953 15.7721C4.38645 17.4872 6.12613 18.8423 8.21392 19.5933C9.20878 19.9512 10.2827 20.1719 11.4059 20.2291H12.5764C13.6993 20.1719 15.6731 21.2583 12.807 23.9999C14.8951 23.2489 19.5957 17.4874 20.7128 15.7721C20.0575 14.7659 19.1879 13.8836 18.1595 13.1745C17.8455 13.3269 17.5248 13.468 17.1979 13.5973C15.8293 14.1384 14.3521 14.4721 12.807 14.5586C12.5406 14.5735 12.2721 14.581 12.0018 14.581C11.7315 14.581 11.463 14.5735 11.1966 14.5586C9.65113 14.4721 8.17356 14.1382 6.80475 13.5969Z" fill="#FEE900"/>
<rect x="6.21484" y="5.03418" width="11.5981" height="4.04494" rx="2.02247" fill="#24262D"/>
<ellipse cx="15.2086" cy="7.03356" rx="0.759402" ry="0.741573" fill="white"/>
<ellipse cx="11.9899" cy="17.0116" rx="0.759402" ry="0.741572" fill="#FEE900"/>
<ellipse cx="8.95081" cy="7.03356" rx="0.759402" ry="0.741573" fill="white"/>
<ellipse cx="8.95081" cy="17.0116" rx="0.759402" ry="0.741572" fill="#FEE900"/>
<ellipse cx="15.025" cy="17.0116" rx="0.759402" ry="0.741572" fill="#FEE900"/>
</svg>
