<svg width="20" height="20" viewBox="0 0 20 20" fill="none" xmlns="http://www.w3.org/2000/svg">
<path d="M7.79642 17.4998C8.38403 18.0185 9.15591 18.3332 10.0013 18.3332C10.8466 18.3332 11.6185 18.0185 12.2061 17.4998M15.0013 6.6665C15.0013 5.34042 14.4745 4.06865 13.5368 3.13097C12.5991 2.19329 11.3274 1.6665 10.0013 1.6665C8.6752 1.6665 7.40343 2.19329 6.46574 3.13097C5.52806 4.06865 5.00128 5.34042 5.00128 6.6665C5.00128 9.24166 4.35167 11.0048 3.626 12.171C3.01388 13.1547 2.70783 13.6466 2.71905 13.7838C2.73147 13.9357 2.76366 13.9937 2.88609 14.0845C2.99666 14.1665 3.4951 14.1665 4.49199 14.1665H15.5106C16.5075 14.1665 17.0059 14.1665 17.1165 14.0845C17.2389 13.9937 17.2711 13.9357 17.2835 13.7838C17.2947 13.6466 16.9887 13.1547 16.3766 12.171C15.6509 11.0048 15.0013 9.24166 15.0013 6.6665Z" stroke="#0F4CA4" stroke-width="1.5" stroke-linecap="round" stroke-linejoin="round"/>
</svg>
