<svg width="36" height="36" viewBox="0 0 36 36" fill="none" xmlns="http://www.w3.org/2000/svg">
<path d="M31.5548 11.0815C30.5086 5.91773 24.8161 2.89711 19.9505 4.92773C16.823 6.23836 14.7305 9.37711 14.7305 12.7746V21.2684H23.2242C28.523 21.2684 32.6067 16.2677 31.5548 11.0815ZM29.1923 12.7915C29.1923 14.6027 26.3798 14.6027 26.3798 12.7915C26.3798 10.9802 29.1923 10.9802 29.1923 12.7915ZM17.2617 12.7915C17.2617 10.9802 20.0742 10.9802 20.0742 12.7915C20.0742 14.6027 17.2617 14.6027 17.2617 12.7915ZM21.818 12.7746C21.818 10.9577 24.6305 10.9577 24.6305 12.7746C24.6305 14.5859 21.818 14.5859 21.818 12.7746Z" fill="#0F4CA4"/>
<path d="M19.6296 33.4409C20.749 33.6996 21.9302 33.3677 22.7515 32.5577C23.4096 31.9109 24.0171 31.2077 24.5627 30.4596C25.159 29.644 24.8834 28.4459 23.989 27.9734L20.7152 26.2465C19.6409 25.6784 18.3415 25.7346 17.3121 26.3927L14.8877 27.9509C12.064 26.2859 9.71274 23.9346 8.04774 21.1109L9.60586 18.6865C10.264 17.6571 10.3202 16.3577 9.75211 15.2834L8.02524 12.0096C7.55274 11.1096 6.36024 10.8396 5.53899 11.4359C4.79086 11.9815 4.08774 12.589 3.44086 13.2471C2.63086 14.0684 2.29899 15.2496 2.55774 16.369C4.51524 24.8571 11.1415 31.4834 19.6296 33.4409Z" fill="url(#paint0_linear_2285_24)"/>
<defs>
<linearGradient id="paint0_linear_2285_24" x1="24.8795" y1="11.1177" x2="2.47009" y2="33.5257" gradientUnits="userSpaceOnUse">
<stop stop-color="#FD853A"/>
<stop offset="1" stop-color="#EC4A0A"/>
</linearGradient>
</defs>
</svg>
