<svg width="18" height="19" viewBox="0 0 18 19" fill="none" xmlns="http://www.w3.org/2000/svg">
<g id="copy-06">
<path id="Icon" d="M5.625 3.01562H10.95C12.6302 3.01562 13.4702 3.01562 14.112 3.34261C14.6765 3.63023 15.1354 4.08917 15.423 4.65365C15.75 5.29539 15.75 6.13547 15.75 7.81563V13.1406M4.65 16.5156H10.725C11.5651 16.5156 11.9851 16.5156 12.306 16.3521C12.5882 16.2083 12.8177 15.9789 12.9615 15.6966C13.125 15.3757 13.125 14.9557 13.125 14.1156V8.04062C13.125 7.20055 13.125 6.78051 12.9615 6.45964C12.8177 6.1774 12.5882 5.94793 12.306 5.80412C11.9851 5.64063 11.5651 5.64062 10.725 5.64062H4.65C3.80992 5.64062 3.38988 5.64063 3.06901 5.80412C2.78677 5.94793 2.5573 6.1774 2.41349 6.45964C2.25 6.78051 2.25 7.20055 2.25 8.04062V14.1156C2.25 14.9557 2.25 15.3757 2.41349 15.6966C2.5573 15.9789 2.78677 16.2083 3.06901 16.3521C3.38988 16.5156 3.80992 16.5156 4.65 16.5156Z" stroke="#363A44" stroke-width="1.5" stroke-linecap="round" stroke-linejoin="round"/>
</g>
</svg>
