<svg width="17" height="16" viewBox="0 0 17 16" fill="none" xmlns="http://www.w3.org/2000/svg">
<g clip-path="url(#clip0_2282_2205)">
<path d="M12.4609 6.67452L9.79428 4.00785M2.12759 14.3412L4.38384 14.0905C4.6595 14.0599 4.79733 14.0445 4.92616 14.0028C5.04045 13.9658 5.14923 13.9136 5.24952 13.8474C5.36256 13.7729 5.46062 13.6748 5.65675 13.4787L14.4609 4.67452C15.1973 3.93814 15.1973 2.74423 14.4609 2.00785C13.7246 1.27147 12.5307 1.27147 11.7943 2.00785L2.99008 10.812C2.79396 11.0082 2.6959 11.1062 2.62135 11.2193C2.55522 11.3196 2.50294 11.4283 2.46594 11.5426C2.42423 11.6715 2.40892 11.8093 2.37829 12.0849L2.12759 14.3412Z" stroke="#0F4CA4" stroke-width="1.67" stroke-linecap="round" stroke-linejoin="round"/>
</g>
<defs>
<clipPath id="clip0_2282_2205">
<rect width="16" height="16" fill="white" transform="translate(0.460938 0.0078125)"/>
</clipPath>
</defs>
</svg>
