<svg width="20" height="20" viewBox="0 0 20 20" fill="none" xmlns="http://www.w3.org/2000/svg">
<path d="M15 8.33424L11.6667 5.0009M2.08331 17.9176L4.90362 17.6042C5.24819 17.5659 5.42048 17.5468 5.58151 17.4946C5.72438 17.4484 5.86035 17.383 5.98571 17.3004C6.12702 17.2072 6.2496 17.0846 6.49475 16.8395L17.5 5.83424C18.4205 4.91376 18.4205 3.42138 17.5 2.5009C16.5795 1.58043 15.0871 1.58043 14.1667 2.5009L3.16142 13.5061C2.91626 13.7513 2.79369 13.8739 2.70051 14.0152C2.61784 14.1405 2.55249 14.2765 2.50624 14.4194C2.45411 14.5804 2.43496 14.7527 2.39668 15.0973L2.08331 17.9176Z" stroke="#0F4CA4" stroke-width="1.67" stroke-linecap="round" stroke-linejoin="round"/>
</svg>
