<svg width="40" height="37" viewBox="0 0 40 37" fill="none" xmlns="http://www.w3.org/2000/svg">
<path d="M11.6641 14.5996L18.4682 19.3625C19.0191 19.7482 19.2946 19.941 19.5943 20.0157C19.859 20.0817 20.1358 20.0817 20.4005 20.0157C20.7002 19.941 20.9757 19.7482 21.5266 19.3625L28.3307 14.5996M15.6641 25.4329H24.3307C25.7309 25.4329 26.4309 25.4329 26.9657 25.1605C27.4361 24.9208 27.8186 24.5383 28.0582 24.0679C28.3307 23.5331 28.3307 22.8331 28.3307 21.4329V16.0996C28.3307 14.6995 28.3307 13.9994 28.0582 13.4646C27.8186 12.9942 27.4361 12.6118 26.9657 12.3721C26.4309 12.0996 25.7309 12.0996 24.3307 12.0996H15.6641C14.2639 12.0996 13.5639 12.0996 13.0291 12.3721C12.5587 12.6118 12.1762 12.9942 11.9365 13.4646C11.6641 13.9994 11.6641 14.6995 11.6641 16.0996V21.4329C11.6641 22.8331 11.6641 23.5331 11.9365 24.0679C12.1762 24.5383 12.5587 24.9208 13.0291 25.1605C13.5639 25.4329 14.2639 25.4329 15.6641 25.4329Z" stroke="#8A94A6" stroke-width="1.67" stroke-linecap="round" stroke-linejoin="round"/>
</svg>
