<svg width="20" height="20" viewBox="0 0 20 20" fill="none" xmlns="http://www.w3.org/2000/svg">
<g id="file-shield-02">
<path id="Icon" d="M11.6654 9.1665H6.66536M8.33203 12.4998H6.66536M13.332 5.83317H6.66536M16.6654 8.33317V5.6665C16.6654 4.26637 16.6654 3.56631 16.3929 3.03153C16.1532 2.56112 15.7707 2.17867 15.3003 1.93899C14.7656 1.6665 14.0655 1.6665 12.6654 1.6665H7.33203C5.9319 1.6665 5.23183 1.6665 4.69706 1.93899C4.22665 2.17867 3.8442 2.56112 3.60451 3.03153C3.33203 3.56631 3.33203 4.26637 3.33203 5.6665V14.3332C3.33203 15.7333 3.33203 16.4334 3.60451 16.9681C3.8442 17.4386 4.22665 17.821 4.69706 18.0607C5.23183 18.3332 5.9319 18.3332 7.33203 18.3332H10.4154M14.9987 17.4998C14.9987 17.4998 17.4987 16.3082 17.4987 14.5209V12.4356L15.6757 11.7842C15.2377 11.6273 14.7587 11.6273 14.3207 11.7842L12.4987 12.4356V14.5209C12.4987 16.3082 14.9987 17.4998 14.9987 17.4998Z" stroke="#0F4CA4" stroke-width="1.5" stroke-linecap="round" stroke-linejoin="round"/>
</g>
</svg>
