<svg width="32" height="32" viewBox="0 0 32 32" fill="none" xmlns="http://www.w3.org/2000/svg">
<rect width="32" height="32" rx="8" fill="url(#paint0_linear_11472_141024)"/>
<g clip-path="url(#clip0_11472_141024)">
<path d="M9.21989 24.8916L10.3888 24.4686C10.9018 24.283 11.4632 24.283 11.9761 24.4686L13.0642 24.8624C13.5772 25.048 14.1386 25.048 14.6515 24.8624L15.7396 24.4686C16.2525 24.283 16.814 24.283 17.3269 24.4686L18.415 24.8624C18.9279 25.048 19.4894 25.048 20.0023 24.8624L21.0904 24.4686C21.6033 24.283 22.1648 24.283 22.6777 24.4686L23.8467 24.8916C24.0534 24.9665 24.2886 24.9056 24.4243 24.7327C24.804 24.2482 24.7839 23.4892 24.1694 23.0975C21.9658 21.6706 19.3456 20.606 16.5338 20.6173C13.7224 20.606 11.1018 21.6702 8.89821 23.0975C8.28368 23.4888 8.26364 24.2482 8.64333 24.7327C8.77903 24.9056 9.01423 24.9665 9.22095 24.8916H9.21989Z" fill="white"/>
<path d="M10.8665 10.3706C10.9853 9.38164 11.2304 8.42188 11.597 7.50781C9.12203 8.56461 7.4936 10.9918 7.32942 13.5104C7.31887 13.6788 7.38004 13.85 7.49711 13.9885C7.6184 14.132 7.73969 14.2757 7.86098 14.4206C8.03043 14.622 8.2934 14.7293 8.54266 14.6941C9.20254 14.6013 9.86067 14.4962 10.516 14.3787C10.7572 14.3359 10.9438 14.1583 11.005 13.9186C10.7695 12.745 10.7241 11.5599 10.8668 10.3702L10.8665 10.3706Z" fill="white"/>
<path d="M20.0925 10.2805C18.7506 8.14297 16.1641 6.78172 13.4845 7.02887C15.1685 8.43161 16.4053 10.272 17.0532 12.3874C17.2213 12.5695 17.4695 12.6363 17.7022 12.5597C18.3347 12.3515 18.9636 12.1311 19.5883 11.8987C19.8239 11.8108 20.0046 11.5914 20.058 11.3338C20.096 11.1488 20.1343 10.9646 20.173 10.7807C20.2099 10.6032 20.1825 10.4236 20.0932 10.2805H20.0925Z" fill="white"/>
<path d="M16.3864 20.0776L14.7091 13.4468C15.0927 13.3452 15.4748 13.2397 15.8559 13.1296C16.0971 13.0597 16.2813 12.8502 16.3341 12.5889C16.3418 12.5517 16.3492 12.5144 16.3569 12.4771C15.6693 10.3407 14.3393 8.50273 12.5432 7.19141C12.5372 7.19281 12.5309 7.19422 12.5249 7.19598C12.5189 7.19738 12.5126 7.19914 12.5066 7.2009C11.55 9.20832 11.254 11.458 11.6646 13.664C11.6889 13.6932 11.7135 13.7227 11.7377 13.7519C11.9082 13.9569 12.1701 14.0536 12.4155 14.0001C12.8033 13.9157 13.1897 13.8268 13.5753 13.734L15.1978 20.1482C15.5965 20.1046 15.993 20.0814 16.3868 20.0779L16.3864 20.0776Z" fill="white"/>
<path d="M21.0704 14.1484C19.8624 14.1484 18.8829 15.1279 18.8829 16.3359C18.8829 17.5438 19.8624 18.5233 21.0704 18.5233C22.2783 18.5233 23.2578 17.5438 23.2578 16.3359C23.2578 15.1279 22.2783 14.1484 21.0704 14.1484Z" fill="white"/>
</g>
<defs>
<linearGradient id="paint0_linear_11472_141024" x1="32" y1="0" x2="0" y2="32" gradientUnits="userSpaceOnUse">
<stop stop-color="#FD853A"/>
<stop offset="1" stop-color="#EC4A0A"/>
</linearGradient>
<clipPath id="clip0_11472_141024">
<rect width="18" height="18" fill="white" transform="translate(7 7)"/>
</clipPath>
</defs>
</svg>
