<svg width="44" height="44" viewBox="0 0 44 44" fill="none" xmlns="http://www.w3.org/2000/svg">
<path d="M27.1788 35.4309L26.0038 34.9609L23.1251 31.9646H23.9476L27.1788 35.4309Z" fill="#4187E2"/>
<path d="M25.5943 31.3748L28.708 34.8998L27.1805 35.4285L23.9493 31.9623L25.5943 31.3748Z" fill="#78879A"/>
<path d="M11.084 40.5989L10.379 40.3051L11.554 36.2514L13.0815 35.7227L11.8477 39.7176L11.084 40.5989Z" fill="#4187E2"/>
<path d="M12.3159 36.2517L11.0821 40.5991H12.5509L14.1371 35.5467L12.3159 36.2517Z" fill="#78879A"/>
<path d="M4.26774 38.0731L3.504 37.7793L4.67899 33.7256L6.20649 33.1969L4.97274 37.1918L4.26774 38.0731Z" fill="#4187E2"/>
<path d="M5.44071 33.7259L4.26572 38.0734H5.73446L7.26195 33.0797L5.44071 33.7259Z" fill="#78879A"/>
<path d="M20.8354 23.9158L28.8841 24.9733L26.2991 30.3783L18.1329 28.9095L20.8354 23.9158Z" fill="#AFB4B5"/>
<path d="M26.2989 30.3787L11.0827 35.7249L3.504 33.6687L18.1327 28.91L26.2989 30.3787Z" fill="#AFB4B5"/>
<path d="M28.8859 24.9725L29.5321 25.56L26.8884 30.9062L26.3009 30.3774L28.8859 24.9725Z" fill="#78879A"/>
<path d="M26.2983 30.3787L11.0821 35.7249V36.6649L26.8858 30.9075L26.2983 30.3787Z" fill="#4187E2"/>
<path d="M3.504 33.6678V34.4315L11.0827 36.664V35.724L3.504 33.6678Z" fill="#78879A"/>
<path d="M28.4757 7.99394H27.3595V39.8362H28.4757V7.99394Z" fill="#78879A"/>
<path d="M41.1057 18.5109C39.167 13.0471 33.997 9.16968 27.887 9.16968C21.777 9.16968 16.607 13.0471 14.6683 18.4521H41.1057V18.5109Z" fill="#78879A"/>
<path d="M37.2885 18.5109C35.9373 13.0471 32.2361 9.16968 27.8886 9.16968C23.5411 9.16968 19.8399 13.0471 18.4886 18.4521H37.2885V18.5109Z" fill="#DFE3E4"/>
<path d="M33.5851 18.5109C32.7039 13.0471 30.5301 9.16968 27.8864 9.16968C25.2427 9.16968 23.0689 13.0471 22.2464 18.4521H33.5851V18.5109Z" fill="#78879A"/>
<path d="M29.7681 18.5109C29.5331 13.0471 28.7694 9.16968 27.8881 9.16968C27.0069 9.16968 26.3019 13.0471 26.0081 18.4521H29.7681V18.5109Z" fill="#F5F4EF"/>
<path d="M14.7269 18.5115V19.2165C14.7269 20.274 15.5494 21.0965 16.6069 21.0965C17.6644 21.0965 18.4869 20.274 18.4869 19.2165V18.5115H14.7269Z" fill="#AFB4B5"/>
<path d="M18.4886 18.5115V19.2165C18.4886 20.274 19.3111 21.0965 20.3686 21.0965C21.4261 21.0965 22.2486 20.274 22.2486 19.2165V18.5115H18.4886Z" fill="#E0DFDB"/>
<path d="M22.2466 18.5115V19.2165C22.2466 20.274 23.0691 21.0965 24.1266 21.0965C25.1841 21.0965 26.0066 20.274 26.0066 19.2165V18.5115H22.2466ZM29.7665 18.5115V19.2165C29.7665 20.274 30.589 21.0965 31.6465 21.0965C32.704 21.0965 33.5265 20.274 33.5265 19.2165V18.5115H29.7665Z" fill="#AFB4B5"/>
<path d="M33.5863 18.5115V19.2165C33.5863 20.274 34.4088 21.0965 35.4663 21.0965C36.5238 21.0965 37.3463 20.274 37.3463 19.2165V18.5115H33.5863Z" fill="#E0DFDB"/>
<path d="M37.3441 18.5115V19.2165C37.3441 20.274 38.1666 21.0965 39.2241 21.0965C40.2816 21.0965 41.1041 20.274 41.1041 19.2165V18.5115H37.3441Z" fill="#AFB4B5"/>
<path d="M26.0081 18.5115V19.2165C26.0081 20.274 26.8306 21.0965 27.8881 21.0965C28.9456 21.0965 29.7681 20.274 29.7681 19.2165V18.5115H26.0081Z" fill="#E0DFDB"/>
<path d="M30.4719 38.66H25.3607C24.3032 38.66 23.422 39.5412 23.422 40.5987H32.4694C32.4107 39.5412 31.5294 38.66 30.4719 38.66Z" fill="#4187E2"/>
<path d="M10.4957 14.2214C12.8319 14.2214 14.7257 12.3276 14.7257 9.99148C14.7257 7.65534 12.8319 5.76152 10.4957 5.76152C8.15954 5.76152 6.26572 7.65534 6.26572 9.99148C6.26572 12.3276 8.15954 14.2214 10.4957 14.2214Z" fill="#AFB4B5"/>
<path d="M10.8499 2.9998H10.0274V5.29103H10.8499V2.9998Z" fill="#DFE3E4"/>
<path d="M7.33739 3.71355L6.62509 4.1248L7.77071 6.10907L8.48301 5.69782L7.33739 3.71355Z" fill="#DFE3E4"/>
<path d="M4.67688 6.12534L4.26572 6.83769L6.25013 7.98307L6.66129 7.27072L4.67688 6.12534Z" fill="#DFE3E4"/>
<path d="M3.50009 9.57965V10.4021H5.79133V9.57965H3.50009Z" fill="#DFE3E4"/>
<path d="M4.24509 13.0648L4.65634 13.7771L6.64061 12.6315L6.22937 11.9192L4.24509 13.0648Z" fill="#DFE3E4"/>
<path d="M6.63544 15.7878L7.34775 16.199L8.49337 14.2148L7.78106 13.8035L6.63544 15.7878Z" fill="#DFE3E4"/>
<path d="M10.0917 16.9412H10.9142V14.65H10.0917V16.9412Z" fill="#DFE3E4"/>
<path d="M13.6002 16.196L14.3125 15.7847L13.1669 13.8005L12.4546 14.2117L13.6002 16.196Z" fill="#DFE3E4"/>
<path d="M16.292 13.7726L16.7032 13.0603L14.7189 11.9147L14.3077 12.627L16.292 13.7726Z" fill="#DFE3E4"/>
<path d="M17.4415 10.3379V9.51543H15.1503V10.3379H17.4415Z" fill="#DFE3E4"/>
<path d="M16.6731 6.8332L16.2618 6.1209L14.2775 7.26651L14.6888 7.97881L16.6731 6.8332Z" fill="#DFE3E4"/>
<path d="M14.314 4.12199L13.6017 3.71074L12.456 5.695L13.1683 6.10625L14.314 4.12199Z" fill="#DFE3E4"/>
</svg>
