<svg width="142" height="46" viewBox="0 0 142 46" fill="none" xmlns="http://www.w3.org/2000/svg">
<path d="M20.6836 19.9277L28.4033 11.0293V10H32.0391V34.6865H28.4033V13.5693L19.6875 23.6299L11.0215 13.5361V34.6865H9.32812V11.5605L8 10H12.25L20.6836 19.9277Z" fill="#2E90FA"/>
<path d="M42.1826 20.1768C41.6514 20.1768 41.1865 20.1934 40.7881 20.2266C40.4007 20.2598 40.0466 20.304 39.7256 20.3594C39.4046 20.4147 39.1058 20.4811 38.8291 20.5586C38.5524 20.625 38.2757 20.6969 37.999 20.7744L37.6006 19.6953C38.5303 19.3522 39.4987 19.1087 40.5059 18.9648C41.5241 18.8099 42.487 18.7324 43.3945 18.7324C44.5566 18.7324 45.5085 18.7933 46.25 18.915C47.0026 19.0368 47.5892 19.2415 48.0098 19.5293C48.4303 19.806 48.7181 20.1823 48.873 20.6582C49.0391 21.123 49.1221 21.7096 49.1221 22.418V34.6865H43.6768C42.1937 34.6865 40.9264 34.5316 39.875 34.2217C38.8346 33.9118 37.9824 33.4967 37.3184 32.9766C36.6543 32.4453 36.1673 31.8421 35.8574 31.167C35.5475 30.4808 35.3926 29.7614 35.3926 29.0088C35.3926 28.0791 35.5365 27.2601 35.8242 26.5518C36.123 25.8434 36.5492 25.2513 37.1025 24.7754C37.6559 24.2884 38.3311 23.9232 39.1279 23.6797C39.9248 23.4251 40.8324 23.2979 41.8506 23.2979C42.404 23.2979 43.0293 23.3919 43.7266 23.5801C44.4349 23.7682 45.11 24.0505 45.752 24.4268V22.3516C45.752 22.097 45.7243 21.8424 45.6689 21.5879C45.6136 21.3223 45.4697 21.0898 45.2373 20.8906C45.0049 20.6803 44.6452 20.5088 44.1582 20.376C43.6823 20.2432 43.0238 20.1768 42.1826 20.1768ZM45.752 33.3252V25.6387C45.2207 25.3177 44.6673 25.0798 44.0918 24.9248C43.5163 24.7699 42.8799 24.6924 42.1826 24.6924C41.6292 24.6924 41.1367 24.792 40.7051 24.9912C40.2845 25.1904 39.9303 25.4727 39.6426 25.8379C39.3548 26.2031 39.1335 26.6403 38.9785 27.1494C38.8346 27.6585 38.7627 28.223 38.7627 28.8428C38.7627 29.0199 38.7682 29.2523 38.7793 29.54C38.8014 29.8278 38.8568 30.1377 38.9453 30.4697C39.0449 30.8018 39.1888 31.1393 39.377 31.4824C39.5762 31.8145 39.8529 32.1188 40.207 32.3955C40.5612 32.6722 41.0094 32.8991 41.5518 33.0762C42.0941 33.2422 42.7581 33.3252 43.5439 33.3252H45.752Z" fill="#2E90FA"/>
<path d="M62.9844 33.3916C62.265 33.7015 61.6064 33.9616 61.0088 34.1719C60.4111 34.3711 59.8522 34.5316 59.332 34.6533C58.8229 34.7751 58.3415 34.8581 57.8877 34.9023C57.4339 34.9577 57.0023 34.9854 56.5928 34.9854C55.5524 34.9854 54.7555 34.7197 54.2021 34.1885C53.6598 33.6462 53.3887 32.7718 53.3887 31.5654V19.0479H56.7588V31.0508C56.7588 31.3053 56.7809 31.5599 56.8252 31.8145C56.8805 32.0579 56.9691 32.2793 57.0908 32.4785C57.2236 32.6777 57.4007 32.8438 57.6221 32.9766C57.8434 33.0983 58.1312 33.1592 58.4854 33.1592C59.0498 33.1592 59.7028 33.0928 60.4443 32.96C61.1969 32.8161 62.0436 32.5283 62.9844 32.0967V19.0479H66.3379V34.6865H62.9844V33.3916Z" fill="#2E90FA"/>
<path d="M74.1572 20.2764C74.5999 19.9665 74.9873 19.7119 75.3193 19.5127C75.6624 19.3135 75.9668 19.1585 76.2324 19.0479C76.498 18.9261 76.7415 18.8431 76.9629 18.7988C77.1953 18.7546 77.4222 18.7324 77.6436 18.7324C78.5068 18.7324 79.1488 19.0312 79.5693 19.6289C79.9899 20.2266 80.2389 21.0732 80.3164 22.1689L77.4111 23.0322C77.3005 22.2354 77.151 21.6709 76.9629 21.3389C76.7747 21.0068 76.4814 20.8408 76.083 20.8408C75.8506 20.8408 75.5739 20.8906 75.2529 20.9902C74.943 21.0898 74.5778 21.2559 74.1572 21.4883V34.6865H70.7871V19.0479H74.1572V20.2764Z" fill="#2E90FA"/>
<path d="M86.2432 34.6865H82.873V19.0479H86.2432V34.6865ZM86.2432 16.4248H82.873V14.4492H86.2432V16.4248Z" fill="#2E90FA"/>
<path d="M96.8516 20.542H94.6104V34.6865H91.4229V20.542H89.2646V19.0479H91.4229V13.9512L94.6104 12.9883V19.0479H96.8516V20.542Z" fill="#2E90FA"/>
<path d="M103.177 34.6865H99.8066V19.0479H103.177V34.6865ZM103.177 16.4248H99.8066V14.4492H103.177V16.4248Z" fill="#2E90FA"/>
<path d="M117.139 33.3916C116.419 33.7015 115.761 33.9616 115.163 34.1719C114.565 34.3711 114.007 34.5316 113.486 34.6533C112.977 34.7751 112.496 34.8581 112.042 34.9023C111.588 34.9577 111.157 34.9854 110.747 34.9854C109.707 34.9854 108.91 34.7197 108.356 34.1885C107.814 33.6462 107.543 32.7718 107.543 31.5654V19.0479H110.913V31.0508C110.913 31.3053 110.935 31.5599 110.979 31.8145C111.035 32.0579 111.123 32.2793 111.245 32.4785C111.378 32.6777 111.555 32.8438 111.776 32.9766C111.998 33.0983 112.285 33.1592 112.64 33.1592C113.204 33.1592 113.857 33.0928 114.599 32.96C115.351 32.8161 116.198 32.5283 117.139 32.0967V19.0479H120.492V34.6865H117.139V33.3916Z" fill="#2E90FA"/>
<path d="M129.059 18.7324C129.523 18.7324 129.927 18.7546 130.271 18.7988C130.614 18.832 130.935 18.8874 131.233 18.9648C131.543 19.0423 131.848 19.1309 132.146 19.2305C132.445 19.3301 132.777 19.4408 133.143 19.5625L133.109 21.0234C132.589 20.8353 132.036 20.6693 131.449 20.5254C130.874 20.3815 130.193 20.3096 129.407 20.3096C129.241 20.3096 129.042 20.3317 128.81 20.376C128.577 20.4202 128.356 20.4977 128.146 20.6084C127.935 20.708 127.758 20.8464 127.614 21.0234C127.47 21.2005 127.398 21.4163 127.398 21.6709C127.398 21.9587 127.526 22.3073 127.78 22.7168C128.046 23.1263 128.461 23.6354 129.025 24.2441L130.802 26.2529C131.178 26.6846 131.549 27.1051 131.914 27.5146C132.29 27.9131 132.622 28.306 132.91 28.6934C133.198 29.0807 133.43 29.4681 133.607 29.8555C133.796 30.2318 133.89 30.6081 133.89 30.9844C133.89 31.7148 133.724 32.3346 133.392 32.8438C133.06 33.3529 132.628 33.7734 132.097 34.1055C131.565 34.4264 130.962 34.6589 130.287 34.8027C129.623 34.9466 128.953 35.0186 128.278 35.0186C127.338 35.0186 126.502 34.9134 125.771 34.7031C125.052 34.5039 124.371 34.2161 123.729 33.8398L123.862 32.3457C124.371 32.6113 124.925 32.8604 125.522 33.0928C126.12 33.3141 126.734 33.4248 127.365 33.4248C128.406 33.4248 129.186 33.2422 129.706 32.877C130.226 32.5117 130.486 31.9805 130.486 31.2832C130.486 30.7962 130.282 30.2871 129.872 29.7559C129.474 29.2246 128.976 28.638 128.378 27.9961L126.618 26.0205C126.153 25.4339 125.755 24.9414 125.423 24.543C125.102 24.1445 124.842 23.7904 124.643 23.4805C124.443 23.1706 124.294 22.8773 124.194 22.6006C124.106 22.3239 124.062 22.014 124.062 21.6709C124.062 21.1064 124.189 20.6361 124.443 20.2598C124.709 19.8835 125.063 19.5846 125.506 19.3633C125.96 19.1309 126.491 18.9704 127.1 18.8818C127.708 18.7822 128.361 18.7324 129.059 18.7324Z" fill="#2E90FA"/>
</svg>
