<svg width="143" height="46" viewBox="0 0 143 46" fill="none" xmlns="http://www.w3.org/2000/svg">
<path d="M139.162 11.5022L139.08 13.4663C139.08 14.1756 139.23 14.5712 139.53 14.653C139.857 14.7349 140.171 14.7758 140.471 14.7758C140.771 14.7758 141.221 14.7485 141.822 14.6939C142.394 14.6939 142.681 15.0622 142.681 15.7988C142.681 17.1901 141.685 18.2676 139.694 19.0315C139.421 19.1406 139.23 19.3861 139.121 19.768C138.957 21.4321 138.875 23.3827 138.875 25.6196C138.875 27.8566 138.957 29.3297 139.121 30.039C139.257 30.6937 139.748 31.0893 140.594 31.2257C140.785 31.2257 140.962 31.3212 141.126 31.5121C141.426 31.8668 141.576 32.2214 141.576 32.576C141.576 32.9034 141.549 33.2308 141.494 33.5581C141.44 33.8582 141.303 34.2947 141.085 34.8676C140.894 35.4132 140.635 35.9315 140.307 36.4225C140.007 36.8863 139.544 37.2955 138.916 37.6501C138.289 38.0048 137.579 38.1821 136.788 38.1821C135.424 38.1821 134.442 37.3773 133.842 35.7678C133.624 35.1404 133.515 34.3902 133.515 33.5172L133.842 22.5097C133.842 21.173 133.76 20.0818 133.597 19.2361C133.46 18.3904 132.942 17.5993 132.042 16.8627C131.66 16.5899 131.469 16.208 131.469 15.717C131.469 15.2259 131.714 14.7349 132.205 14.2438C133.706 13.3163 135.083 11.8568 136.338 9.86537C136.72 9.34705 137.198 9.08789 137.77 9.08789C138.698 9.08789 139.162 9.89265 139.162 11.5022Z" fill="#6A5B1F"/>
<path d="M126.396 16.9023C129.997 16.9023 131.797 17.9663 131.797 20.0941C131.797 20.6943 131.593 21.199 131.183 21.6082C130.801 22.0174 130.351 22.222 129.833 22.222C129.342 22.222 128.865 22.0856 128.401 21.8128C127.937 21.54 127.419 21.4036 126.846 21.4036C125.455 21.4036 124.759 21.7991 124.759 22.5902C124.759 22.9449 124.977 23.245 125.414 23.4905C128.633 25.1 130.57 26.4095 131.224 27.4188C132.015 28.5919 132.411 29.9968 132.411 31.6336C132.411 32.2338 132.275 32.9567 132.002 33.8024C131.729 34.648 131.361 35.371 130.897 35.9711C130.433 36.544 129.697 37.076 128.687 37.567C127.678 38.058 126.478 38.3036 125.086 38.3036C124.104 38.3036 123.054 38.1399 121.935 37.8125C119.671 37.1578 118.539 35.8074 118.539 33.7614C118.539 32.8066 118.812 31.9882 119.357 31.3062C119.903 30.5969 120.585 30.2423 121.403 30.2423C122.222 30.2423 122.808 30.4878 123.163 30.9789C123.19 31.0061 123.272 31.1289 123.409 31.3471C123.545 31.5654 123.668 31.7291 123.777 31.8382C124.131 32.1928 124.595 32.3701 125.168 32.3701C125.741 32.3701 126.191 32.2338 126.518 31.961C126.846 31.6609 127.01 31.2653 127.01 30.7743C127.01 30.2832 126.628 29.7785 125.864 29.2602C125.1 28.7419 124.254 28.2918 123.327 27.9099C122.426 27.5279 121.594 26.9278 120.831 26.1094C120.067 25.2637 119.685 24.2816 119.685 23.1631C119.685 21.2535 120.299 19.7395 121.526 18.621C122.781 17.4752 124.404 16.9023 126.396 16.9023Z" fill="#6A5B1F"/>
<path d="M108.489 30.7752C108.489 31.921 108.898 32.4939 109.716 32.4939C110.535 32.4939 111.19 32.071 111.681 31.2253C112.199 30.3797 112.458 29.6295 112.458 28.9747C112.458 27.7471 112.022 27.1333 111.149 27.1333C110.358 27.1333 109.716 27.5289 109.225 28.32C108.734 29.1111 108.489 29.9295 108.489 30.7752ZM117.287 24.2689L117.164 29.9568C117.164 32.2211 117.45 33.5305 118.023 33.8852C118.378 34.158 118.555 34.5126 118.555 34.9491C118.555 35.7402 118.023 36.4768 116.959 37.1588C115.923 37.8408 114.859 38.1818 113.768 38.1818C113.222 38.1818 112.813 38.059 112.54 37.8135C112.267 37.5952 112.131 37.3497 112.131 37.0769C112.131 36.3404 112.035 35.9721 111.844 35.9721C111.817 35.9721 111.64 36.1358 111.312 36.4631C111.012 36.7632 110.549 37.0769 109.921 37.4043C109.321 37.7044 108.543 37.8544 107.589 37.8544C106.661 37.8544 105.829 37.6225 105.092 37.1588C104.383 36.695 103.892 36.0948 103.619 35.3583C103.128 34.1307 102.883 32.9849 102.883 31.921C102.883 30.8571 103.046 29.8613 103.374 28.9338C103.701 28.0063 104.11 27.2561 104.601 26.6832C105.092 26.1103 105.665 25.6056 106.32 25.1692C106.975 24.7054 107.589 24.378 108.162 24.1871C108.734 23.9688 109.321 23.7915 109.921 23.6551C110.767 23.4914 111.353 23.4096 111.681 23.4096L112.09 22.8776C112.063 21.9501 111.381 21.4864 110.044 21.4864C108.734 21.4864 107.657 21.7455 106.811 22.2638C106.484 22.4821 106.156 22.5912 105.829 22.5912C105.174 22.5912 104.847 22.1002 104.847 21.1181C104.847 18.581 106.866 17.3125 110.903 17.3125C114.013 17.3125 115.964 18.3491 116.755 20.4224C117.109 21.35 117.287 22.6321 117.287 24.2689Z" fill="#6A5B1F"/>
<path d="M97.5105 18.0082L99.3928 17.9673C100.157 17.9673 100.539 18.4447 100.539 19.3995C100.539 20.3543 100.102 21.1318 99.2291 21.7319C98.3834 22.3321 97.3195 22.6594 96.0373 22.714C94.3733 22.714 93.4867 23.0414 93.3775 23.6961C93.2957 24.2144 93.2548 24.8146 93.2548 25.4966C93.2548 26.1786 93.3093 26.806 93.4185 27.3789C93.5276 27.9518 93.7322 28.5383 94.0323 29.1385C94.687 30.5025 95.9146 31.1845 97.7151 31.1845C98.5062 31.1845 99.1336 31.0208 99.5974 30.6934C100.061 30.3388 100.511 30.1615 100.948 30.1615C101.384 30.1615 101.725 30.3933 101.971 30.8571C102.216 31.2936 102.339 31.771 102.339 32.2893C102.339 34.0352 101.602 35.4811 100.129 36.6268C98.6562 37.7453 96.9785 38.3046 95.0962 38.3046C89.913 38.3046 87.3213 34.4717 87.3213 26.806L87.485 23.6552C86.5575 23.6552 86.0938 23.205 86.0938 22.3048C86.0938 21.5955 86.2984 20.8044 86.7076 19.9314C87.144 19.0585 87.6487 18.4992 88.2216 18.2537C88.3307 17.0807 88.6035 15.7985 89.04 14.4072C89.4765 12.9886 90.1039 11.7201 90.9223 10.6016C92.5318 8.39195 95.0143 7.28711 98.3698 7.28711C100.443 7.28711 101.671 7.77815 102.053 8.76023C102.435 9.71504 102.625 10.5062 102.625 11.1336C102.625 12.6067 102.162 13.3433 101.234 13.3433C100.989 13.3433 100.593 13.2069 100.048 12.9341C99.5019 12.6613 98.8472 12.5249 98.0833 12.5249C96.7466 12.5249 95.6691 13.0296 94.8507 14.0389C94.0595 15.021 93.664 16.1395 93.664 17.3944C93.664 17.749 94.0459 17.94 94.8097 17.9673C95.6009 17.9945 96.5011 18.0082 97.5105 18.0082Z" fill="#6A5B1F"/>
<path d="M67.7064 18.5395L67.7473 19.6034C67.8019 19.7944 67.8837 19.8898 67.9929 19.8898C68.102 19.8898 68.2111 19.8353 68.3202 19.7262C68.6749 19.1806 69.2614 18.6895 70.0798 18.253C70.8982 17.7893 71.6757 17.5574 72.4122 17.5574C73.5307 17.5574 74.3764 17.9939 74.9493 18.8668C75.5494 19.7398 75.9314 20.7355 76.095 21.854C76.2587 23.7636 76.3406 25.3731 76.3406 26.6826C76.3406 27.9647 76.3133 29.1514 76.2587 30.2426C76.2587 32.1795 76.6952 33.4208 77.5682 33.9664C78.0047 34.2119 78.2229 34.5256 78.2229 34.9075C78.2229 35.2622 78.1274 35.5895 77.9365 35.8896C77.5 36.5443 76.8452 37.0627 75.9723 37.4446C75.1266 37.8265 74.39 38.0311 73.7626 38.0584L72.8214 38.1402C72.003 38.1129 71.4574 37.8811 71.1846 37.4446C70.9118 37.0081 70.7754 36.3261 70.7754 35.3986L71.1437 28.3603C71.171 28.0057 71.1846 27.5419 71.1846 26.969C71.1846 24.7321 70.68 23.6136 69.6706 23.6136C69.0159 23.6136 68.4975 23.9955 68.1156 24.7593C67.761 25.5232 67.5564 26.3825 67.5018 27.3373C67.4745 28.2648 67.4609 29.2878 67.4609 30.4063L67.7064 35.4804C67.7064 36.3806 67.3927 37.049 66.7653 37.4855C65.8105 38.1402 64.6374 38.4676 63.2461 38.4676C61.8821 38.4676 61.2001 38.0175 61.2001 37.1172L61.3229 36.3806C62.1958 32.1522 62.6323 26.5325 62.6323 19.5216C62.6596 18.5395 62.6732 17.4619 62.6732 16.2889C62.6732 15.0885 62.646 14.2838 62.5914 13.8746C62.5641 13.4381 62.4414 13.0562 62.2231 12.7288C62.0049 12.3742 61.6912 12.0605 61.282 11.7877C60.9273 11.5149 60.75 11.2011 60.75 10.8465C60.75 9.91897 61.5138 9.04601 63.0415 8.2276C64.5692 7.4092 65.7832 7 66.6834 7C67.6928 7 68.1975 7.76384 68.1975 9.29153C68.1975 10.41 68.1156 11.9923 67.9519 14.0383C67.7883 16.0843 67.7064 17.5847 67.7064 18.5395Z" fill="#6A5B1F"/>
<path d="M58.0367 11.5022L57.9549 13.4663C57.9549 14.1756 58.1049 14.5712 58.405 14.653C58.7324 14.7349 59.0461 14.7758 59.3462 14.7758C59.6463 14.7758 60.0964 14.7485 60.6965 14.6939C61.2694 14.6939 61.5559 15.0622 61.5559 15.7988C61.5559 17.1901 60.5601 18.2676 58.5687 19.0315C58.2959 19.1406 58.1049 19.3861 57.9958 19.768C57.8321 21.4321 57.7503 23.3827 57.7503 25.6196C57.7503 27.8566 57.8321 29.3297 57.9958 30.039C58.1322 30.6937 58.6233 31.0893 59.4689 31.2257C59.6599 31.2257 59.8372 31.3212 60.0009 31.5121C60.301 31.8668 60.451 32.2214 60.451 32.576C60.451 32.9034 60.4237 33.2308 60.3692 33.5581C60.3146 33.8582 60.1782 34.2947 59.96 34.8676C59.769 35.4132 59.5099 35.9315 59.1825 36.4225C58.8824 36.8863 58.4187 37.2955 57.7912 37.6501C57.1638 38.0048 56.4545 38.1821 55.6634 38.1821C54.2994 38.1821 53.3173 37.3773 52.7171 35.7678C52.4989 35.1404 52.3898 34.3902 52.3898 33.5172L52.7171 22.5097C52.7171 21.173 52.6353 20.0818 52.4716 19.2361C52.3352 18.3904 51.8169 17.5993 50.9166 16.8627C50.5347 16.5899 50.3438 16.208 50.3438 15.717C50.3438 15.2259 50.5893 14.7349 51.0803 14.2438C52.5807 13.3163 53.9584 11.8568 55.2132 9.86537C55.5952 9.34705 56.0726 9.08789 56.6455 9.08789C57.573 9.08789 58.0367 9.89265 58.0367 11.5022Z" fill="#6A5B1F"/>
<path d="M44.6182 34.2524L44.7001 35.2754C44.7001 36.1756 44.3864 36.844 43.7589 37.2805C42.695 38.017 41.3446 38.3853 39.7078 38.3853C38.6712 38.3853 38.1529 37.9352 38.1529 37.035L38.2756 36.3393C38.9303 33.1203 39.2577 29.1783 39.2577 24.5134C39.2577 23.0948 38.8349 22.0855 37.9892 21.4853C37.6891 21.2943 37.5391 20.9806 37.5391 20.5441C37.5391 19.6985 38.2074 18.8801 39.5441 18.0889C40.9082 17.2705 41.9994 16.8613 42.8178 16.8613C43.6362 16.8613 44.0999 17.3114 44.209 18.2117C44.3182 18.8391 44.3727 19.3165 44.3727 19.6439C44.3727 19.944 44.4818 20.094 44.7001 20.094C44.8365 20.094 44.932 20.0395 44.9865 19.9303C45.0684 19.7939 45.1366 19.6712 45.1911 19.5621C45.273 19.4257 45.4366 19.2074 45.6822 18.9073C45.9277 18.58 46.1868 18.3072 46.4596 18.0889C47.1689 17.4615 47.9601 17.1478 48.833 17.1478C49.4059 17.1478 49.9788 17.3251 50.5517 17.6797C51.6156 18.3345 52.1475 19.6303 52.1475 21.5671C52.1475 22.7947 51.902 23.8587 51.411 24.7589C50.9199 25.6592 50.1288 26.1093 49.0376 26.1093C47.6736 26.1093 46.9916 25.3591 46.9916 23.8587L47.0325 23.2449C47.0325 22.7811 46.8416 22.5492 46.4596 22.5492C45.0138 22.5492 44.2909 24.6362 44.2909 28.81C44.2909 29.9012 44.4 31.7153 44.6182 34.2524Z" fill="#6A5B1F"/>
<path d="M29.8682 16.9844C32.2416 16.9844 34.042 18.021 35.2696 20.0943C36.5245 22.1676 37.152 24.7046 37.152 27.7054C37.152 31.6611 36.0199 34.6619 33.7556 36.7079C32.5007 37.8264 31.1094 38.3856 29.5818 38.3856C28.0541 38.3856 26.7855 38.0719 25.7762 37.4444C24.7941 36.817 24.0439 35.985 23.5256 34.9483C22.4616 32.9296 21.9297 30.7745 21.9297 28.4829C21.9297 25.8095 22.5435 23.2997 23.7711 20.9536C24.3713 19.7806 25.2033 18.8258 26.2672 18.0892C27.3311 17.3527 28.5315 16.9844 29.8682 16.9844ZM32.2416 25.7004C32.2416 24.882 32.0779 24.1454 31.7505 23.4907C31.4232 22.836 30.8776 22.5086 30.1137 22.5086C29.3771 22.5086 28.6542 23.0406 27.9449 24.1045C27.2629 25.1411 26.9219 26.4096 26.9219 27.91C26.9219 30.0106 27.6176 31.0609 29.0089 31.0609C29.7727 31.0609 30.4956 30.5835 31.1776 29.6287C31.8869 28.6739 32.2416 27.3644 32.2416 25.7004Z" fill="#6A5B1F"/>
<path d="M3.18363 18.0079L3.10179 15.5936V15.3481C3.10179 14.557 2.92447 13.7249 2.56983 12.852L2.40615 12.4428C2.10606 12.0608 1.95602 11.6107 1.95602 11.0924C1.95602 10.5741 2.2561 10.0557 2.85627 9.53743C3.45643 8.99183 4.19299 8.56899 5.06595 8.26891C6.89372 7.64146 8.44868 7.32774 9.73085 7.32774C11.013 7.32774 11.7769 7.87334 12.0224 8.96455C12.3497 10.0558 12.7044 11.5425 13.0863 13.4248C13.4955 15.2799 13.7819 16.5211 13.9456 17.1486C14.3821 18.9763 14.8595 20.3949 15.3778 21.4043C15.4597 21.4861 15.5551 21.527 15.6643 21.527C15.9371 21.527 16.1007 21.2133 16.1553 20.5859C16.1553 18.1307 16.1007 16.2347 15.9916 14.898C15.9098 13.534 15.8689 12.4973 15.8689 11.788C15.8689 11.0515 15.9098 10.5604 15.9916 10.3149C16.2917 9.41467 16.9055 8.66447 17.833 8.06431C18.7878 7.46414 19.6881 7.16406 20.5338 7.16406C21.4067 7.16406 21.8432 7.50506 21.8432 8.18707C21.8432 8.35075 21.6522 9.38739 21.2703 11.297C20.3428 16.1256 19.879 21.9908 19.879 28.8926C19.879 31.1842 19.9609 33.5985 20.1246 36.1355V36.2992C20.1246 37.1721 19.6608 37.7314 18.7333 37.9769C18.024 38.1679 17.2602 38.2634 16.4417 38.2634C15.6506 38.2634 14.7231 38.0724 13.6592 37.6905C12.6225 37.3358 12.036 36.7357 11.8996 35.89C11.1358 31.3069 10.14 26.7102 8.91245 22.0999L8.29864 19.7675C8.13496 19.331 7.944 19.1127 7.72576 19.1127C7.262 19.1127 7.03012 21.9771 7.03012 27.706C7.03012 29.6701 7.07104 31.4024 7.15288 32.9028C7.23472 34.4032 7.27564 35.2898 7.27564 35.5626C7.27564 36.2992 7.01648 36.913 6.49816 37.404C6.00712 37.9224 5.39331 38.277 4.65675 38.468C3.42915 38.8226 2.46071 38.9999 1.75142 38.9999C1.04214 38.9999 0.6875 38.6726 0.6875 38.0178C0.6875 37.7996 0.905741 36.8857 1.34222 35.2762C1.7787 33.6394 2.03786 32.6027 2.1197 32.1663C2.82899 28.6198 3.18363 24.3232 3.18363 19.2764V18.0079Z" fill="#6A5B1F"/>
</svg>
