<svg width="20" height="20" viewBox="0 0 20 20" fill="none" xmlns="http://www.w3.org/2000/svg">
<path d="M4.08521 4.07665C4.08521 3.28318 4.08521 2.88644 4.25065 2.66775C4.39477 2.47722 4.61507 2.35933 4.85354 2.34509C5.12727 2.32874 5.45738 2.54881 6.11758 2.98895L14.7091 8.71663C15.2546 9.08031 15.5274 9.26215 15.6224 9.49135C15.7055 9.69173 15.7055 9.91693 15.6224 10.1173C15.5274 10.3465 15.2546 10.5283 14.7091 10.892L6.11758 16.6197C5.45738 17.0598 5.12727 17.2799 4.85354 17.2636C4.61507 17.2493 4.39477 17.1314 4.25065 16.9409C4.08521 16.7222 4.08521 16.3255 4.08521 15.532V4.07665Z" fill="white"/>
</svg>
