<svg width="142" height="46" viewBox="0 0 142 46" fill="none" xmlns="http://www.w3.org/2000/svg">
<path d="M13.752 31.736C12.408 31.736 11.224 31.5013 10.2 31.032C9.176 30.5627 8.38667 29.912 7.832 29.08C7.27733 28.2267 7 27.2453 7 26.136C7 25.1973 7.192 24.344 7.576 23.576C7.98133 22.808 8.51467 22.2 9.176 21.752C9.85867 21.304 10.6053 21.08 11.416 21.08C12.1627 21.08 12.792 21.272 13.304 21.656C13.816 22.0187 14.136 22.5307 14.264 23.192C13.1547 23.192 12.2693 23.4907 11.608 24.088C10.9467 24.664 10.616 25.4533 10.616 26.456C10.616 27.3733 10.8933 28.1093 11.448 28.664C12.0027 29.2187 12.7387 29.496 13.656 29.496C14.7867 29.496 15.7147 29.1227 16.44 28.376C17.1867 27.608 17.56 26.648 17.56 25.496C17.56 24.4933 17.2827 23.544 16.728 22.648C16.1733 21.752 15.3413 20.664 14.232 19.384C13.08 18.0613 12.2053 16.9307 11.608 15.992C11.032 15.032 10.744 13.9867 10.744 12.856C10.744 11.7467 11.0533 10.7547 11.672 9.88C12.2907 8.984 13.144 8.28 14.232 7.768C15.32 7.256 16.5467 7 17.912 7C19.64 7 21.016 7.40533 22.04 8.216C23.0853 9.02667 23.608 10.1147 23.608 11.48C23.608 12.376 23.384 13.1013 22.936 13.656C22.488 14.2107 21.9013 14.488 21.176 14.488C20.3653 14.488 19.7147 14.1573 19.224 13.496C19.6293 13.1973 19.9493 12.8027 20.184 12.312C20.4187 11.8213 20.536 11.3093 20.536 10.776C20.536 10.0933 20.3333 9.54933 19.928 9.144C19.5227 8.73867 18.968 8.536 18.264 8.536C17.4107 8.536 16.7067 8.84533 16.152 9.464C15.6187 10.0613 15.352 10.8293 15.352 11.768C15.352 12.6213 15.5973 13.4213 16.088 14.168C16.5787 14.8933 17.3467 15.832 18.392 16.984C19.2453 17.9013 19.928 18.6907 20.44 19.352C20.9733 20.0133 21.4213 20.7813 21.784 21.656C22.168 22.5093 22.36 23.4373 22.36 24.44C22.36 25.8053 21.976 27.0427 21.208 28.152C20.4613 29.2613 19.4267 30.136 18.104 30.776C16.8027 31.416 15.352 31.736 13.752 31.736Z" fill="#0F4CA4"/>
<path d="M29.506 13.432C28.802 13.432 28.2047 13.1867 27.714 12.696C27.2233 12.2053 26.978 11.608 26.978 10.904C26.978 10.2 27.2233 9.60267 27.714 9.112C28.2047 8.6 28.802 8.344 29.506 8.344C30.21 8.344 30.8073 8.6 31.298 9.112C31.81 9.60267 32.066 10.2 32.066 10.904C32.066 11.608 31.81 12.2053 31.298 12.696C30.8073 13.1867 30.21 13.432 29.506 13.432ZM27.33 31.352C26.306 31.352 25.474 31.032 24.834 30.392C24.2153 29.752 23.906 28.792 23.906 27.512C23.906 26.9787 23.9913 26.2853 24.162 25.432L26.338 15.16H30.946L28.642 26.04C28.5567 26.36 28.514 26.7013 28.514 27.064C28.514 27.4907 28.61 27.8 28.802 27.992C29.0153 28.1627 29.3567 28.248 29.826 28.248C30.4447 28.248 31.0207 27.992 31.554 27.48C32.0873 26.9467 32.4713 26.264 32.706 25.432H34.05C33.2607 27.736 32.2473 29.304 31.01 30.136C29.7727 30.9467 28.546 31.352 27.33 31.352Z" fill="#0F4CA4"/>
<path d="M44.2453 31.352C42.9439 31.352 41.9839 31.0107 41.3652 30.328C40.7679 29.624 40.4692 28.76 40.4692 27.736C40.4692 27.288 40.5226 26.7867 40.6292 26.232C40.7359 25.656 40.8426 25.1013 40.9492 24.568C41.0772 24.0347 41.1626 23.6933 41.2052 23.544C41.3759 22.7973 41.5359 22.0613 41.6852 21.336C41.8346 20.6107 41.9093 20.024 41.9093 19.576C41.9093 18.488 41.5253 17.944 40.7573 17.944C40.2026 17.944 39.7119 18.2213 39.2853 18.776C38.8586 19.3093 38.5173 20.0133 38.2612 20.888L36.0853 31.16H31.4772L34.8692 15.16H39.4772L39.1253 16.824C40.1919 15.6293 41.4399 15.032 42.8693 15.032C43.9573 15.032 44.8213 15.3307 45.4613 15.928C46.1012 16.5253 46.4212 17.432 46.4212 18.648C46.4212 19.2667 46.3466 19.96 46.1973 20.728C46.0479 21.4747 45.8346 22.392 45.5573 23.48C45.3866 24.1413 45.2266 24.792 45.0773 25.432C44.9492 26.0507 44.8853 26.5413 44.8853 26.904C44.8853 27.3307 44.9813 27.6613 45.1733 27.896C45.3653 28.1307 45.6959 28.248 46.1653 28.248C46.8053 28.248 47.3173 28.024 47.7013 27.576C48.0853 27.1067 48.4692 26.392 48.8532 25.432H50.1973C49.4079 27.7787 48.4906 29.3573 47.4453 30.168C46.4212 30.9573 45.3546 31.352 44.2453 31.352Z" fill="#0F4CA4"/>
<path d="M54.5135 39.16C53.4895 39.16 52.6362 38.8933 51.9535 38.36C51.2708 37.8267 50.9295 37.0587 50.9295 36.056C50.9295 34.84 51.4202 33.8587 52.4015 33.112C53.3828 32.3867 54.6308 31.7787 56.1455 31.288L56.5295 29.592C55.4415 30.7653 54.1615 31.352 52.6895 31.352C51.4735 31.352 50.4602 30.936 49.6495 30.104C48.8388 29.272 48.4335 27.9707 48.4335 26.2C48.4335 24.6213 48.7428 22.968 49.3615 21.24C50.0015 19.4907 50.9402 18.0187 52.1775 16.824C53.4362 15.608 54.9295 15 56.6575 15C57.5322 15 58.1828 15.1493 58.6095 15.448C59.0362 15.7467 59.2495 16.1413 59.2495 16.632V16.824L59.6015 15.16H64.2095L61.0415 30.008C62.0655 29.6667 62.8868 29.1547 63.5055 28.472C64.1242 27.7893 64.6468 26.776 65.0735 25.432H66.4175C65.8415 27.3307 65.0628 28.728 64.0815 29.624C63.1002 30.4987 61.9908 31.096 60.7535 31.416L60.2735 33.72C59.8468 35.7893 59.1108 37.208 58.0655 37.976C57.0202 38.7653 55.8362 39.16 54.5135 39.16ZM54.7695 28.248C55.2602 28.248 55.7615 28.024 56.2735 27.576C56.7855 27.128 57.1375 26.52 57.3295 25.752L58.9615 18.168C58.9615 17.912 58.8548 17.656 58.6415 17.4C58.4282 17.1227 58.0975 16.984 57.6495 16.984C56.7962 16.984 56.0282 17.4853 55.3455 18.488C54.6628 19.4693 54.1295 20.664 53.7455 22.072C53.3615 23.4587 53.1695 24.6853 53.1695 25.752C53.1695 26.8187 53.3188 27.5013 53.6175 27.8C53.9375 28.0987 54.3215 28.248 54.7695 28.248ZM53.7775 36.664C54.1402 36.664 54.4922 36.4187 54.8335 35.928C55.1748 35.4373 55.4415 34.7333 55.6335 33.816L55.8255 32.888C53.7348 33.656 52.6895 34.5627 52.6895 35.608C52.6895 35.8853 52.7855 36.1307 52.9775 36.344C53.1695 36.5573 53.4362 36.664 53.7775 36.664Z" fill="#0F4CA4"/>
<path d="M68.9082 31.352C67.6922 31.352 66.6789 30.936 65.8683 30.104C65.0576 29.272 64.6522 27.9707 64.6522 26.2C64.6522 24.6213 64.9616 22.968 65.5802 21.24C66.2202 19.4907 67.1589 18.0187 68.3963 16.824C69.6549 15.608 71.1483 15 72.8763 15C73.7509 15 74.4016 15.1493 74.8282 15.448C75.2549 15.7467 75.4683 16.1413 75.4683 16.632V16.856L75.8203 15.16H80.4283L78.1243 26.04C78.0389 26.36 77.9963 26.7013 77.9963 27.064C77.9963 27.9813 78.4336 28.44 79.3083 28.44C79.9056 28.44 80.4176 28.1627 80.8443 27.608C81.2923 27.0533 81.6443 26.328 81.9003 25.432H83.2442C82.4549 27.736 81.4736 29.304 80.3002 30.136C79.1482 30.9467 77.9856 31.352 76.8122 31.352C75.9162 31.352 75.1909 31.1067 74.6363 30.616C74.1029 30.104 73.7829 29.368 73.6763 28.408C73.0576 29.2827 72.3643 29.9973 71.5963 30.552C70.8496 31.0853 69.9536 31.352 68.9082 31.352ZM70.9883 28.248C71.5216 28.248 72.0443 28.0027 72.5563 27.512C73.0896 27 73.4522 26.3067 73.6442 25.432L75.1803 18.2C75.1803 17.9227 75.0736 17.656 74.8603 17.4C74.6469 17.1227 74.3162 16.984 73.8682 16.984C73.0149 16.984 72.2469 17.4853 71.5642 18.488C70.8816 19.4693 70.3482 20.664 69.9642 22.072C69.5802 23.4587 69.3882 24.6853 69.3882 25.752C69.3882 26.8187 69.5376 27.5013 69.8363 27.8C70.1562 28.0987 70.5403 28.248 70.9883 28.248Z" fill="#0F4CA4"/>
<path d="M84.344 13.976H88.952L88.44 16.376C89.5067 15.4587 90.7547 15 92.184 15C93.3787 15 94.328 15.3947 95.032 16.184C95.736 16.9733 96.088 18.264 96.088 20.056C96.088 21.7413 95.8427 23.448 95.352 25.176C94.8613 26.8827 94.0293 28.344 92.856 29.56C91.6827 30.7547 90.136 31.352 88.216 31.352C86.8507 31.352 85.944 30.968 85.496 30.2L83.832 38.008L79 39.16L84.344 13.976ZM87.224 28.568C88.248 28.568 89.0907 28.088 89.752 27.128C90.4347 26.168 90.9253 25.0267 91.224 23.704C91.544 22.36 91.704 21.112 91.704 19.96C91.704 18.1893 91.1707 17.304 90.104 17.304C89.72 17.304 89.3253 17.4427 88.92 17.72C88.536 17.9973 88.1947 18.3813 87.896 18.872L86.008 27.832C86.1787 28.3227 86.584 28.568 87.224 28.568Z" fill="#0F4CA4"/>
<path d="M101.553 31.288C99.9741 31.288 98.7261 30.8827 97.8087 30.072C96.8914 29.2613 96.4327 27.9813 96.4327 26.232C96.4327 24.7813 96.7314 23.1707 97.3288 21.4C97.9261 19.6293 98.8861 18.104 100.209 16.824C101.531 15.5227 103.195 14.872 105.201 14.872C107.931 14.872 109.297 16.5787 109.297 19.992V20.024C109.361 20.0453 109.478 20.056 109.649 20.056C110.353 20.056 111.163 19.8747 112.081 19.512C112.998 19.128 113.83 18.6693 114.577 18.136L114.865 19C114.246 19.6613 113.435 20.2267 112.433 20.696C111.451 21.144 110.374 21.464 109.201 21.656C109.03 23.5973 108.593 25.2933 107.889 26.744C107.185 28.1947 106.278 29.3147 105.169 30.104C104.059 30.8933 102.854 31.288 101.553 31.288ZM102.833 28.408C103.345 28.408 103.857 28.12 104.369 27.544C104.881 26.9467 105.329 26.1467 105.713 25.144C106.097 24.12 106.374 22.9893 106.545 21.752C105.969 21.624 105.681 21.176 105.681 20.408C105.681 19.5333 106.011 18.9573 106.673 18.68C106.63 17.976 106.523 17.496 106.353 17.24C106.182 16.9627 105.883 16.824 105.457 16.824C104.753 16.824 104.07 17.336 103.409 18.36C102.747 19.384 102.214 20.6107 101.809 22.04C101.403 23.4693 101.201 24.728 101.201 25.816C101.201 26.84 101.318 27.5333 101.553 27.896C101.787 28.2373 102.214 28.408 102.833 28.408Z" fill="#0F4CA4"/>
<path d="M113.119 15.16H117.727L117.311 17.144C118.037 16.504 118.687 16.0133 119.263 15.672C119.861 15.3307 120.501 15.16 121.183 15.16C121.866 15.16 122.399 15.3947 122.783 15.864C123.189 16.3333 123.391 16.8987 123.391 17.56C123.391 18.1787 123.189 18.7227 122.783 19.192C122.378 19.6613 121.813 19.896 121.087 19.896C120.618 19.896 120.298 19.7893 120.127 19.576C119.978 19.3413 119.861 19.0107 119.775 18.584C119.711 18.3067 119.647 18.104 119.583 17.976C119.519 17.848 119.402 17.784 119.231 17.784C118.783 17.784 118.399 17.88 118.079 18.072C117.781 18.2427 117.386 18.552 116.895 19L114.335 31.16H109.727L113.119 15.16Z" fill="#0F4CA4"/>
<path d="M127.487 31.352C125.929 31.352 124.713 30.9467 123.839 30.136C122.964 29.304 122.526 28.0133 122.526 26.264C122.526 24.792 122.815 23.1707 123.391 21.4C123.966 19.6293 124.905 18.104 126.206 16.824C127.508 15.5227 129.161 14.872 131.167 14.872C133.513 14.872 134.687 15.896 134.687 17.944C134.687 19.1387 134.345 20.2373 133.662 21.24C132.98 22.2427 132.073 23.0533 130.942 23.672C129.812 24.2693 128.606 24.6107 127.326 24.696C127.284 25.1653 127.262 25.4853 127.262 25.656C127.262 27.4267 127.924 28.312 129.246 28.312C129.844 28.312 130.484 28.152 131.167 27.832C131.849 27.512 132.468 27.1067 133.022 26.616C132.447 29.7733 130.601 31.352 127.487 31.352ZM127.55 23.16C128.361 23.1387 129.118 22.872 129.823 22.36C130.548 21.848 131.124 21.1973 131.55 20.408C131.998 19.5973 132.223 18.7547 132.223 17.88C132.223 17.0053 131.956 16.568 131.423 16.568C130.676 16.568 129.929 17.2507 129.183 18.616C128.457 19.96 127.913 21.4747 127.55 23.16Z" fill="#0F4CA4"/>
</svg>
