<svg width="142" height="56" viewBox="0 0 142 56" fill="none" xmlns="http://www.w3.org/2000/svg">
<path d="M97.8764 4.51832C97.8996 6.77242 97.9577 8.63146 98.0506 10.0955C98.1668 11.5362 98.4224 13.0699 98.8175 14.6966C99.7935 14.348 100.688 14.1737 101.501 14.1737C102.873 14.1737 104.058 14.5804 105.057 15.3937C106.056 16.2071 106.73 17.2179 107.079 18.4263C107.358 19.3094 107.497 20.4945 107.497 21.9818L107.462 24.7006C107.462 24.8633 107.369 25.0492 107.183 25.2583C106.997 25.4675 106.811 25.5953 106.625 25.6418C106.556 25.665 106.451 25.6766 106.312 25.6766C105.777 25.6766 105.22 25.4094 104.639 24.8749C104.058 24.3637 103.756 23.8524 103.732 23.3412L103.663 21.5286C103.663 21.1103 103.639 20.5061 103.593 19.716C103.546 18.9027 103.454 18.3218 103.314 17.9732C103.175 17.5781 103 17.276 102.791 17.0669C102.582 16.8577 102.35 16.7532 102.094 16.7532C101.908 16.7532 101.699 16.8345 101.467 16.9972C101.258 17.1598 101.072 17.3806 100.909 17.6595C100.421 18.4263 99.7819 19.9368 98.9918 22.1909C98.7362 23.0042 98.283 23.4109 97.6324 23.4109C97.5626 23.4109 97.4116 23.3877 97.1792 23.3412C97.0398 23.2947 96.7725 23.225 96.3775 23.132C95.9824 23.0158 95.6687 22.8416 95.4364 22.6092C95.2272 22.3768 95.1226 22.0398 95.1226 21.5983C95.1226 17.2063 94.8554 13.5696 94.3209 10.688C94.0653 9.24727 93.9375 7.58575 93.9375 5.70346V3.36803V2.14803C93.9375 1.8227 94.1118 1.54384 94.4604 1.31146C94.8089 1.07908 95.204 0.962891 95.6455 0.962891C96.0173 0.962891 96.331 1.04422 96.5866 1.20689C97.0514 1.48575 97.3767 1.83432 97.5626 2.25261C97.7718 2.67089 97.8764 3.19375 97.8764 3.82118V4.51832Z" fill="#9D3417"/>
<path d="M87.3344 7.66989C87.4506 7.62341 87.7063 7.58856 88.1013 7.56532C88.5196 7.51884 88.8914 7.4956 89.2167 7.4956C89.8674 7.4956 90.46 7.90227 90.9944 8.71561L90.5413 9.06418C90.0068 9.45922 89.24 9.76132 88.2407 9.97046C87.3577 10.412 86.6954 10.7838 86.2539 11.0859C85.8356 11.388 85.5219 11.7249 85.3127 12.0967C85.1268 12.4686 85.0339 12.9449 85.0339 13.5259C85.0339 13.8047 85.1036 14.5251 85.243 15.687L85.4173 17.151C85.6032 18.9404 85.7659 20.2533 85.9053 21.0899C85.9518 21.392 86.0447 21.7522 86.1842 22.1705C86.3468 22.5655 86.5095 22.7979 86.6722 22.8676C86.8348 22.9373 87.1602 22.8211 87.6482 22.519C88.5777 21.4036 89.1819 20.6251 89.4607 20.1836C89.5304 20.0674 89.6466 19.8699 89.8093 19.591C89.972 19.3122 90.1346 19.103 90.2973 18.9636C90.46 18.8009 90.6575 18.7196 90.8899 18.7196C90.9363 18.7196 91.0525 18.7428 91.2384 18.7893C91.6103 18.9055 91.9007 19.0798 92.1099 19.3122C92.3423 19.5446 92.4584 19.8815 92.4584 20.323C92.4584 20.5322 92.4468 20.6832 92.4236 20.7762C92.2842 21.7057 91.9588 22.5423 91.4476 23.2859C90.9364 24.0295 90.2624 24.7615 89.4259 25.4819C89.1005 25.784 88.5661 25.935 87.8224 25.935C87.0091 25.935 86.2074 25.7491 85.4173 25.3773C84.6272 25.0287 84.0927 24.564 83.8139 23.983C83.0935 22.4261 82.4196 20.4392 81.7922 18.0225C81.6295 17.3486 81.5017 16.2796 81.4087 14.8156L81.3042 13.5259C81.2577 12.9914 81.2577 12.5847 81.3042 12.3059C81.3506 12.0038 80.8975 11.8179 79.9447 11.7482C79.5962 11.7249 79.4219 11.4926 79.4219 11.051C79.6543 10.3074 80.0144 9.86589 80.5024 9.72646C80.9672 9.58703 81.2577 9.29656 81.3739 8.85503C81.4901 8.39027 81.583 7.91389 81.6527 7.42589C81.8619 5.91541 81.9084 4.23065 81.7922 2.3716C81.7457 1.48856 82.0129 0.977319 82.5939 0.837891L82.9076 0.872747C83.0238 0.895985 83.291 0.942461 83.7093 1.01218C84.1276 1.05865 84.4994 1.16322 84.8247 1.32589C85.6381 1.76741 86.0447 2.54589 86.0447 3.66132C86.0447 4.12608 85.9518 4.73027 85.7659 5.47389C85.7426 5.59008 85.7078 5.69465 85.6613 5.78761C85.6148 5.88056 85.58 5.98513 85.5567 6.10132C85.487 6.44989 85.4522 6.74037 85.4522 6.97275C85.243 7.66989 85.4057 8.01846 85.9402 8.01846C86.1261 8.01846 86.5908 7.90227 87.3344 7.66989Z" fill="#9D3417"/>
<path d="M72.3694 20.7176C73.1363 19.4162 73.5197 17.8012 73.5197 15.8724C73.5197 15.2915 73.4732 14.4084 73.3803 13.2233V10.8879V9.63301C73.3803 8.88939 73.6475 8.51758 74.182 8.51758C74.3679 8.51758 74.5538 8.55244 74.7397 8.62215C75.9248 9.13339 76.5987 9.67948 76.7614 10.2604C77.3424 12.166 77.6328 14.0366 77.6328 15.8724C77.6328 17.8942 77.261 19.8345 76.5174 21.6936C76.1224 22.6696 75.5065 23.4016 74.67 23.8896C73.8566 24.3776 72.9504 24.6216 71.9511 24.6216C70.7195 24.6216 69.6389 24.3195 68.7094 23.7153C67.106 22.6928 66.1648 21.2288 65.886 19.3233C65.7698 18.3705 65.6652 17.6385 65.5723 17.1273C65.3399 15.7562 65.1888 14.6873 65.1191 13.9204C65.0959 13.386 65.2818 12.9561 65.6768 12.6307C66.0719 12.2822 66.5483 12.1079 67.106 12.1079C67.3151 12.1079 67.5243 12.1427 67.7334 12.2124C68.5932 12.5145 69.1858 12.9444 69.5111 13.5021C69.8365 14.0599 69.9875 14.8151 69.9643 15.7679C69.9178 16.5115 69.8946 17.0692 69.8946 17.441C69.8946 18.7656 70.1618 19.8578 70.6963 20.7176C70.7892 20.9035 70.917 21.0778 71.0797 21.2404C71.2424 21.4031 71.3469 21.4728 71.3934 21.4496C71.5793 21.4263 71.7536 21.345 71.9163 21.2056C72.1022 21.0662 72.2532 20.9035 72.3694 20.7176Z" fill="#9D3417"/>
<path d="M59.2216 22.7979C58.5012 23.2394 57.6762 23.4602 56.7467 23.4602C55.7242 23.4602 54.7366 23.2046 53.7839 22.6933C52.8543 22.1589 52.1107 21.4036 51.553 20.4276C50.9953 19.4516 50.7629 18.3362 50.8559 17.0813L51.0301 16.2448C51.1696 15.4082 51.2858 14.7924 51.3787 14.3973C51.5879 13.5375 52.0061 12.9333 52.6336 12.5848C53.261 12.2362 54.0976 11.9573 55.1433 11.7482C55.8172 11.6088 56.4795 11.5391 57.1301 11.5391C59.1751 11.5391 60.8947 12.2246 62.289 13.5956C63.0326 14.3393 63.4044 15.2455 63.4044 16.3145C63.4044 17.3602 63.021 18.4873 62.2541 19.6956C61.3711 21.0667 60.3602 22.1008 59.2216 22.7979ZM56.2936 13.3168C55.9218 14.2231 55.5267 15.3501 55.1084 16.6979L54.7599 17.7436L55.0039 17.8482C55.0039 18.0109 55.0039 18.2665 55.0039 18.6151C55.0271 18.9404 55.0736 19.2193 55.1433 19.4516C55.3989 20.172 55.6894 20.6135 56.0147 20.7762C56.1541 20.8459 56.3517 20.8111 56.6073 20.6716C56.8861 20.5322 57.1301 20.3695 57.3393 20.1836C57.6646 19.9048 58.1875 19.3238 58.9079 18.4408C59.4423 17.8366 59.7096 17.1162 59.7096 16.2796C59.7096 15.5593 59.5004 14.9086 59.0821 14.3276C58.6871 13.7467 58.1294 13.3516 57.409 13.1425C57.3393 13.1193 57.2115 13.1076 57.0256 13.1076C56.584 13.1076 56.34 13.1773 56.2936 13.3168Z" fill="#9D3417"/>
<path d="M48.1171 0.313715C48.6981 0.546095 48.9886 0.871428 48.9886 1.28971C48.9886 1.708 48.6981 2.24248 48.1171 2.89314C47.8615 2.8699 47.4897 2.85828 47.0017 2.85828C45.9328 2.85828 44.9103 3.00933 43.9343 3.31143C42.9583 3.59028 41.9474 4.03181 40.9017 4.636C40.4137 4.93809 39.9954 5.32152 39.6469 5.78629C39.3912 6.06514 39.2634 6.39048 39.2634 6.76229C39.2634 7.38972 39.612 7.99391 40.3091 8.57486C40.983 9.272 42.0869 10.5385 43.6206 12.3743L44.4223 13.2109C45.561 14.4425 46.4556 15.4882 47.1063 16.348C47.7802 17.2078 48.3495 18.1954 48.8143 19.3109C49.0002 19.7989 49.0931 20.2404 49.0931 20.6354C49.0931 21.6347 48.7097 22.5526 47.9429 23.3891C47.0598 24.3651 46.0373 25.0739 44.8754 25.5154C43.7135 25.9802 42.4006 26.2707 40.9366 26.3869C40.7507 26.4101 40.5299 26.4333 40.2743 26.4566C40.0187 26.4798 39.7282 26.4914 39.4029 26.4914C39.1937 26.4914 38.88 26.4682 38.4617 26.4217C37.9505 26.445 37.416 26.352 36.8583 26.1429C36.3006 25.957 35.7893 25.6781 35.3246 25.3063C34.4415 24.5627 34 23.7377 34 22.8314C34 22.0646 34.3253 21.2861 34.976 20.496C35.3013 20.5425 35.4872 20.647 35.5337 20.8097C35.6034 20.9491 35.615 21.1118 35.5686 21.2977C35.5453 21.4836 35.5337 21.6347 35.5337 21.7509C35.5337 21.8206 35.557 21.9251 35.6034 22.0646C36.5097 22.4829 37.5903 22.692 38.8451 22.692C40.2394 22.692 41.5524 22.4596 42.784 21.9949C44.0389 21.5069 44.8057 20.9143 45.0846 20.2171C45.2472 19.7524 44.8522 18.939 43.8994 17.7771C42.9467 16.592 41.8777 15.4417 40.6926 14.3263C39.5771 13.327 38.5663 12.3394 37.66 11.3634C37.1488 10.8057 36.7421 10.1667 36.44 9.44629C36.1611 8.70267 36.0217 7.93581 36.0217 7.14571C36.0217 6.07676 36.289 5.0659 36.8234 4.11314C37.3811 3.16038 38.2061 2.3819 39.2983 1.77771C41.3897 0.592571 43.5276 0 45.712 0C46.0141 0 46.444 0.023238 47.0017 0.0697136C47.513 0.116191 47.8848 0.197524 48.1171 0.313715Z" fill="#9D3417"/>
<path d="M100.635 48.8062C100.467 48.7318 100.3 48.6947 100.133 48.6947C99.9655 48.6947 99.8167 48.7411 99.6866 48.8341C99.5751 48.9084 99.4449 49.0293 99.2962 49.1966C99.0731 49.4197 98.8407 49.6056 98.5991 49.7543C98.376 49.8844 97.967 50.0053 97.3721 50.1168C97.1118 50.154 96.898 50.1726 96.7307 50.1726C95.9499 50.1726 95.1319 50.0053 94.2768 49.6707C93.4402 49.3174 92.8453 48.8992 92.4921 48.4158C92.1203 47.8953 91.9437 47.3376 91.9623 46.7427C91.9809 45.8503 92.3527 44.958 93.0777 44.0656C93.7841 43.2105 94.4255 42.6063 95.0018 42.2531C95.5967 41.8998 96.4054 41.6768 97.4279 41.5838C97.651 41.5838 97.967 41.5466 98.376 41.4723C98.8036 41.3979 99.0174 41.2956 99.0174 41.1655C99.0174 40.9052 98.8965 40.6729 98.6548 40.4684C98.4317 40.2453 97.967 40.1337 97.2606 40.1337C97.0003 40.1337 96.6099 40.1523 96.0894 40.1895C95.5688 40.2267 95.2063 40.2453 95.0018 40.2453C94.3697 40.2453 93.9143 40.143 93.6354 39.9385C93.561 39.9014 93.5239 39.7248 93.5239 39.4087C93.5239 38.851 93.7191 38.4978 94.1095 38.3491C94.9089 38.0516 95.7361 37.8936 96.5913 37.875C97.6695 37.875 98.6641 38.1167 99.5751 38.6C100.505 39.0648 101.183 39.6504 101.611 40.3568C102.038 41.0633 102.317 42.0393 102.447 43.2848C102.596 44.6791 102.67 46.4545 102.67 48.611C102.67 49.2059 102.587 49.5498 102.419 49.6428C102.271 49.7357 102.131 49.7822 102.001 49.7822C101.834 49.7822 101.676 49.7357 101.527 49.6428C101.397 49.5312 101.248 49.3825 101.081 49.1966C100.914 48.9921 100.765 48.862 100.635 48.8062ZM96.2288 48.4716C97.1025 48.2113 97.9577 47.793 98.7943 47.2167C98.9802 47.0866 99.1475 46.9193 99.2962 46.7148C99.4449 46.5103 99.5379 46.3801 99.5751 46.3244C99.6123 46.2686 99.6401 46.1106 99.6587 45.8503C99.6959 45.5715 99.7052 45.3484 99.6866 45.1811C99.668 45.1253 99.6308 44.9766 99.5751 44.7349C99.5379 44.4932 99.4728 44.2794 99.3799 44.0935C99.2869 43.9448 99.1382 43.8054 98.9337 43.6752C98.7292 43.5451 98.5433 43.4893 98.376 43.5079C98.0228 43.5265 97.6417 43.6566 97.2327 43.8983C96.8237 44.14 96.4426 44.4653 96.0894 44.8743C95.7361 45.3019 95.4573 45.7388 95.2528 46.1849C95.0669 46.6125 94.9739 47.0122 94.9739 47.384C95.0111 47.886 95.1505 48.2206 95.3922 48.3879C95.5223 48.4809 95.6804 48.5273 95.8663 48.5273C96.015 48.5273 96.1358 48.5088 96.2288 48.4716Z" fill="#9D3417"/>
<path d="M90.2508 47.6032C89.6931 48.2353 89.126 48.7372 88.5497 49.1091C87.9734 49.4623 87.3321 49.6389 86.6256 49.6389C86.4769 49.6389 86.2724 49.6203 86.0121 49.5831L85.4544 49.611C83.112 49.6296 81.4017 48.5142 80.3235 46.2647C80.0818 45.7442 79.9609 45.1214 79.9609 44.3964C79.9609 43.7643 80.0539 43.1601 80.2398 42.5838C80.4257 42.0075 80.686 41.5334 81.0206 41.1616L81.5504 40.5203C81.8107 40.1856 82.0152 39.9532 82.1639 39.8231C82.8146 39.191 83.679 38.875 84.7573 38.875C85.315 38.875 85.8634 38.968 86.4025 39.1539C86.9417 39.3398 87.4157 39.5907 87.8247 39.9068C87.8991 39.9625 87.9734 40.0834 88.0478 40.2693C88.1222 40.4366 88.1593 40.576 88.1593 40.6876C88.1593 40.8363 88.0478 41.0036 87.8247 41.1895C87.6016 41.3568 87.3971 41.4312 87.2112 41.4126C85.9471 41.2639 84.9339 41.5706 84.1717 42.3328C83.4095 43.0764 83.0284 44.0989 83.0284 45.4003C83.0284 46.2554 83.205 46.8596 83.5582 47.2128C83.93 47.566 84.5342 47.7427 85.3708 47.7427C85.8913 47.7427 86.3839 47.6404 86.8487 47.4359C87.3135 47.2128 87.8526 46.9061 88.4661 46.5157L88.9959 46.1811C89.1818 46.0881 89.4235 46.0323 89.7209 46.0137C90.037 45.9766 90.2787 45.9487 90.446 45.9301C90.4274 46.0974 90.4181 46.2647 90.4181 46.432C90.4367 46.5808 90.446 46.7016 90.446 46.7945C90.446 47.2035 90.3809 47.4731 90.2508 47.6032Z" fill="#9D3417"/>
<path d="M76.6659 36.8529C75.569 36.9645 74.6674 36.5183 73.9609 35.5144C74.5372 35.0868 75.1042 34.873 75.662 34.873C76.3126 34.873 76.8518 35.1705 77.2793 35.7654C77.3909 35.8955 77.4467 36.0535 77.4467 36.2394C77.4467 36.4068 77.3723 36.5462 77.2236 36.6577C77.0748 36.7693 76.8889 36.8343 76.6659 36.8529ZM77.8092 43.0157C77.7906 43.4618 77.7441 44.1311 77.6697 45.0234L77.5024 47.0312C77.5024 47.2729 77.5303 47.5332 77.5861 47.812C77.6419 48.0909 77.679 48.2768 77.6976 48.3697C77.7348 48.6672 77.6697 48.9274 77.5024 49.1505C77.3351 49.355 77.1213 49.4573 76.861 49.4573C76.7495 49.4573 76.6659 49.448 76.6101 49.4294C75.978 49.2435 75.4575 48.9553 75.0485 48.5649C74.6395 48.1559 74.4443 47.6168 74.4629 46.9476C74.4815 46.6501 74.4908 46.2039 74.4908 45.609C74.4908 44.9398 74.4815 44.4378 74.4629 44.1032C74.4629 43.843 74.4536 43.5269 74.435 43.1551C74.435 42.7833 74.4443 42.3464 74.4629 41.8445C74.4815 41.6028 74.5372 41.3425 74.6302 41.0637C74.7231 40.7848 74.8254 40.6361 74.9369 40.6175C75.2344 40.5617 75.569 40.5338 75.9408 40.5338C76.4242 40.5338 76.7774 40.6175 77.0005 40.7848C77.1678 40.915 77.3072 41.0916 77.4188 41.3146C77.5303 41.5377 77.6511 41.8352 77.7813 42.207C77.8928 42.5044 77.9858 42.7275 78.0601 42.8762L77.8092 43.0157Z" fill="#9D3417"/>
<path d="M64.2956 47.4476C64.3327 47.1873 64.3513 46.8062 64.3513 46.3043L64.3234 44.659L63.9888 39.8069L63.9609 39.3886C63.9609 38.4033 64.3792 37.9107 65.2158 37.9107C65.4203 37.9107 65.5969 37.985 65.7456 38.1337C65.9129 38.2825 66.0617 38.3568 66.1918 38.3568C66.4706 38.3568 66.7123 38.236 66.9168 37.9943C67.1399 37.734 67.3723 37.4738 67.614 37.2135C68.0044 36.8045 68.4598 36.4792 68.9804 36.2375C69.5195 35.9958 70.0586 35.875 70.5977 35.875C71.1183 35.875 71.5366 35.9401 71.8526 36.0702C71.9455 36.1074 72.0478 36.191 72.1593 36.3212C72.2895 36.4327 72.3545 36.5257 72.3545 36.6C72.3545 36.6744 72.2988 36.7859 72.1872 36.9347C72.0943 37.0648 72.0106 37.1392 71.9363 37.1577C71.2112 37.3065 70.5791 37.6132 70.04 38.078C69.5195 38.5427 69.1756 38.9703 69.0083 39.3607C68.8595 39.7325 68.6364 40.4297 68.339 41.4521C68.1717 42.0284 68.0415 42.6233 67.9486 43.2368C67.8742 43.8317 67.8463 44.5939 67.8649 45.5235C67.8463 45.6164 67.8371 45.7465 67.8371 45.9139C67.8371 46.1555 67.8556 46.4809 67.8928 46.8899C67.93 47.336 67.9486 47.6521 67.9486 47.838C67.9486 48.7675 67.8463 49.2973 67.6418 49.4275C67.3444 49.5762 66.954 49.6505 66.4706 49.6505C66.0802 49.6505 65.7642 49.6041 65.5225 49.5111C64.686 49.1951 64.2677 48.6188 64.2677 47.7822C64.2677 47.6335 64.277 47.5219 64.2956 47.4476Z" fill="#9D3417"/>
<path d="M58.064 39.8743C58.064 40.5436 58.0919 40.9804 58.1477 41.1849C58.222 41.3894 58.3894 41.4917 58.6496 41.4917C58.8913 41.4917 59.2724 41.4359 59.7929 41.3244H60.4343C61.494 41.3244 62.1446 41.5568 62.3863 42.0215C62.4793 42.0587 62.5722 42.1609 62.6652 42.3283C62.7581 42.477 62.8232 42.5792 62.8604 42.635C62.786 42.6908 62.6745 42.7837 62.5257 42.9139C62.377 43.0254 62.2376 43.0905 62.1075 43.1091C61.6799 43.202 61.0385 43.3228 60.1833 43.4716C60.016 43.4902 59.7186 43.5366 59.291 43.611C58.6217 43.7411 58.2871 44.1315 58.2871 44.7822C58.2871 44.8752 58.3057 45.0518 58.3429 45.312C58.566 46.3159 58.7519 47.199 58.9006 47.9612C59.0493 48.7048 59.1702 49.3276 59.2631 49.8295L59.7651 52.2835C59.951 53.1758 60.0439 53.8636 60.0439 54.347C60.0439 54.7002 59.9603 54.9605 59.7929 55.1278C59.6256 55.3137 59.3003 55.4067 58.8169 55.4067C58.4079 55.4067 58.1012 55.3044 57.8967 55.0999C57.6922 54.8954 57.5435 54.5701 57.4505 54.1239C57.2832 53.2688 56.9951 51.986 56.5861 50.2757L55.6937 45.6467C55.6566 44.5684 55.1267 44.0293 54.1043 44.0293C53.7696 44.0293 53.5372 43.9735 53.4071 43.862C53.2956 43.769 53.1933 43.6668 53.1004 43.5552C53.0074 43.4251 52.9609 43.3043 52.9609 43.1927C52.9609 43.0998 53.0167 42.9975 53.1283 42.886C53.2584 42.7558 53.3792 42.6815 53.4908 42.6629C54.16 42.5699 54.6062 42.384 54.8293 42.1052C55.071 41.8263 55.2011 41.3894 55.2197 40.7945L55.2755 39.0099C55.294 38.2291 55.3219 37.4297 55.3591 36.6117C55.3963 35.7937 55.4614 35.0687 55.5543 34.4366C55.6287 33.8975 55.8611 33.5071 56.2515 33.2654C56.6419 33.0051 57.181 32.875 57.8688 32.875C58.1663 32.875 58.3987 32.8843 58.566 32.9029C58.9564 32.9401 59.4025 33.126 59.9045 33.4606C60.4064 33.7766 60.676 34.1206 60.7132 34.4924C60.8991 35.552 60.5087 36.1283 59.542 36.2213C58.9099 36.0912 58.5381 36.1655 58.4265 36.4444C58.315 36.7232 58.2406 37.0672 58.2035 37.4761C58.2035 37.7178 58.1849 38.0617 58.1477 38.5079C58.0919 38.9541 58.064 39.4096 58.064 39.8743Z" fill="#9D3417"/>
<path d="M49.8231 34.2634C50.0184 35.0466 50.2519 36.1902 50.5236 37.6944L50.7321 39.1304C51.0164 41.811 51.6217 44.1678 52.5478 46.2007C52.6716 46.4867 52.758 46.8608 52.807 47.323C52.8345 47.5818 52.8533 47.935 52.8634 48.3826C52.8763 48.6803 52.7899 48.9232 52.6042 49.1112C52.4204 49.3176 52.1714 49.4375 51.8571 49.4708C51.8202 49.4747 51.7165 49.4671 51.5462 49.4477C51.0723 49.3858 50.6995 49.2198 50.4278 48.9495C50.1541 48.6607 49.9937 48.2945 49.9466 47.8508C49.931 47.7029 49.9284 47.591 49.9391 47.5151C49.9273 47.4041 49.9106 47.247 49.8891 47.0437C49.8537 46.7109 49.8029 46.4078 49.7365 46.1344C49.5121 45.4292 49.1791 44.4924 48.7373 43.3241C48.5734 42.8367 48.3159 42.6116 47.9646 42.6489C47.8352 42.6626 47.6902 42.7061 47.5298 42.7792C46.9743 43.0063 46.4826 43.2174 46.0546 43.4124C45.6451 43.6054 45.2789 43.7658 44.9559 43.8935L43.6661 44.4229C42.9316 44.7252 42.2478 44.9753 41.6145 45.1734C40.9462 45.3939 40.4872 45.8258 40.2377 46.4692C40.0007 47.0552 39.655 47.849 39.2004 48.8507C38.9158 49.5165 38.487 49.8798 37.9139 49.9406C37.6366 49.97 37.3524 49.9347 37.0614 49.8347C36.7869 49.7143 36.5455 49.553 36.337 49.3507C36.0264 49.0659 35.8554 48.7756 35.824 48.4798C35.8024 48.2764 35.8353 48.0579 35.9227 47.8243L37.4242 43.7391C39.0767 39.2266 40.0612 36.5236 40.3777 35.63C41.303 33.2511 42.7189 31.5305 44.6253 30.4683C45.0289 30.2198 45.4525 30.0721 45.8962 30.025C46.4508 29.9662 46.9749 30.0601 47.4684 30.3069C47.9785 30.5332 48.3904 30.8914 48.7041 31.3816C49.1543 32.1003 49.5273 33.0609 49.8231 34.2634ZM41.6106 42.2294C44.0962 41.517 46.2117 40.928 47.957 40.4624C47.7317 38.6916 47.5282 37.3018 47.3464 36.2928C47.1811 35.2635 46.9418 34.2419 46.6286 33.2282C45.6606 33.4431 44.9721 34.0022 44.5632 34.9056C43.8395 36.3658 43.1576 37.8683 42.5176 39.413C42.4137 39.6671 42.2303 40.2287 41.9673 41.0979L41.6106 42.2294Z" fill="#9D3417"/>
</svg>
