<svg width="18" height="118" viewBox="0 0 18 118" fill="none" xmlns="http://www.w3.org/2000/svg">
<path d="M18 -94L11.7273 -88.5758C10.8123 -87.7845 10.8037 -86.3683 11.7092 -85.566L16.2777 -81.5182C17.1874 -80.7122 17.1739 -79.2878 16.249 -78.4993L11.75 -74.6634C10.8252 -73.8749 10.8116 -72.4506 11.7213 -71.6446L16.2777 -67.6074C17.1874 -66.8014 17.1739 -65.3771 16.249 -64.5886L11.75 -60.7527C10.8252 -59.9642 10.8116 -58.5398 11.7213 -57.7338L16.2777 -53.6967C17.1874 -52.8907 17.1739 -51.4663 16.249 -50.6778L11.75 -46.8419C10.8252 -46.0534 10.8116 -44.6291 11.7213 -43.8231L16.2777 -39.786C17.1874 -38.98 17.1739 -37.5556 16.249 -36.7671L11.75 -32.9312C10.8252 -32.1427 10.8116 -30.7184 11.7213 -29.9124L16.2777 -25.8752C17.1874 -25.0692 17.1739 -23.6449 16.249 -22.8564L11.75 -19.0205C10.8252 -18.232 10.8116 -16.8076 11.7213 -16.0016L16.2777 -11.9645C17.1874 -11.1585 17.1739 -9.73415 16.249 -8.94562L11.75 -5.10977C10.8252 -4.32124 10.8116 -2.8969 11.7213 -2.0909L16.2777 1.94626C17.1874 2.75224 17.1739 4.17659 16.249 4.96512L11.75 8.80096C10.8252 9.58949 10.8116 11.0138 11.7213 11.8198L16.2777 15.857C17.1874 16.663 17.1739 18.0873 16.249 18.8759L11.75 22.7117C10.8252 23.5002 10.8116 24.9246 11.7213 25.7306L16.2777 29.7677C17.1874 30.5737 17.1739 31.9981 16.249 32.7866L11.75 36.6224C10.8252 37.411 10.8116 38.8353 11.7213 39.6413L16.2777 43.6785C17.1874 44.4845 17.1739 45.9088 16.249 46.6973L11.75 50.5332C10.8252 51.3217 10.8116 52.746 11.7213 53.552L16.2777 57.5892C17.1874 58.3952 17.1739 59.8195 16.249 60.6081L11.75 64.4439C10.8252 65.2324 10.8116 66.6568 11.7213 67.4628L16.2777 71.4999C17.1874 72.3059 17.1739 73.7303 16.249 74.5188L11.75 78.3546C10.8252 79.1432 10.8116 80.5675 11.7213 81.3735L16.2777 85.4107C17.1874 86.2167 17.1739 87.641 16.249 88.4295L11.75 92.2654C10.8252 93.0539 10.8116 94.4782 11.7213 95.2842L16.2777 99.3214C17.1874 100.127 17.1739 101.552 16.249 102.34L11.75 106.176C10.8252 106.965 10.8116 108.389 11.7213 109.195L16.2777 113.232C17.1874 114.038 17.1739 115.462 16.249 116.251L11.75 120.087C10.8252 120.875 10.8116 122.3 11.7213 123.106L16.2777 127.143C17.1874 127.949 17.1739 129.373 16.249 130.162L11.75 133.998C10.8252 134.786 10.8116 136.21 11.7213 137.016L16.2777 141.054C17.1874 141.86 17.1739 143.284 16.249 144.072L11.75 147.908C10.8252 148.697 10.8116 150.121 11.7213 150.927L16.2777 154.964C17.1874 155.77 17.1739 157.195 16.249 157.983L11.75 161.819C10.8252 162.608 10.8116 164.032 11.7213 164.838L16.2777 168.875C17.1874 169.681 17.1739 171.105 16.249 171.894L11.75 175.73C10.8252 176.518 10.8116 177.943 11.7213 178.749L16.2777 182.786C17.1874 183.592 17.1739 185.016 16.249 185.805L11.75 189.641C10.8252 190.429 10.8116 191.853 11.7213 192.659L16.2777 196.697C17.1874 197.503 17.1739 198.927 16.249 199.715L11.7667 203.537C10.8361 204.33 10.8292 205.766 11.7521 206.568L18 212H-1L-1 -94H18Z" fill="#FFFDE6"/>
</svg>
