<svg width="146" height="48" viewBox="0 0 146 48" fill="none" xmlns="http://www.w3.org/2000/svg">
<path d="M140.214 0H6.15155C3.20221 0 0.789062 2.7 0.789062 6.00003V42C0.789062 45.3 3.20217 48 6.15155 48H140.214C143.163 48 145.576 45.3 145.576 42V6.00003C145.576 2.7 143.163 0 140.214 0Z" fill="black"/>
<path fill-rule="evenodd" clip-rule="evenodd" d="M6.15155 0H140.214C143.163 0 145.576 2.7 145.576 6.00003V42C145.576 45.3 143.163 48 140.214 48H6.15155C3.20217 48 0.789062 45.3 0.789062 42V6.00003C0.789062 2.7 3.20221 0 6.15155 0Z" fill="black"/>
<path d="M139.603 47.2976H6.78751C3.89714 47.2976 1.53223 44.6775 1.53223 41.4751V6.53943C1.53223 3.33697 3.89709 0.716797 6.78751 0.716797H139.603C142.493 0.716797 144.858 3.33697 144.858 6.53943V41.475C144.858 44.6775 142.493 47.2976 139.603 47.2976Z" fill="black"/>
<path d="M51.641 12.2917C51.641 13.2971 51.3749 14.0977 50.842 14.6949C50.2366 15.405 49.4477 15.7604 48.4779 15.7604C47.5491 15.7604 46.7594 15.4004 46.11 14.6794C45.4594 13.9589 45.1348 13.0655 45.1348 11.9996C45.1348 10.9332 45.4594 10.0403 46.11 9.31922C46.7594 8.59881 47.5491 8.23828 48.4779 8.23828C48.9387 8.23828 49.3799 8.33913 49.7989 8.54024C50.2178 8.74183 50.5538 9.00944 50.8052 9.34456L50.2395 9.97782C49.8135 9.40831 49.227 9.12377 48.4779 9.12377C47.8005 9.12377 47.2148 9.39008 46.7205 9.92303C46.2261 10.4565 45.9789 11.1483 45.9789 11.9996C45.9789 12.8509 46.2261 13.5427 46.7205 14.0762C47.2148 14.6091 47.8005 14.8754 48.4779 14.8754C49.1964 14.8754 49.7955 14.6077 50.2752 14.0715C50.5865 13.7222 50.7665 13.2367 50.8147 12.6132H48.4778V11.7483H51.5961C51.6262 11.9364 51.6409 12.1168 51.6409 12.2917" fill="white"/>
<path d="M51.6427 12.2925H51.5355C51.5346 13.275 51.2781 14.0381 50.7678 14.6109L50.7667 14.6119L50.7662 14.6129C50.1801 15.2985 49.4267 15.6398 48.4795 15.6413C47.5756 15.6398 46.8189 15.2948 46.1871 14.5954C45.5566 13.8947 45.2449 13.0391 45.2437 12.0004C45.2449 10.9612 45.5566 10.1062 46.1871 9.40593C46.8189 8.70607 47.5756 8.36059 48.4795 8.35913C48.9266 8.35913 49.3522 8.45675 49.7582 8.65122C50.1645 8.84721 50.4855 9.10403 50.7247 9.42287L50.8068 9.34542L50.731 9.26059L50.1654 9.89428L50.2412 9.97868L50.3238 9.90188C49.878 9.30417 49.2522 9.00285 48.4796 9.00463C47.7771 9.00366 47.1591 9.28453 46.6479 9.8377C46.1318 10.3927 45.8725 11.1234 45.8734 12.0004C45.8725 12.8775 46.1318 13.6082 46.6479 14.1632C47.1591 14.7164 47.7771 14.9972 48.4795 14.9962C49.2219 14.9977 49.8546 14.7159 50.3527 14.1572C50.6853 13.784 50.8739 13.2671 50.9233 12.6243L50.9333 12.494H48.5868V11.8692H51.5978V11.7492L51.4922 11.7703C51.5215 11.9522 51.5354 12.1251 51.5354 12.2925H51.7499C51.7499 12.1101 51.7348 11.9227 51.7034 11.7277L51.6875 11.6292H48.3723V12.734H50.8164V12.614L50.7096 12.6037C50.6623 13.2075 50.4905 13.6622 50.201 13.9876C49.7402 14.5013 49.1746 14.7548 48.4796 14.7563C47.8273 14.7553 47.2739 14.504 46.7967 13.9908C46.3242 13.4793 46.0891 12.8264 46.0879 12.0004C46.0891 11.1745 46.3242 10.5215 46.7967 10.0101C47.2739 9.49686 47.8273 9.2456 48.4796 9.24463C49.2048 9.24657 49.7524 9.51466 50.1592 10.0561L50.2346 10.1564L50.8827 9.43031L50.9522 9.35254L50.889 9.26852C50.6254 8.91705 50.2744 8.63807 49.8429 8.43097C49.4105 8.22323 48.9543 8.11914 48.4796 8.11914C47.5261 8.11823 46.7033 8.49321 46.0359 9.2353C45.366 9.97593 45.0284 10.9069 45.0293 12.0004C45.0284 13.0935 45.366 14.025 46.0363 14.7661C46.7033 15.5077 47.5261 15.8822 48.4796 15.8813C49.4725 15.8822 50.2962 15.5132 50.9213 14.7787L50.8437 14.6957L50.9195 14.7806C51.4751 14.1595 51.7507 13.3205 51.75 12.2925H51.6427H51.6427ZM56.5862 9.28497H53.6556V11.5679H56.2984V12.433H53.6556V14.7159H56.5862V15.6004H52.8295V8.40045H56.5862V9.28497" fill="white"/>
<path d="M56.5836 9.28479V9.16479H53.5459V11.6877H56.1886V12.3125L53.5458 12.3128V14.8357H56.4763V15.4803H52.9342V8.52027H56.4763V9.28479H56.5836V9.16479V9.28479H56.6908V8.28027H52.7197V15.7203H56.6908V14.5957H53.7603V12.5528H56.4031V11.4477H53.7603V9.40479H56.6908V9.28479H56.5836V9.28479ZM60.0705 15.6003H59.2431V9.28474H57.4458V8.40022H61.8678V9.28474H60.0705V15.6002" fill="white"/>
<path d="M60.0747 15.6003V15.4803H59.3545V9.16479H57.5573V8.52032H61.7647V9.16479H59.9675V15.6003H60.0747V15.4803V15.6003H60.182V9.40479H61.9792V8.28027H57.3428V9.40473H59.14V15.7202H60.182V15.6002H60.0747V15.6003ZM65.0715 15.6003V8.40022H65.8981V15.6002H65.0715" fill="white"/>
<path d="M65.0721 15.6003H65.1793V8.52027H65.7914V15.4803H65.0721V15.6003H65.1793H65.0721V15.7203H66.0059V8.28027H64.9648V15.7203H65.0721V15.6003V15.6003ZM69.5665 15.6003H68.7391V9.28474H66.9418V8.40022H71.3638V9.28474H69.5665V15.6002" fill="white"/>
<path d="M69.5688 15.5996V15.4796H68.8486V9.16411H67.0514V8.51964H71.2588V9.16411H69.4615V15.5996H69.5688V15.4796V15.5996H69.676V9.4041H71.4733V8.27959H66.8369V9.40405H68.6341V15.7195H69.676V15.5995H69.5688V15.5996ZM75.6292 14.0664C76.1055 14.6058 76.6883 14.8753 77.3775 14.8753C78.0667 14.8753 78.6498 14.6058 79.1253 14.0664C79.6021 13.5269 79.8409 12.8372 79.8409 11.9996C79.8409 11.162 79.6021 10.4724 79.1253 9.93284C78.6498 9.39332 78.0667 9.12377 77.3775 9.12377C76.6883 9.12377 76.1055 9.39332 75.6292 9.93284C75.1537 10.4724 74.915 11.162 74.915 11.9996C74.915 12.8372 75.1537 13.5269 75.6292 14.0664ZM79.737 14.6691C79.1043 15.397 78.3176 15.7604 77.3775 15.7604C76.4365 15.7604 75.6501 15.397 75.0189 14.6691C74.3858 13.942 74.0708 13.052 74.0708 11.9996C74.0708 10.9472 74.3858 10.057 75.0189 9.33006C75.6502 8.60199 76.4365 8.23828 77.3775 8.23828C78.3126 8.23828 79.0972 8.60393 79.7328 9.33475C80.3675 10.0655 80.6851 10.9538 80.6851 11.9996C80.6851 13.052 80.3683 13.942 79.737 14.6691Z" fill="white"/>
<path d="M75.6286 14.0672L75.5523 14.1516C76.0463 14.7127 76.6626 14.9977 77.3769 14.9962C78.0907 14.9977 78.7078 14.7127 79.201 14.1516C79.6982 13.5899 79.9483 12.8634 79.9475 12.0004C79.9482 11.1375 79.6982 10.4109 79.201 9.8493C78.7078 9.2882 78.0907 9.00323 77.3769 9.00463C76.6626 9.00323 76.0463 9.2882 75.5523 9.8493C75.0563 10.4109 74.8057 11.1375 74.807 12.0004C74.8057 12.8633 75.0563 13.5899 75.5523 14.1516L75.6286 14.0672L75.7049 13.9828C75.2499 13.4648 75.0224 12.8132 75.0215 12.0004C75.0224 11.1877 75.2499 10.5361 75.7048 10.0181C76.164 9.50015 76.7124 9.24608 77.3769 9.24468C78.0408 9.24608 78.5905 9.50015 79.0485 10.0181C79.5042 10.5361 79.7317 11.1877 79.7326 12.0004C79.7317 12.8132 79.5042 13.4648 79.0485 13.9828C78.5905 14.5008 78.0409 14.7548 77.3769 14.7562C76.7124 14.7548 76.164 14.5008 75.7048 13.9828L75.6286 14.0672ZM79.7363 14.67L79.6597 14.5866C79.0447 15.2916 78.2927 15.6399 77.3769 15.6413C76.4606 15.6398 75.7086 15.2916 75.0948 14.5866L75.0919 14.5828L75.0948 14.5866C74.4811 13.8792 74.1783 13.0261 74.1774 12.0004C74.1783 10.9748 74.4811 10.1217 75.0948 9.41435C75.7086 8.70931 76.4606 8.36059 77.3769 8.35919C78.2868 8.36059 79.0371 8.71077 79.6555 9.41947C80.2713 10.1301 80.5759 10.9818 80.5772 12.0004C80.5759 13.0261 80.2722 13.8792 79.6597 14.5866L79.7363 14.67L79.8135 14.7533C80.4636 14.0062 80.7924 13.0795 80.7917 12.0004C80.7925 10.9275 80.4623 10.0027 79.8092 9.25223C79.1557 8.49882 78.3371 8.11785 77.3769 8.11914C76.4116 8.11785 75.5905 8.49704 74.9411 9.24754V9.247C74.2897 9.99464 73.962 10.9214 73.9629 12.0004C73.962 13.0795 74.2897 14.0062 74.9411 14.7538L74.944 14.7572L74.9411 14.7533C75.5905 15.5038 76.4116 15.8822 77.3769 15.8813C78.3417 15.8822 79.1628 15.5038 79.8135 14.7533L79.7363 14.67V14.67ZM81.8448 15.6005V8.40039H82.8512L85.9786 14.0015H86.0142L85.9786 12.614V8.40039H86.806V15.6004H85.943L82.671 9.72785H82.6354L82.671 11.1159V15.6004H81.8449" fill="white"/>
<path d="M81.8438 15.6003H81.951V8.52027H82.7906L85.918 14.1214H86.1233L86.0847 12.6121V8.52032H86.6977V15.4803H86.0014L82.7295 9.60773H82.5242L82.5627 11.1177V15.4803H81.8438V15.6003H81.951H81.8438V15.7203H82.7772V11.1139L82.7416 9.72449L82.6343 9.72772V9.84772H82.67V9.72772L82.579 9.79153L85.8824 15.7203H86.9122V8.28027H85.8703V12.6152L85.9059 14.0046L86.0131 14.0014V13.8814H85.9775V14.0014L86.0685 13.9377L82.9095 8.28027H81.7366V15.7203H81.8439V15.6003L81.8438 15.6003ZM115.478 36.0003H117.479V20.9988H115.478L115.478 36.0003ZM133.503 26.4027L131.209 32.9066H131.141L128.76 26.4027H126.604L130.174 35.493L128.139 40.5495H130.227L135.729 26.4027L133.503 26.4027ZM122.154 34.2964C121.498 34.2964 120.584 33.9298 120.584 33.0224C120.584 31.8645 121.723 31.4206 122.705 31.4206C123.586 31.4206 123.999 31.6329 124.534 31.9227C124.379 33.312 123.309 34.2964 122.154 34.2964V34.2964ZM122.396 26.0745C120.947 26.0745 119.446 26.7888 118.825 28.3714L120.601 29.2011C120.981 28.3714 121.688 28.1009 122.43 28.1009C123.465 28.1009 124.517 28.7961 124.534 30.0312V30.1855C124.172 29.9539 123.396 29.6065 122.447 29.6065C120.533 29.6065 118.583 30.7835 118.583 32.9839C118.583 34.9911 120.153 36.2843 121.912 36.2843C123.258 36.2843 123.999 35.6088 124.465 34.8177H124.534V35.9755H126.466V30.2238C126.466 27.5609 124.69 26.0745 122.396 26.0745V26.0745ZM110.028 28.2288H107.181V23.0867H110.028C111.524 23.0867 112.373 24.4728 112.373 25.6577C112.373 26.8203 111.524 28.2288 110.028 28.2288ZM109.976 20.9988H105.181V36.0003H107.181V30.3167H109.976C112.194 30.3167 114.374 28.5199 114.374 25.6577C114.374 22.7956 112.194 20.9988 109.976 20.9988V20.9988ZM83.8275 34.2992C82.4449 34.2992 81.2874 33.004 81.2874 31.2251C81.2874 29.4275 82.4449 28.1127 83.8275 28.1127C85.1925 28.1127 86.2637 29.4275 86.2637 31.2251C86.2637 33.004 85.1925 34.2992 83.8275 34.2992H83.8275ZM86.1254 27.2427H86.0563C85.6072 26.6435 84.7428 26.1022 83.6545 26.1022C81.3737 26.1022 79.2832 28.3447 79.2832 31.2251C79.2832 34.0864 81.3737 36.3097 83.6545 36.3097C84.7428 36.3097 85.6072 35.7682 86.0563 35.1499H86.1254V35.8845C86.1254 37.8374 85.1925 38.8813 83.6893 38.8813C82.4625 38.8813 81.7022 37.895 81.3909 37.0638L79.6461 37.8758C80.1471 39.229 81.4776 40.8917 83.6893 40.8917C86.0391 40.8917 88.0261 39.3448 88.0261 35.5751V26.4116H86.1254V27.2427ZM89.4082 36.0003H91.4125V20.9983H89.4082V36.0003ZM94.3672 31.0512C94.3153 29.0792 95.7322 28.0742 96.7515 28.0742C97.5468 28.0742 98.2204 28.5185 98.4445 29.1571L94.3672 31.0512ZM100.587 29.3501C100.208 28.2091 99.0494 26.1022 96.6823 26.1022C94.3325 26.1022 92.3802 28.1707 92.3802 31.2059C92.3802 34.0672 94.3153 36.3097 96.9069 36.3097C98.9979 36.3097 100.208 34.879 100.709 34.0479L99.1534 32.8877C98.6354 33.7385 97.9265 34.2992 96.9069 34.2992C95.8876 34.2992 95.1621 33.777 94.6953 32.7527L100.794 29.93L100.587 29.3501ZM51.9945 27.6682V29.8334H56.625C56.4868 31.0512 56.1239 31.9405 55.571 32.5592C54.8973 33.3134 53.8433 34.1445 51.9945 34.1445C49.1435 34.1445 46.9148 31.5734 46.9148 28.3835C46.9148 25.1937 49.1435 22.6222 51.9945 22.6222C53.5324 22.6222 54.6552 23.299 55.4846 24.169L56.8496 22.6419C55.6921 21.4043 54.1541 20.4571 51.9945 20.4571C48.0895 20.4571 44.8066 24.0143 44.8066 28.3835C44.8066 32.7527 48.0895 36.3097 51.9945 36.3097C54.1026 36.3097 55.6921 35.5367 56.9359 34.0864C58.2146 32.6557 58.6122 30.6453 58.6122 29.0216C58.6122 28.5185 58.5777 28.055 58.5082 27.6682H51.9945ZM63.8766 34.2992C62.494 34.2992 61.3018 33.0232 61.3018 31.2059C61.3018 29.3693 62.494 28.1127 63.8766 28.1127C65.2586 28.1127 66.4509 29.3693 66.4509 31.2059C66.4509 33.0232 65.2586 34.2992 63.8766 34.2992ZM63.8766 26.1022C61.3537 26.1022 59.2975 28.248 59.2975 31.2059C59.2975 34.1445 61.3537 36.3097 63.8766 36.3097C66.399 36.3097 68.4552 34.1445 68.4552 31.2059C68.4552 28.248 66.399 26.1022 63.8766 26.1022ZM73.8649 34.2992C72.483 34.2992 71.2905 33.0232 71.2905 31.2059C71.2905 29.3693 72.483 28.1127 73.865 28.1127C75.2471 28.1127 76.4394 29.3693 76.4394 31.2059C76.4394 33.0232 75.2471 34.2992 73.865 34.2992H73.8649ZM73.8649 26.1022C71.3421 26.1022 69.2864 28.248 69.2864 31.2059C69.2864 34.1445 71.3421 36.3097 73.865 36.3097C76.3875 36.3097 78.4437 34.1445 78.4437 31.2059C78.4437 28.248 76.3875 26.1022 73.865 26.1022H73.8649Z" fill="white"/>
<path d="M12.0601 9.13368C11.7002 9.49702 11.4854 10.103 11.4854 10.9075V10.7256V37.2709V37.0961C11.4854 37.839 11.6696 38.4127 11.9817 38.7822L12.0614 38.8675V38.8679C12.314 39.1229 12.6379 39.2583 13.0091 39.2579C13.3718 39.2579 13.7799 39.1285 14.2106 38.8553L29.7781 28.9586L35.1254 25.5587C35.8045 25.127 36.1858 24.5702 36.2495 24.0029V24.0006C36.1858 23.4321 35.8045 22.8756 35.1254 22.4439L29.7776 19.0445L14.2106 9.14771C13.779 8.87401 13.3706 8.74414 13.0069 8.74414C12.6362 8.74414 12.3127 8.87913 12.0602 9.13368H12.0601Z" fill="#00C1FF"/>
<path d="M12.0614 38.8672L11.9817 38.7819C11.6696 38.4124 11.4854 37.8387 11.4854 37.0958V37.2706V10.7319V10.9072C11.4854 10.1027 11.7002 9.4967 12.0601 9.13337L25.3481 24.0008L12.0614 38.8672Z" fill="url(#paint0_linear_2187_16)"/>
<path d="M29.7717 28.959L25.3418 24.0015L29.7713 19.0449L35.1191 22.4443C35.7982 22.8761 36.1794 23.4325 36.2432 24.0011V24.0033C36.1794 24.5706 35.7982 25.1275 35.1191 25.5591L29.7718 28.9589" fill="url(#paint1_linear_2187_16)"/>
<path d="M13.0091 39.2578C12.638 39.2582 12.3141 39.1227 12.0615 38.8677V38.8674L25.3482 24.0009L29.7782 28.9584L14.2106 38.8552C13.7799 39.1284 13.3719 39.2578 13.0091 39.2578Z" fill="url(#paint2_linear_2187_16)"/>
<path d="M25.3496 24.001L12.0615 9.13358C12.3141 8.87902 12.6376 8.74403 13.0083 8.74403C13.372 8.74403 13.7804 8.87385 14.212 9.1476L29.7791 19.0444L25.3496 24.001" fill="url(#paint3_linear_2187_16)"/>
<path d="M13.0082 39.4346C12.637 39.4346 12.3127 39.2991 12.0601 39.0441L12.0596 39.0445C12.0586 39.0434 12.0575 39.0423 12.0563 39.0413L11.9872 38.9658C11.9851 38.9634 11.983 38.9607 11.9805 38.9579L12.0601 38.8688C12.3127 39.1238 12.6366 39.2592 13.0078 39.2588C13.3705 39.2588 13.7786 39.1294 14.2093 38.8562L29.7768 28.9594L29.8765 29.071L29.7755 29.1352L14.2092 39.0314C13.8167 39.2804 13.4434 39.4102 13.1062 39.4318C13.0735 39.4336 13.0409 39.4345 13.0082 39.4345" fill="url(#paint4_linear_2187_16)"/>
<path d="M11.9817 38.957C11.6696 38.5876 11.4854 38.0143 11.4854 37.2709V37.0961C11.4854 37.839 11.6696 38.4127 11.9817 38.7822L12.0614 38.8675L11.9817 38.957" fill="url(#paint5_linear_2187_16)"/>
<path d="M29.8781 29.0693L29.7783 28.9576L35.1256 25.5578C35.8048 25.1262 36.186 24.5693 36.2498 24.002C36.2498 24.2102 36.2082 24.4183 36.1258 24.6209C35.9594 25.0292 35.626 25.4149 35.1257 25.7332L29.8781 29.0693" fill="url(#paint6_linear_2187_16)"/>
<path d="M36.2502 24.001C36.1865 23.4324 35.8052 22.876 35.1261 22.4442L29.7783 19.0448L29.8781 18.9332H29.8785L35.1261 22.2694C35.8748 22.7456 36.2498 23.3732 36.2502 24.001" fill="url(#paint7_linear_2187_16)"/>
<path d="M11.4854 10.9072V10.7239C11.4854 10.6577 11.4869 10.5931 11.49 10.5303V10.5274C11.49 10.5266 11.49 10.5257 11.4903 10.5247V10.5176C11.5226 9.87774 11.7002 9.37861 11.9817 9.04532L12.0601 9.13339C11.7002 9.49677 11.4854 10.1028 11.4854 10.9072Z" fill="url(#paint8_linear_2187_16)"/>
<path d="M29.7764 19.0449L14.2093 9.14806C13.7777 8.87437 13.3693 8.74455 13.0057 8.74455C12.6349 8.74455 12.3114 8.87954 12.0589 9.1341L11.9805 9.04597C12.005 9.01697 12.0304 8.989 12.0567 8.96211C12.0576 8.96114 12.0589 8.96017 12.0597 8.95925C12.3103 8.70664 12.6303 8.57165 12.9977 8.56922H13.0057C13.3693 8.56922 13.7777 8.69909 14.2093 8.9729L29.8765 18.9329L29.8761 18.9333L29.7764 19.0449" fill="url(#paint9_linear_2187_16)"/>
<defs>
<linearGradient id="paint0_linear_2187_16" x1="19.9772" y1="10.4514" x2="7.26095" y2="21.8532" gradientUnits="userSpaceOnUse">
<stop stop-color="#00A0FF"/>
<stop offset="0.00657" stop-color="#00A1FF"/>
<stop offset="0.2601" stop-color="#00BEFF"/>
<stop offset="0.5122" stop-color="#00D2FF"/>
<stop offset="0.7604" stop-color="#00DFFF"/>
<stop offset="1" stop-color="#00E3FF"/>
</linearGradient>
<linearGradient id="paint1_linear_2187_16" x1="37.0706" y1="23.9159" x2="11.1194" y2="23.9159" gradientUnits="userSpaceOnUse">
<stop stop-color="#FFE000"/>
<stop offset="0.4087" stop-color="#FFBD00"/>
<stop offset="0.7754" stop-color="#FFA500"/>
<stop offset="1" stop-color="#FF9C00"/>
</linearGradient>
<linearGradient id="paint2_linear_2187_16" x1="27.4263" y1="28.7143" x2="5.89503" y2="47.8789" gradientUnits="userSpaceOnUse">
<stop stop-color="#FF3A44"/>
<stop offset="1" stop-color="#C31162"/>
</linearGradient>
<linearGradient id="paint3_linear_2187_16" x1="8.63682" y1="6.92941" x2="18.2344" y2="15.4852" gradientUnits="userSpaceOnUse">
<stop stop-color="#32A071"/>
<stop offset="0.0685" stop-color="#2DA771"/>
<stop offset="0.4762" stop-color="#15CF74"/>
<stop offset="0.8009" stop-color="#06E775"/>
<stop offset="1" stop-color="#00F076"/>
</linearGradient>
<linearGradient id="paint4_linear_2187_16" x1="27.4152" y1="32.1541" x2="10.158" y2="47.6276" gradientUnits="userSpaceOnUse">
<stop stop-color="#CC2E36"/>
<stop offset="1" stop-color="#9C0E4E"/>
</linearGradient>
<linearGradient id="paint5_linear_2187_16" x1="13.2555" y1="10.4517" x2="2.05265" y2="20.4967" gradientUnits="userSpaceOnUse">
<stop stop-color="#008DE0"/>
<stop offset="0.00657" stop-color="#008DE0"/>
<stop offset="0.2601" stop-color="#00A7E0"/>
<stop offset="0.5122" stop-color="#00B8E0"/>
<stop offset="0.7604" stop-color="#00C4E0"/>
<stop offset="1" stop-color="#00C7E0"/>
</linearGradient>
<linearGradient id="paint6_linear_2187_16" x1="37.0772" y1="24.0009" x2="11.126" y2="24.0009" gradientUnits="userSpaceOnUse">
<stop stop-color="#E0C500"/>
<stop offset="0.4087" stop-color="#E0A600"/>
<stop offset="0.7754" stop-color="#E09100"/>
<stop offset="1" stop-color="#E08900"/>
</linearGradient>
<linearGradient id="paint7_linear_2187_16" x1="37.0776" y1="24.0022" x2="11.1265" y2="24.0022" gradientUnits="userSpaceOnUse">
<stop stop-color="#FFE840"/>
<stop offset="0.4087" stop-color="#FFCE40"/>
<stop offset="0.7754" stop-color="#FFBC40"/>
<stop offset="1" stop-color="#FFB540"/>
</linearGradient>
<linearGradient id="paint8_linear_2187_16" x1="13.2446" y1="10.4718" x2="2.50666" y2="19.6828" gradientUnits="userSpaceOnUse">
<stop stop-color="#40B8FF"/>
<stop offset="0.00657" stop-color="#40B9FF"/>
<stop offset="0.2601" stop-color="#40CEFF"/>
<stop offset="0.5122" stop-color="#40DDFF"/>
<stop offset="0.7604" stop-color="#40E7FF"/>
<stop offset="1" stop-color="#40EAFF"/>
</linearGradient>
<linearGradient id="paint9_linear_2187_16" x1="8.61475" y1="10.0741" x2="16.3209" y2="16.9838" gradientUnits="userSpaceOnUse">
<stop stop-color="#65B895"/>
<stop offset="0.0685" stop-color="#62BD95"/>
<stop offset="0.4762" stop-color="#50DB97"/>
<stop offset="0.8009" stop-color="#44ED98"/>
<stop offset="1" stop-color="#40F498"/>
</linearGradient>
</defs>
</svg>
