<svg width="16" height="16" viewBox="0 0 16 16" fill="none" xmlns="http://www.w3.org/2000/svg">
<path d="M13.3307 14C13.3307 13.0696 13.3307 12.6044 13.2159 12.2259C12.9574 11.3736 12.2904 10.7067 11.4382 10.4482C11.0596 10.3333 10.5944 10.3333 9.66406 10.3333H6.33073C5.40035 10.3333 4.93517 10.3333 4.55663 10.4482C3.70437 10.7067 3.03742 11.3736 2.77889 12.2259C2.66406 12.6044 2.66406 13.0696 2.66406 14M10.9974 5C10.9974 6.65685 9.65425 8 7.9974 8C6.34054 8 4.9974 6.65685 4.9974 5C4.9974 3.34315 6.34054 2 7.9974 2C9.65425 2 10.9974 3.34315 10.9974 5Z" stroke="#24262D" stroke-width="1.5" stroke-linecap="round" stroke-linejoin="round"/>
</svg>
