<svg width="20" height="20" viewBox="0 0 20 20" fill="none" xmlns="http://www.w3.org/2000/svg">
<path d="M15.0338 6.44794V4.99995C15.0338 2.24397 12.7898 0 10.0338 0C7.27778 0 5.03377 2.24397 5.03377 4.99995V6.44794C4.48975 6.61993 4.09375 7.11993 4.09375 7.71992V8.69992C4.09375 9.4399 4.69375 10.0439 5.43377 10.0439H6.02577C6.12176 10.0439 6.20975 10.0039 6.27777 9.9439C7.06176 11.7479 8.46577 12.9799 10.0338 12.9799C11.3418 12.9799 12.5378 12.1199 13.3538 10.7879C13.8698 10.5719 14.1458 10.2679 14.2858 10.0439H14.6338C15.3738 10.0439 15.9778 9.4399 15.9778 8.69992V7.71992C15.9778 7.11993 15.5778 6.61993 15.0338 6.44794ZM12.8058 10.1399C12.2818 10.2959 11.4458 10.3519 10.1218 10.0559C9.90579 10.0079 9.69378 10.1439 9.64578 10.3599C9.59778 10.5759 9.73379 10.7879 9.94578 10.8359C10.6778 10.9999 11.2898 11.0639 11.8018 11.0639C11.9338 11.0639 12.0538 11.0599 12.1738 11.0519C11.5658 11.7519 10.8218 12.1799 10.0338 12.1799C8.10976 12.1799 6.42577 9.6399 6.42577 6.73993C6.42577 4.17196 7.77377 2.63596 10.0338 2.63596C12.2938 2.63596 13.6458 4.17196 13.6458 6.73993C13.6458 7.99993 13.3258 9.19191 12.8058 10.1399ZM14.2338 5.01194C13.6258 2.70398 11.7818 1.83597 10.0338 1.83597C8.28977 1.83597 6.44576 2.69997 5.83377 4.99995C5.83377 2.68396 7.71777 0.799993 10.0338 0.799993C12.3498 0.799993 14.2338 2.68396 14.2338 4.99995V5.01194Z" fill="#FF7700"/>
<path d="M18.0561 17.5239V19.5999C18.0561 19.8239 17.8761 19.9999 17.6561 19.9999H14.6241V17.5959C14.6241 17.3719 14.4441 17.1959 14.2241 17.1959C14.0001 17.1959 13.8241 17.3719 13.8241 17.5959V19.9999H6.23601V17.5959C6.23601 17.3719 6.056 17.1959 5.83601 17.1959C5.61601 17.1959 5.436 17.3719 5.436 17.5959V19.9999H2.4C2.17998 19.9999 2 19.8239 2 19.5999V17.5239C2 14.7679 4.10001 12.4919 6.78 12.2119C7.69602 13.2079 8.84002 13.7799 10.028 13.7799C11.22 13.7799 12.36 13.2199 13.28 12.2119C15.9641 12.4959 18.0561 14.7679 18.0561 17.5239Z" fill="#0F4CA4"/>
</svg>
