<svg width="44" height="44" viewBox="0 0 44 44" fill="none" xmlns="http://www.w3.org/2000/svg">
<path d="M42.459 27.3362H11.547V29.3202H42.459V27.3362Z" fill="#78879A"/>
<path d="M15.9009 30.2802C17.244 30.2802 18.3329 29.1914 18.3329 27.8482C18.3329 26.5051 17.244 25.4162 15.9009 25.4162C14.5577 25.4162 13.4689 26.5051 13.4689 27.8482C13.4689 29.1914 14.5577 30.2802 15.9009 30.2802Z" fill="#45494A"/>
<path d="M21.2134 30.2802C22.5565 30.2802 23.6454 29.1914 23.6454 27.8482C23.6454 26.5051 22.5565 25.4162 21.2134 25.4162C19.8702 25.4162 18.7814 26.5051 18.7814 27.8482C18.7814 29.1914 19.8702 30.2802 21.2134 30.2802Z" fill="#45494A"/>
<path d="M32.1548 30.2802C33.4979 30.2802 34.5868 29.1914 34.5868 27.8482C34.5868 26.5051 33.4979 25.4162 32.1548 25.4162C30.8116 25.4162 29.7228 26.5051 29.7228 27.8482C29.7228 29.1914 30.8116 30.2802 32.1548 30.2802Z" fill="#45494A"/>
<path d="M37.854 30.2802C39.1972 30.2802 40.286 29.1914 40.286 27.8482C40.286 26.5051 39.1972 25.4162 37.854 25.4162C36.5108 25.4162 35.422 26.5051 35.422 27.8482C35.422 29.1914 36.5108 30.2802 37.854 30.2802Z" fill="#45494A"/>
<path d="M41.6921 13.0002H21.9801C15.9001 13.0002 5.08412 19.2722 1.50012 26.5042V27.4002V27.7842V29.0642C1.50012 29.7042 2.01212 30.2802 2.71612 30.2802H11.6121V28.6162H41.6921C42.1401 28.6162 42.4601 28.2322 42.4601 27.8482V13.8322C42.4601 13.3842 42.0761 13.0002 41.6921 13.0002Z" fill="#CDD0D1"/>
<path d="M41.6917 13.0002H21.9797C20.1237 13.0002 17.8837 13.5762 15.5157 14.6002V15.1122H42.4597V13.8322C42.4597 13.3842 42.0757 13.0002 41.6917 13.0002Z" fill="#78879A"/>
<path d="M1.56262 26.3768H42.4586V24.3928H2.77862C2.33062 25.0328 1.94662 25.7368 1.56262 26.3768Z" fill="#AFB4B5"/>
<path d="M1.88293 25.799C4.12294 25.927 6.68294 25.671 9.30694 25.031C16.6029 23.303 21.9149 19.143 21.0829 15.815C20.8269 14.791 20.0589 14.023 18.9709 13.383C13.0829 14.855 5.21094 19.911 1.88293 25.799Z" fill="#45494A"/>
<path d="M11.9331 21.8974C14.6851 21.3854 17.3091 20.7454 19.4851 19.9134C20.7651 18.5694 21.4051 17.1614 21.0851 15.8814C20.8291 14.8574 20.0611 14.0894 18.9731 13.4494C14.1731 14.6014 8.02912 18.1854 4.12512 22.6654C6.62112 22.6014 9.24512 22.3454 11.9331 21.8974Z" fill="#4187E2"/>
<path d="M29.0206 18.0549H22.6846C22.3006 18.0549 21.9806 18.3749 21.9806 18.7589V21.1269C21.9806 21.5109 22.3006 21.8309 22.6846 21.8309H29.0206C29.4046 21.8309 29.7246 21.5109 29.7246 21.1269V18.7589C29.7246 18.3109 29.4046 18.0549 29.0206 18.0549ZM38.6206 18.0549H32.2846C31.9006 18.0549 31.5806 18.3749 31.5806 18.7589V21.1269C31.5806 21.5109 31.9006 21.8309 32.2846 21.8309H38.6206C39.0046 21.8309 39.3246 21.5109 39.3246 21.1269V18.7589C39.3246 18.3109 39.0046 18.0549 38.6206 18.0549Z" fill="#78879A"/>
<path d="M29.0206 18.0549H22.6846C22.3006 18.0549 21.9806 18.3749 21.9806 18.7589V21.1269C21.9806 21.5109 22.3006 21.8309 22.6846 21.8309H29.0206C29.4046 21.8309 29.7246 21.5109 29.7246 21.1269V18.7589C29.7246 18.3109 29.4046 18.0549 29.0206 18.0549ZM38.6206 18.0549H32.2846C31.9006 18.0549 31.5806 18.3749 31.5806 18.7589V21.1269C31.5806 21.5109 31.9006 21.8309 32.2846 21.8309H38.6206C39.0046 21.8309 39.3246 21.5109 39.3246 21.1269V18.7589C39.3246 18.3109 39.0046 18.0549 38.6206 18.0549Z" fill="#78879A"/>
<path d="M29.0206 21.1925H22.6846C22.3006 21.1925 21.9806 20.8725 21.9806 20.4885V21.0645C21.9806 21.4485 22.3006 21.7685 22.6846 21.7685H29.0206C29.4046 21.7685 29.7246 21.4485 29.7246 21.0645V20.4885C29.7246 20.8725 29.4046 21.1925 29.0206 21.1925ZM38.6206 21.1925H32.2846C31.9006 21.1925 31.5806 20.8725 31.5806 20.4885V21.0645C31.5806 21.4485 31.9006 21.7685 32.2846 21.7685H38.6206C39.0046 21.7685 39.3246 21.4485 39.3246 21.0645V20.4885C39.3246 20.8725 39.0046 21.1925 38.6206 21.1925Z" fill="#59687C"/>
</svg>
