<svg width="44" height="44" viewBox="0 0 44 44" fill="none" xmlns="http://www.w3.org/2000/svg">
<g clip-path="url(#clip0_4563_5485)">
<path d="M29.5979 18.5249L22.0452 16.6644L18.9487 17.6489L22.1147 20.9042L29.5979 18.5249Z" fill="#78879A"/>
<path d="M36.7971 15.2425C37.4422 15.0374 38.1694 15.0903 38.744 15.3338L42.0218 16.7067C43.3411 17.2817 44.0269 18.7684 43.6015 20.1112C43.311 20.9849 42.616 21.7031 41.7128 21.9903L11.9092 31.4664C8.81273 32.451 5.4324 30.7555 4.42735 27.5945L3.81202 25.6592L36.7766 15.178L36.7971 15.2425Z" fill="#AFB6B8"/>
<path d="M36.7976 15.2425C37.4427 15.0374 38.1699 15.0903 38.7445 15.3338L42.0223 16.7067C42.9165 17.0617 43.5057 17.7978 43.6433 18.6774C43.3532 17.9883 42.805 17.3813 42.1454 17.0938L38.8676 15.7209C38.2284 15.4979 37.5658 15.4245 36.9207 15.6296L3.95609 26.1108L3.83302 25.7237L36.7976 15.2425Z" fill="#CDD0D1"/>
<path d="M38.5122 16.6154L40.383 16.0206L42.0219 16.7071C42.4265 16.8625 42.7226 17.1236 43.0392 17.4491L39.7492 18.4952C39.5556 18.5567 39.3416 18.5537 39.2155 18.3807L38.3273 17.5976C37.9462 17.2926 38.0606 16.759 38.5122 16.6154Z" fill="#0C4DA2"/>
<path d="M35.7647 20.0451C35.1234 20.249 34.4382 19.8944 34.2343 19.2531C34.0304 18.6118 34.385 17.9266 35.0263 17.7227C35.6676 17.5188 36.3528 17.8734 36.5567 18.5147C36.7606 19.156 36.406 19.8412 35.7647 20.0451Z" fill="#0C4DA2"/>
<path d="M32.0889 21.215C31.4476 21.4189 30.7625 21.0643 30.5586 20.423C30.3547 19.7817 30.7092 19.0965 31.3505 18.8926C31.9918 18.6887 32.677 19.0433 32.8809 19.6846C33.0848 20.3259 32.7302 21.0111 32.0889 21.215Z" fill="#0C4DA2"/>
<path d="M28.4757 22.3634C27.8344 22.5673 27.1492 22.2128 26.9453 21.5715C26.7414 20.9302 27.096 20.245 27.7373 20.0411C28.3786 19.8372 29.0637 20.1918 29.2676 20.8331C29.4715 21.4744 29.117 22.1595 28.4757 22.3634Z" fill="#0C4DA2"/>
<path d="M24.8624 23.5119C24.2211 23.7158 23.5359 23.3612 23.332 22.7199C23.1281 22.0786 23.4827 21.3934 24.124 21.1895C24.7653 20.9856 25.4505 21.3402 25.6544 21.9815C25.8583 22.6228 25.5037 23.308 24.8624 23.5119Z" fill="#0C4DA2"/>
<path d="M21.1866 24.6798C20.5453 24.8837 19.8601 24.5292 19.6562 23.8879C19.4523 23.2466 19.8069 22.5614 20.4482 22.3575C21.0895 22.1536 21.7747 22.5082 21.9786 23.1495C22.1825 23.7908 21.8279 24.4759 21.1866 24.6798Z" fill="#0C4DA2"/>
<path d="M17.5733 25.8283C16.932 26.0322 16.2468 25.6776 16.0429 25.0363C15.839 24.395 16.1936 23.7098 16.8349 23.5059C17.4762 23.302 18.1614 23.6566 18.3653 24.2979C18.5692 24.9392 18.2146 25.6244 17.5733 25.8283Z" fill="#0C4DA2"/>
<path d="M32.457 22.375L22.0064 25.6978L11.534 35.2073L15.2756 34.0177L32.457 22.375Z" fill="#78879A"/>
<path d="M4.44734 27.6587L11.5434 25.4025L4.41421 17.7248L0.156554 19.0786L4.44734 27.6587Z" fill="#4187E2"/>
<path d="M5.46208 28.4016L10.8164 26.6992L5.39692 31.5478L2.62299 32.4297L5.46208 28.4016Z" fill="#78879A"/>
</g>
<defs>
<clipPath id="clip0_4563_5485">
<rect width="44" height="44" fill="white"/>
</clipPath>
</defs>
</svg>
