<svg width="45" height="44" viewBox="0 0 45 44" fill="none" xmlns="http://www.w3.org/2000/svg">
<path fill-rule="evenodd" clip-rule="evenodd" d="M16.9915 7.92217L16.2385 8.95041C16.0992 9.14058 16.0412 9.37829 16.0772 9.61124C16.1132 9.84418 16.2402 10.0533 16.4304 10.1926C16.6206 10.3318 16.8583 10.3899 17.0912 10.3539C17.3242 10.3179 17.5333 10.1908 17.6726 10.0006L19.0653 8.0981C19.717 7.20847 19.0553 5.88768 17.8785 6.00763C13.5629 6.44678 10.7528 8.342 9.07078 10.6577C7.41014 12.9421 6.88502 15.5837 7.0203 17.5075C7.02848 17.6239 7.05951 17.7376 7.11161 17.842C7.16371 17.9464 7.23586 18.0395 7.32395 18.116C7.41203 18.1925 7.51433 18.2509 7.62499 18.2879C7.73565 18.3249 7.85252 18.3397 7.96891 18.3315C8.0853 18.3233 8.19894 18.2923 8.30334 18.2402C8.40773 18.1881 8.50085 18.116 8.57737 18.0279C8.65388 17.9398 8.7123 17.8375 8.74928 17.7268C8.78626 17.6162 8.80108 17.4993 8.7929 17.3829C8.68428 15.8402 9.1141 13.6205 10.5082 11.7019C11.7477 9.99598 13.7795 8.48527 16.9915 7.92217ZM27.5125 35.7173L28.3235 34.7344C28.4734 34.5526 28.545 34.3187 28.5226 34.0841C28.5001 33.8496 28.3853 33.6335 28.2035 33.4836C28.0217 33.3336 27.7878 33.262 27.5533 33.2845C27.3187 33.307 27.1027 33.4218 26.9527 33.6035L25.4527 35.4228C24.751 36.2738 25.3354 37.6305 26.5176 37.5785C30.8511 37.388 33.7652 35.6567 35.5778 33.4423C37.3664 31.2565 38.0434 28.6496 38.0188 26.7217C38.0173 26.6051 37.9929 26.4898 37.947 26.3826C37.901 26.2754 37.8343 26.1783 37.7508 26.0968C37.6673 26.0154 37.5686 25.9511 37.4603 25.9078C37.3519 25.8645 37.2361 25.843 37.1195 25.8444C37.0028 25.8459 36.8876 25.8703 36.7804 25.9162C36.6732 25.9622 36.5761 26.0289 36.4946 26.1124C36.4131 26.1959 36.3489 26.2946 36.3056 26.4029C36.2623 26.5113 36.2407 26.6271 36.2422 26.7437C36.2615 28.2897 35.7051 30.4822 34.203 32.3167C32.8669 33.9487 30.7511 35.3401 27.5125 35.718V35.7173Z" fill="#0C4DA2"/>
<path fill-rule="evenodd" clip-rule="evenodd" d="M26.2859 27.6906C31.1932 27.6906 35.1708 23.7122 35.1708 18.8049C35.1708 13.8976 31.1925 9.91992 26.2859 9.91992C21.9863 9.91992 18.4005 12.9733 17.5781 17.0303C22.4028 17.1236 26.2859 21.0653 26.2859 25.9133C26.2859 26.521 26.2245 27.1148 26.1086 27.6886C26.1672 27.6899 26.2265 27.6906 26.2859 27.6906Z" fill="#0C4DA2"/>
<path fill-rule="evenodd" clip-rule="evenodd" d="M22.5162 19.3758C22.5162 18.9742 22.842 18.6484 23.2436 18.6484H24.7755C24.9685 18.6484 25.1536 18.725 25.2901 18.8615C25.4266 18.998 25.5032 19.1831 25.5032 19.3761C25.5032 19.5691 25.4266 19.7542 25.2901 19.8907C25.1536 20.0272 24.9685 20.1038 24.7755 20.1038H23.2436C23.1481 20.1038 23.0534 20.085 22.9651 20.0484C22.8768 20.0118 22.7966 19.9582 22.729 19.8906C22.6615 19.823 22.6079 19.7427 22.5714 19.6544C22.5349 19.5661 22.5161 19.4714 22.5162 19.3758ZM22.5162 14.7807C22.5162 14.3785 22.842 14.0527 23.2436 14.0527H28.9886C29.1816 14.0527 29.3667 14.1294 29.5032 14.2659C29.6396 14.4024 29.7163 14.5875 29.7163 14.7805C29.7163 14.9735 29.6396 15.1586 29.5032 15.2951C29.3667 15.4315 29.1816 15.5082 28.9886 15.5082H23.2431C23.1475 15.5082 23.0529 15.4894 22.9646 15.4528C22.8763 15.4162 22.7961 15.3626 22.7285 15.2949C22.6609 15.2273 22.6074 15.1471 22.5708 15.0588C22.5343 14.9704 22.5156 14.8758 22.5156 14.7802L22.5162 14.7807ZM22.5162 17.0783C22.5162 16.6766 22.842 16.3508 23.2436 16.3508H28.9886C29.1816 16.3508 29.3667 16.4275 29.5032 16.564C29.6396 16.7004 29.7163 16.8855 29.7163 17.0786C29.7163 17.2716 29.6396 17.4567 29.5032 17.5931C29.3667 17.7296 29.1816 17.8063 28.9886 17.8063H23.2431C23.1475 17.8063 23.0529 17.7875 22.9646 17.7509C22.8763 17.7143 22.7961 17.6606 22.7285 17.593C22.6609 17.5254 22.6074 17.4452 22.5708 17.3568C22.5343 17.2685 22.5156 17.1739 22.5156 17.0783H22.5162Z" fill="#F5F4EF"/>
<path fill-rule="evenodd" clip-rule="evenodd" d="M22.7295 18.8613C23.0133 18.5775 23.4739 18.5775 23.7582 18.8613L27.8201 22.9232C27.8877 22.9907 27.9413 23.0709 27.9779 23.1592C28.0145 23.2474 28.0333 23.3421 28.0333 23.4376C28.0333 23.5332 28.0146 23.6278 27.978 23.7161C27.9415 23.8043 27.8879 23.8846 27.8203 23.9522C27.7528 24.0197 27.6726 24.0733 27.5843 24.1099C27.4961 24.1465 27.4015 24.1654 27.3059 24.1654C27.2104 24.1654 27.1157 24.1466 27.0275 24.1101C26.9392 24.0735 26.8589 24.02 26.7914 23.9524L22.7289 19.8905C22.6613 19.823 22.6077 19.7427 22.5711 19.6544C22.5345 19.5661 22.5156 19.4715 22.5156 19.3759C22.5156 19.2803 22.5345 19.1857 22.5711 19.0974C22.6077 19.0091 22.6619 18.9288 22.7295 18.8613Z" fill="#F5F4EF"/>
<path fill-rule="evenodd" clip-rule="evenodd" d="M26.3476 17.0783C26.3476 16.2651 25.6146 15.5082 24.5859 15.5082V14.0527C26.3066 14.0527 27.8025 15.3538 27.8025 17.0783C27.8025 18.8028 26.3066 20.1038 24.5859 20.1038V18.6484C25.6146 18.6484 26.3476 17.8914 26.3476 17.0783Z" fill="#F5F4EF"/>
<path d="M26.2863 25.9123C26.2863 30.8196 22.3079 34.798 17.4006 34.798C12.494 34.798 8.51562 30.8196 8.51562 25.9123C8.51562 21.005 12.494 17.0273 17.4013 17.0273C22.3079 17.0273 26.2863 21.0057 26.2863 25.9123Z" fill="#FF7700"/>
<path fill-rule="evenodd" clip-rule="evenodd" d="M17.399 17.9153C12.9821 17.9153 9.40226 21.4958 9.40226 25.912C9.40226 30.3288 12.9821 33.9086 17.399 33.9086C21.8151 33.9086 25.3956 30.3288 25.3956 25.912C25.3956 21.4958 21.8151 17.9153 17.399 17.9153ZM7.625 25.912C7.625 20.5142 12.0005 16.1387 17.399 16.1387C22.7967 16.1387 27.1722 20.5142 27.1722 25.912C27.1722 31.3097 22.7967 35.6859 17.399 35.6859C12.0012 35.6859 7.625 31.3097 7.625 25.912Z" fill="#FF7700"/>
<path d="M16.3331 31.4119V30.4933C15.152 30.362 14.1022 29.9027 13.1836 29.1154L14.1022 27.9999C14.8239 28.6561 15.5457 28.9841 16.3331 29.1154V26.622C15.3489 26.3596 13.5117 25.7691 13.5117 23.9975C13.5117 21.9635 15.4801 21.4385 16.3331 21.3729V20.7168H17.186V21.3729C18.1046 21.4385 19.0232 21.7666 19.8762 22.3571L19.0232 23.5382C18.4327 23.1445 17.8422 22.8821 17.186 22.8164V25.2442C17.186 25.2442 20.073 25.7691 20.073 27.9343C20.073 29.9683 18.039 30.4933 17.186 30.5589V31.4775H16.3331V31.4119ZM15.0864 23.8663C15.0864 24.7849 15.8738 24.8505 16.3331 25.0473V22.8164C15.9394 22.8164 15.0864 23.0789 15.0864 23.8663ZM18.4983 27.9999C18.4983 27.2126 17.6453 26.9501 17.186 26.8189V29.1154C17.5797 29.1154 18.4983 28.8529 18.4983 27.9999Z" fill="#0C4DA2"/>
</svg>
