<svg width="20" height="20" viewBox="0 0 20 20" fill="none" xmlns="http://www.w3.org/2000/svg">
<g clip-path="url(#clip0_8061_109620)">
<path d="M1.66406 9.99935H18.3307M1.66406 9.99935C1.66406 14.6017 5.39502 18.3327 9.9974 18.3327M1.66406 9.99935C1.66406 5.39698 5.39502 1.66602 9.9974 1.66602M18.3307 9.99935C18.3307 14.6017 14.5998 18.3327 9.9974 18.3327M18.3307 9.99935C18.3307 5.39698 14.5998 1.66602 9.9974 1.66602M9.9974 1.66602C12.0818 3.94798 13.2664 6.90938 13.3307 9.99935C13.2664 13.0893 12.0818 16.0507 9.9974 18.3327M9.9974 1.66602C7.913 3.94798 6.72844 6.90938 6.66406 9.99935C6.72844 13.0893 7.913 16.0507 9.9974 18.3327" stroke="#24262D" stroke-width="1.5" stroke-linecap="round" stroke-linejoin="round"/>
</g>
<defs>
<clipPath id="clip0_8061_109620">
<rect width="20" height="20" fill="white"/>
</clipPath>
</defs>
</svg>
