<svg width="44" height="44" viewBox="0 0 44 44" fill="none" xmlns="http://www.w3.org/2000/svg">
<path d="M27.1827 35.4311L26.0077 34.9611L23.1289 31.9648H23.9514L27.1827 35.4311Z" fill="#4187E2"/>
<path d="M25.5981 31.377L28.7119 34.902L27.1844 35.4307L23.9531 31.9645L25.5981 31.377Z" fill="#0C4DA2"/>
<path d="M11.0878 40.6028L10.3828 40.3091L11.5578 36.2553L13.0853 35.7266L11.8516 39.7216L11.0878 40.6028Z" fill="#4187E2"/>
<path d="M12.3236 36.2538L11.0898 40.6013H12.5586L14.1448 35.5488L12.3236 36.2538Z" fill="#0C4DA2"/>
<path d="M4.27156 38.0755L3.50781 37.7817L4.68281 33.728L6.21031 33.1992L4.97656 37.1942L4.27156 38.0755Z" fill="#4187E2"/>
<path d="M5.44453 33.7263L4.26953 38.0738H5.73828L7.26578 33.0801L5.44453 33.7263Z" fill="#0C4DA2"/>
<path d="M20.8392 23.916L28.888 24.9735L26.303 30.3785L18.1367 28.9098L20.8392 23.916Z" fill="#FF7700"/>
<path d="M26.3028 30.3789L11.0866 35.7252L3.50781 33.6689L18.1366 28.9102L26.3028 30.3789Z" fill="#FFC591"/>
<path d="M28.8897 24.9746L29.5359 25.5621L26.8922 30.9084L26.3047 30.3796L28.8897 24.9746Z" fill="#0C4DA2"/>
<path d="M26.3022 30.3789L11.0859 35.7252V36.6652L26.8897 30.9077L26.3022 30.3789Z" fill="#4187E2"/>
<path d="M3.50781 33.6699V34.4337L11.0866 36.6662V35.7262L3.50781 33.6699Z" fill="#0C4DA2"/>
<path d="M28.4756 7.99414H27.3594V39.8366H28.4756V7.99414Z" fill="#78879A"/>
<path d="M41.1055 18.5092C39.1667 13.0455 33.9967 9.16797 27.8867 9.16797C21.7767 9.16797 16.6067 13.0455 14.668 18.4505H41.1055V18.5092Z" fill="#4187E2"/>
<path d="M37.2883 18.5092C35.937 13.0455 32.2358 9.16797 27.8883 9.16797C23.5408 9.16797 19.8395 13.0455 18.4883 18.4505H37.2883V18.5092Z" fill="#F5F4EF"/>
<path d="M33.5848 18.5092C32.7036 13.0455 30.5298 9.16797 27.8861 9.16797C25.2423 9.16797 23.0686 13.0455 22.2461 18.4505H33.5848V18.5092Z" fill="#4187E2"/>
<path d="M29.7678 18.5092C29.5328 13.0455 28.7691 9.16797 27.8878 9.16797C27.0066 9.16797 26.3016 13.0455 26.0078 18.4505H29.7678V18.5092Z" fill="#F5F4EF"/>
<path d="M14.7266 18.5078V19.2128C14.7266 20.2703 15.5491 21.0928 16.6066 21.0928C17.6641 21.0928 18.4866 20.2703 18.4866 19.2128V18.5078H14.7266Z" fill="#0C4DA2"/>
<path d="M18.4883 18.5078V19.2128C18.4883 20.2703 19.3108 21.0928 20.3683 21.0928C21.4258 21.0928 22.2483 20.2703 22.2483 19.2128V18.5078H18.4883Z" fill="#E0DFDB"/>
<path d="M22.2461 18.5078V19.2128C22.2461 20.2703 23.0686 21.0928 24.1261 21.0928C25.1836 21.0928 26.0061 20.2703 26.0061 19.2128V18.5078H22.2461ZM29.7661 18.5078V19.2128C29.7661 20.2703 30.5886 21.0928 31.6461 21.0928C32.7036 21.0928 33.5261 20.2703 33.5261 19.2128V18.5078H29.7661Z" fill="#0C4DA2"/>
<path d="M33.5859 18.5078V19.2128C33.5859 20.2703 34.4084 21.0928 35.4659 21.0928C36.5234 21.0928 37.3459 20.2703 37.3459 19.2128V18.5078H33.5859Z" fill="#E0DFDB"/>
<path d="M37.3438 18.5078V19.2128C37.3438 20.2703 38.1663 21.0928 39.2238 21.0928C40.2813 21.0928 41.1038 20.2703 41.1038 19.2128V18.5078H37.3438Z" fill="#0C4DA2"/>
<path d="M26.0078 18.5078V19.2128C26.0078 20.2703 26.8303 21.0928 27.8878 21.0928C28.9453 21.0928 29.7678 20.2703 29.7678 19.2128V18.5078H26.0078Z" fill="#E0DFDB"/>
<path d="M30.4719 38.6602H25.3606C24.3031 38.6602 23.4219 39.5414 23.4219 40.5989H32.4694C32.4106 39.5414 31.5294 38.6602 30.4719 38.6602Z" fill="#4187E2"/>
<path d="M10.4956 14.2217C12.8318 14.2217 14.7256 12.3279 14.7256 9.99172C14.7256 7.65555 12.8318 5.76172 10.4956 5.76172C8.15946 5.76172 6.26562 7.65555 6.26562 9.99172C6.26562 12.3279 8.15946 14.2217 10.4956 14.2217Z" fill="#FF7700"/>
<path d="M10.8498 3H10.0273V5.29125H10.8498V3Z" fill="#FFC591"/>
<path d="M7.33731 3.71375L6.625 4.125L7.77062 6.10928L8.48293 5.69803L7.33731 3.71375Z" fill="#FFC591"/>
<path d="M4.67679 6.12749L4.26562 6.83984L6.25004 7.98523L6.66121 7.27287L4.67679 6.12749Z" fill="#FFC591"/>
<path d="M3.5 9.5818V10.4043H5.79125V9.5818H3.5Z" fill="#FFC591"/>
<path d="M4.245 13.067L4.65625 13.7793L6.64053 12.6337L6.22928 11.9214L4.245 13.067Z" fill="#FFC591"/>
<path d="M6.63535 15.788L7.34766 16.1992L8.49328 14.2149L7.78097 13.8037L6.63535 15.788Z" fill="#FFC591"/>
<path d="M10.0916 16.9414H10.9141V14.6502H10.0916V16.9414Z" fill="#FFC591"/>
<path d="M13.6002 16.1964L14.3125 15.7852L13.1669 13.8009L12.4546 14.2121L13.6002 16.1964Z" fill="#FFC591"/>
<path d="M16.2919 13.7729L16.7031 13.0605L14.7188 11.9149L14.3076 12.6272L16.2919 13.7729Z" fill="#FFC591"/>
<path d="M17.4414 10.3381V9.51562H15.1502V10.3381H17.4414Z" fill="#FFC591"/>
<path d="M16.673 6.8334L16.2617 6.12109L14.2774 7.26672L14.6887 7.97902L16.673 6.8334Z" fill="#FFC591"/>
<path d="M14.3139 4.12219L13.6016 3.71094L12.4559 5.69522L13.1682 6.10647L14.3139 4.12219Z" fill="#FFC591"/>
</svg>
