<svg width="45" height="44" viewBox="0 0 45 44" fill="none" xmlns="http://www.w3.org/2000/svg">
<path d="M41.6 13.3984H4V39.072H41.6V13.3984Z" fill="#FF7700"/>
<path d="M41.6 37.4863H4V39.0138H41.6V37.4863Z" fill="#78879A"/>
<path d="M32.9642 10.7539H12.6367V40.5987H32.9642V10.7539Z" fill="#F5F4EF"/>
<path d="M31.2597 9.16797H14.3984V10.7542H31.2597V9.16797Z" fill="#FF7700"/>
<path d="M28.8523 7.58203H16.8086V9.16827H28.8523V7.58203Z" fill="#F5F4EF"/>
<path d="M27.0303 5.99609H18.5703V7.58233H27.0303V5.99609Z" fill="#FF7700"/>
<path d="M24.0337 36.3105H21.625V40.5993H24.0337V36.3105Z" fill="#0C4DA2"/>
<path d="M16.8072 12.6934H14.3984V14.9846H16.8072V12.6934Z" fill="#4187E2"/>
<path d="M20.3892 12.6934H17.9805V14.9846H20.3892V12.6934Z" fill="#4187E2"/>
<path d="M24.0337 12.6934H21.625V14.9846H24.0337V12.6934Z" fill="#4187E2"/>
<path d="M27.6158 12.6934H25.207V14.9846H27.6158V12.6934Z" fill="#4187E2"/>
<path d="M31.2017 12.6934H28.793V14.9846H31.2017V12.6934Z" fill="#4187E2"/>
<path d="M16.8072 16.1016H14.3984V18.3928H16.8072V16.1016Z" fill="#4187E2"/>
<path d="M20.3892 16.1016H17.9805V18.3928H20.3892V16.1016Z" fill="#4187E2"/>
<path d="M24.0337 16.1016H21.625V18.3928H24.0337V16.1016Z" fill="#4187E2"/>
<path d="M27.6158 16.1016H25.207V18.3928H27.6158V16.1016Z" fill="#4187E2"/>
<path d="M31.2017 16.1016H28.793V18.3928H31.2017V16.1016Z" fill="#4187E2"/>
<path d="M16.8072 19.4492H14.3984V21.7405H16.8072V19.4492Z" fill="#4187E2"/>
<path d="M20.3892 19.4492H17.9805V21.7405H20.3892V19.4492Z" fill="#4187E2"/>
<path d="M24.0337 19.4492H21.625V21.7405H24.0337V19.4492Z" fill="#4187E2"/>
<path d="M27.6158 19.4492H25.207V21.7405H27.6158V19.4492Z" fill="#4187E2"/>
<path d="M31.2017 19.4492H28.793V21.7405H31.2017V19.4492Z" fill="#4187E2"/>
<path d="M16.8072 22.8574H14.3984V25.1487H16.8072V22.8574Z" fill="#4187E2"/>
<path d="M20.3892 22.8574H17.9805V25.1487H20.3892V22.8574Z" fill="#4187E2"/>
<path d="M24.0337 22.8574H21.625V25.1487H24.0337V22.8574Z" fill="#4187E2"/>
<path d="M27.6158 22.8574H25.207V25.1487H27.6158V22.8574Z" fill="#4187E2"/>
<path d="M31.2017 22.8574H28.793V25.1487H31.2017V22.8574Z" fill="#4187E2"/>
<path d="M16.8072 26.207H14.3984V28.4983H16.8072V26.207Z" fill="#4187E2"/>
<path d="M20.3892 26.207H17.9805V28.4983H20.3892V26.207Z" fill="#4187E2"/>
<path d="M24.0337 26.207H21.625V28.4983H24.0337V26.207Z" fill="#4187E2"/>
<path d="M27.6158 26.207H25.207V28.4983H27.6158V26.207Z" fill="#4187E2"/>
<path d="M31.2017 26.207H28.793V28.4983H31.2017V26.207Z" fill="#4187E2"/>
<path d="M16.8072 29.5547H14.3984V31.8459H16.8072V29.5547Z" fill="#4187E2"/>
<path d="M20.3892 29.5547H17.9805V31.8459H20.3892V29.5547Z" fill="#4187E2"/>
<path d="M24.0337 29.5547H21.625V31.8459H24.0337V29.5547Z" fill="#4187E2"/>
<path d="M24.0337 32.9629H21.625V35.2541H24.0337V32.9629Z" fill="#4187E2"/>
<path d="M27.6158 29.5547H25.207V31.8459H27.6158V29.5547Z" fill="#4187E2"/>
<path d="M31.2017 29.5547H28.793V31.8459H31.2017V29.5547Z" fill="#4187E2"/>
<path d="M16.8072 32.9629H14.3984V35.2541H16.8072V32.9629Z" fill="#4187E2"/>
<path d="M20.3892 32.9629H17.9805V35.2541H20.3892V32.9629Z" fill="#4187E2"/>
<path d="M7.93562 14.9824H5.70312V17.0974H7.93562V14.9824Z" fill="#3776C8"/>
<path d="M11.2833 14.9824H9.05078V17.0974H11.2833V14.9824Z" fill="#3776C8"/>
<path d="M7.93562 18.1562H5.70312V20.2712H7.93562V18.1562Z" fill="#3776C8"/>
<path d="M11.2833 18.1562H9.05078V20.2712H11.2833V18.1562Z" fill="#3776C8"/>
<path d="M7.93562 21.2695H5.70312V23.3845H7.93562V21.2695Z" fill="#3776C8"/>
<path d="M11.2833 21.2695H9.05078V23.3845H11.2833V21.2695Z" fill="#3776C8"/>
<path d="M7.93562 24.3828H5.70312V26.4978H7.93562V24.3828Z" fill="#3776C8"/>
<path d="M11.2833 24.3828H9.05078V26.4978H11.2833V24.3828Z" fill="#3776C8"/>
<path d="M7.93562 27.5547H5.70312V29.6697H7.93562V27.5547Z" fill="#3776C8"/>
<path d="M11.2833 27.5547H9.05078V29.6697H11.2833V27.5547Z" fill="#3776C8"/>
<path d="M7.93562 30.668H5.70312V32.783H7.93562V30.668Z" fill="#3776C8"/>
<path d="M11.2833 30.668H9.05078V32.783H11.2833V30.668Z" fill="#3776C8"/>
<path d="M7.93562 33.7832H5.70312V35.8982H7.93562V33.7832Z" fill="#3776C8"/>
<path d="M11.2833 33.7832H9.05078V35.8982H11.2833V33.7832Z" fill="#3776C8"/>
<path d="M36.545 14.9824H34.3125V17.0974H36.545V14.9824Z" fill="#3776C8"/>
<path d="M39.8927 14.9824H37.6602V17.0974H39.8927V14.9824Z" fill="#3776C8"/>
<path d="M36.545 18.1562H34.3125V20.2712H36.545V18.1562Z" fill="#3776C8"/>
<path d="M39.8966 18.1562H37.6641V20.2712H39.8966V18.1562Z" fill="#3776C8"/>
<path d="M36.545 21.2695H34.3125V23.3845H36.545V21.2695Z" fill="#3776C8"/>
<path d="M39.8927 21.2695H37.6602V23.3845H39.8927V21.2695Z" fill="#3776C8"/>
<path d="M36.545 24.3828H34.3125V26.4978H36.545V24.3828Z" fill="#3776C8"/>
<path d="M39.8927 24.3828H37.6602V26.4978H39.8927V24.3828Z" fill="#3776C8"/>
<path d="M36.545 27.5547H34.3125V29.6697H36.545V27.5547Z" fill="#3776C8"/>
<path d="M39.8966 27.5547H37.6641V29.6697H39.8966V27.5547Z" fill="#3776C8"/>
<path d="M36.545 30.668H34.3125V32.783H36.545V30.668Z" fill="#3776C8"/>
<path d="M39.8927 30.668H37.6602V32.783H39.8927V30.668Z" fill="#3776C8"/>
<path d="M36.545 33.7832H34.3125V35.8982H36.545V33.7832Z" fill="#3776C8"/>
<path d="M39.8927 33.7832H37.6602V35.8982H39.8927V33.7832Z" fill="#3776C8"/>
<path d="M27.6158 32.9629H25.207V35.2541H27.6158V32.9629Z" fill="#4187E2"/>
<path d="M31.2017 32.9629H28.793V35.2541H31.2017V32.9629Z" fill="#4187E2"/>
<path d="M16.8072 36.3105H14.3984V38.6018H16.8072V36.3105Z" fill="#4187E2"/>
<path d="M20.3892 36.3105H17.9805V38.6018H20.3892V36.3105Z" fill="#4187E2"/>
<path d="M27.6158 36.3105H25.207V38.6018H27.6158V36.3105Z" fill="#4187E2"/>
<path d="M31.2017 36.3105H28.793V38.6018H31.2017V36.3105Z" fill="#4187E2"/>
<path d="M23.0953 3H22.5078V5.99623H23.0953V3Z" fill="#F5F4EF"/>
</svg>
