<svg width="45" height="44" viewBox="0 0 45 44" fill="none" xmlns="http://www.w3.org/2000/svg">
<path d="M26.0013 29.3327C26.0013 26.2031 28.5384 23.666 31.668 23.666C34.7976 23.666 37.3346 26.2031 37.3346 29.3327C37.3346 32.4623 34.7976 34.9993 31.668 34.9993C28.5384 34.9993 26.0013 32.4623 26.0013 29.3327ZM8.66797 29.3327C8.66797 26.2031 11.205 23.666 14.3346 23.666C17.4642 23.666 20.0013 26.2031 20.0013 29.3327C20.0013 32.4623 17.4642 34.9993 14.3346 34.9993C11.205 34.9993 8.66797 32.4623 8.66797 29.3327Z" fill="#0C4DA2"/>
<path fill-rule="evenodd" clip-rule="evenodd" d="M22.9987 11.5185C21.26 11.5185 19.8506 12.928 19.8506 14.6667C19.8506 16.4053 21.26 17.8148 22.9987 17.8148C24.7374 17.8148 26.1468 16.4053 26.1468 14.6667C26.1468 12.928 24.7374 11.5185 22.9987 11.5185ZM17.332 14.6667C17.332 11.5371 19.8691 9 22.9987 9C26.1283 9 28.6654 11.5371 28.6654 14.6667C28.6654 17.7963 26.1283 20.3333 22.9987 20.3333C19.8691 20.3333 17.332 17.7963 17.332 14.6667Z" fill="#FF7700"/>
</svg>
